<svg width="110" height="110" viewBox="0 0 110 110" fill="none" xmlns="http://www.w3.org/2000/svg">
<circle cx="55" cy="55" r="55" fill="#0047FF"/>
<path d="M65.5875 58.5384C65.5875 58.5384 65.45 58.5384 65.4362 58.5384C58.7812 58.4972 52.7313 54.7571 49.6513 48.8034C48.345 46.2321 47.685 43.4821 47.685 40.6221C47.685 30.7634 55.715 22.7334 65.5875 22.7334C75.46 22.7334 83.49 30.7634 83.49 40.6359C83.49 50.5084 75.46 58.5384 65.5875 58.5384ZM65.5875 25.4834C57.2275 25.4834 50.435 32.2759 50.435 40.6359C50.435 43.0559 50.9987 45.3796 52.0987 47.5521C54.6975 52.5846 59.8263 55.7472 65.4638 55.7884C73.9475 55.7884 80.74 48.9959 80.74 40.6359C80.74 32.2759 73.9475 25.4834 65.5875 25.4834Z" fill="#1E1F26"/>
<path d="M65.45 82.6146H38.8988C38.1425 82.6146 37.5238 81.9959 37.5238 81.2396C37.5238 79.5071 36.1213 78.1046 34.3888 78.1046C32.6562 78.1046 31.2537 79.5071 31.2537 81.2396C31.2537 81.9959 30.635 82.6146 29.8787 82.6146H24.8737C23.2925 82.6146 22 81.3221 22 79.7409V51.1821C22 48.7621 23.9663 46.7959 26.3863 46.7959H50.875C51.3838 46.7959 51.865 47.0847 52.0987 47.5384C54.7113 52.5847 59.8263 55.7472 65.4638 55.7747C66.22 55.7747 66.825 56.3934 66.825 57.1497V81.2259C66.825 81.9959 66.2062 82.6146 65.45 82.6146ZM40.1087 79.8646H64.075V58.4834C58.245 58.0021 53.02 54.6884 50.0637 49.5596H26.3863C25.4787 49.5596 24.75 50.2884 24.75 51.1821V79.7409C24.75 79.8096 24.805 79.8646 24.8737 79.8646H28.6687C29.2875 77.2796 31.625 75.3546 34.3888 75.3546C37.1525 75.3546 39.49 77.2796 40.1087 79.8646Z" fill="#1E1F26"/>
<path d="M86.625 82.6146H79.86C79.1038 82.6146 78.485 81.9959 78.485 81.2396C78.485 79.5071 77.0825 78.1046 75.35 78.1046C73.6175 78.1046 72.215 79.5071 72.215 81.2396C72.215 81.9959 71.5963 82.6146 70.84 82.6146H65.5875C64.8312 82.6146 64.2125 81.9959 64.2125 81.2396V57.2046C64.2125 56.4484 64.8312 55.8296 65.5875 55.8296H80.6163C81.125 55.8296 81.5925 56.1184 81.84 56.5722L87.8487 68.0259C87.9587 68.2184 88 68.4384 88 68.6584V81.2534C88 81.9959 87.3812 82.6146 86.625 82.6146ZM81.07 79.8646H85.25V68.9884L79.7775 58.5796H66.9625V79.8784H69.63C70.2487 77.2934 72.5863 75.3684 75.35 75.3684C78.1138 75.3684 80.4512 77.2796 81.07 79.8646Z" fill="#1E1F26"/>
<path d="M80.6163 72.1096H71.5962C70.84 72.1096 70.2212 71.4909 70.2212 70.7346V63.2271C70.2212 62.4709 70.84 61.8521 71.5962 61.8521H76.9863C77.495 61.8521 77.9625 62.1409 78.21 62.5809L81.84 69.4834C81.95 69.6759 81.9913 69.8959 81.9913 70.1297V70.7346C81.9913 71.4909 81.3725 72.1096 80.6163 72.1096ZM72.9712 69.3596H78.65L76.1475 64.6021H72.9712V69.3596Z" fill="#1E1F26"/>
<path d="M34.3888 87.1246C31.1438 87.1246 28.5037 84.4846 28.5037 81.2396C28.5037 77.9946 31.1438 75.3546 34.3888 75.3546C37.6337 75.3546 40.2737 77.9946 40.2737 81.2396C40.2737 84.4846 37.6337 87.1246 34.3888 87.1246ZM34.3888 78.1046C32.6562 78.1046 31.2537 79.5071 31.2537 81.2396C31.2537 82.9721 32.6562 84.3746 34.3888 84.3746C36.1213 84.3746 37.5238 82.9721 37.5238 81.2396C37.5238 79.5071 36.1213 78.1046 34.3888 78.1046Z" fill="#1E1F26"/>
<path d="M75.35 87.1246C72.105 87.1246 69.465 84.4846 69.465 81.2396C69.465 77.9946 72.105 75.3546 75.35 75.3546C78.595 75.3546 81.235 77.9946 81.235 81.2396C81.235 84.4846 78.595 87.1246 75.35 87.1246ZM75.35 78.1046C73.6175 78.1046 72.215 79.5071 72.215 81.2396C72.215 82.9721 73.6175 84.3746 75.35 84.3746C77.0825 84.3746 78.485 82.9721 78.485 81.2396C78.485 79.5071 77.0825 78.1046 75.35 78.1046Z" fill="#1E1F26"/>
<path d="M65.45 72.1096H23.375C22.6187 72.1096 22 71.4909 22 70.7346C22 69.9784 22.6187 69.3596 23.375 69.3596H65.45C66.2062 69.3596 66.825 69.9784 66.825 70.7346C66.825 71.4909 66.2062 72.1096 65.45 72.1096Z" fill="#1E1F26"/>
<path d="M30.25 72.1096C29.4938 72.1096 28.875 71.4909 28.875 70.7346V48.1846C28.875 47.4284 29.4938 46.8096 30.25 46.8096C31.0063 46.8096 31.625 47.4284 31.625 48.1846V70.7346C31.625 71.4909 31.0063 72.1096 30.25 72.1096Z" fill="#1E1F26"/>
<path d="M37.125 72.1096C36.3687 72.1096 35.75 71.4909 35.75 70.7346V48.1846C35.75 47.4284 36.3687 46.8096 37.125 46.8096C37.8813 46.8096 38.5 47.4284 38.5 48.1846V70.7346C38.5 71.4909 37.8813 72.1096 37.125 72.1096Z" fill="#1E1F26"/>
<path d="M65.5875 28.2334C64.8312 28.2334 64.2125 27.6146 64.2125 26.8584V24.1084C64.2125 23.3521 64.8312 22.7334 65.5875 22.7334C66.3438 22.7334 66.9625 23.3521 66.9625 24.1084V26.8584C66.9625 27.6146 66.3438 28.2334 65.5875 28.2334Z" fill="#1E1F26"/>
<path d="M65.5875 58.4834C64.8312 58.4834 64.2125 57.8646 64.2125 57.1084V54.3584C64.2125 53.6021 64.8312 52.9834 65.5875 52.9834C66.3438 52.9834 66.9625 53.6021 66.9625 54.3584V57.1084C66.9625 57.8646 66.3438 58.4834 65.5875 58.4834Z" fill="#1E1F26"/>
<path d="M75.3088 32.2621C74.9513 32.2621 74.6075 32.1246 74.3325 31.8634C73.7963 31.3271 73.7963 30.4609 74.3325 29.9246L76.2713 27.9859C76.8075 27.4496 77.6738 27.4496 78.21 27.9859C78.7463 28.5221 78.7463 29.3884 78.21 29.9246L76.2713 31.8634C76.01 32.1246 75.6663 32.2621 75.3088 32.2621Z" fill="#1E1F26"/>
<path d="M53.9137 53.6434C53.5562 53.6434 53.2125 53.5059 52.9375 53.2446C52.4013 52.7084 52.4013 51.8421 52.9375 51.3059L54.8763 49.3671C55.4125 48.8309 56.2788 48.8309 56.815 49.3671C57.3512 49.9034 57.3512 50.7696 56.815 51.3059L54.8763 53.2446C54.6287 53.5196 54.2712 53.6434 53.9137 53.6434Z" fill="#1E1F26"/>
<path d="M82.0875 41.9834H79.3375C78.5812 41.9834 77.9625 41.3646 77.9625 40.6084C77.9625 39.8521 78.5812 39.2334 79.3375 39.2334H82.0875C82.8438 39.2334 83.4625 39.8521 83.4625 40.6084C83.4625 41.3646 82.8438 41.9834 82.0875 41.9834Z" fill="#1E1F26"/>
<path d="M51.8375 41.9834H49.0875C48.3313 41.9834 47.7125 41.3646 47.7125 40.6084C47.7125 39.8521 48.3313 39.2334 49.0875 39.2334H51.8375C52.5938 39.2334 53.2125 39.8521 53.2125 40.6084C53.2125 41.3646 52.5938 41.9834 51.8375 41.9834Z" fill="#1E1F26"/>
<path d="M77.2612 53.6434C76.9037 53.6434 76.56 53.5059 76.285 53.2446L74.3462 51.3059C73.81 50.7696 73.81 49.9034 74.3462 49.3671C74.8825 48.8309 75.7487 48.8309 76.285 49.3671L78.2237 51.3059C78.76 51.8421 78.76 52.7084 78.2237 53.2446C77.9625 53.5196 77.605 53.6434 77.2612 53.6434Z" fill="#1E1F26"/>
<path d="M55.8662 32.2621C55.5087 32.2621 55.165 32.1246 54.89 31.8634L52.9513 29.9246C52.415 29.3884 52.415 28.5221 52.9513 27.9859C53.4875 27.4496 54.3537 27.4496 54.89 27.9859L56.8288 29.9246C57.365 30.4609 57.365 31.3271 56.8288 31.8634C56.5675 32.1246 56.21 32.2621 55.8662 32.2621Z" fill="#1E1F26"/>
<path d="M55.8662 45.8609C55.3162 45.8609 54.8075 45.5309 54.5875 44.9946C54.2988 44.2934 54.6425 43.4959 55.3575 43.2071L64.0888 39.7009V33.0321C64.0888 32.2759 64.7075 31.6571 65.4638 31.6571C66.22 31.6571 66.8388 32.2759 66.8388 33.0321V40.6496C66.8388 41.2134 66.495 41.7221 65.9725 41.9284L56.375 45.7646C56.21 45.8334 56.0312 45.8609 55.8662 45.8609Z" fill="#1E1F26"/>
</svg>
