<svg width="110" height="110" viewBox="0 0 110 110" fill="none" xmlns="http://www.w3.org/2000/svg">
<circle cx="55" cy="55" r="55" fill="#0047FF"/>
<path d="M54.85 49.28L53.74 48.17V46.6C53.74 45.23 52.63 44.12 51.26 44.12H49.69L48.58 43.01C47.61 42.04 46.04 42.04 45.07 43.01L43.96 44.12H42.39C41.02 44.12 39.91 45.23 39.91 46.6V48.17L38.8 49.28C37.83 50.25 37.83 51.82 38.8 52.79L39.91 53.9V55.47C39.91 56.84 41.02 57.95 42.39 57.95H43.96L45.07 59.06C46.04 60.03 47.61 60.03 48.58 59.06L49.69 57.95H51.26C52.63 57.95 53.74 56.84 53.74 55.47V53.9L54.85 52.79C55.82 51.82 55.82 50.24 54.85 49.28ZM54.15 52.08L52.89 53.34C52.8 53.43 52.74 53.56 52.74 53.69V55.47C52.74 56.29 52.07 56.96 51.25 56.96H49.47C49.34 56.96 49.21 57.01 49.12 57.11L47.86 58.37C47.28 58.95 46.34 58.95 45.75 58.37L44.49 57.11C44.4 57.02 44.27 56.96 44.14 56.96H42.36C41.54 56.96 40.87 56.29 40.87 55.47V53.69C40.87 53.56 40.82 53.43 40.72 53.34L39.46 52.08C38.88 51.5 38.88 50.56 39.46 49.97L40.72 48.71C40.81 48.62 40.87 48.49 40.87 48.36V46.58C40.87 45.76 41.54 45.09 42.36 45.09H44.14C44.27 45.09 44.4 45.04 44.49 44.94L45.75 43.68C46.33 43.1 47.27 43.1 47.86 43.68L49.12 44.94C49.21 45.03 49.34 45.09 49.47 45.09H51.25C52.07 45.09 52.74 45.76 52.74 46.58V48.36C52.74 48.49 52.79 48.62 52.89 48.71L54.15 49.97C54.73 50.56 54.73 51.5 54.15 52.08ZM49.83 48.72L44.5 54.05C44.3 54.24 43.99 54.24 43.8 54.04C43.61 53.85 43.61 53.54 43.8 53.35L49.13 48.02C49.33 47.83 49.64 47.83 49.83 48.03C50.01 48.22 50.01 48.52 49.83 48.72ZM44.82 50.36C45.54 50.36 46.13 49.77 46.13 49.05C46.13 48.33 45.54 47.74 44.82 47.74C44.1 47.74 43.51 48.33 43.51 49.05C43.51 49.77 44.1 50.35 44.82 50.36ZM44.82 48.73C45 48.73 45.14 48.87 45.14 49.05C45.14 49.23 45 49.37 44.82 49.37C44.64 49.37 44.5 49.23 44.5 49.05C44.51 48.87 44.65 48.73 44.82 48.73ZM48.8 51.71C48.08 51.71 47.49 52.3 47.49 53.02C47.49 53.74 48.08 54.33 48.8 54.33C49.52 54.33 50.11 53.74 50.11 53.02C50.11 52.29 49.52 51.71 48.8 51.71ZM48.8 53.33C48.62 53.33 48.48 53.19 48.48 53.01C48.48 52.83 48.62 52.69 48.8 52.69C48.98 52.69 49.12 52.83 49.12 53.01C49.11 53.19 48.97 53.33 48.8 53.33Z" fill="white"/>
<path d="M46.81 60.08C46.07 60.08 45.38 59.79 44.85 59.27L43.82 58.24H42.36C40.84 58.24 39.6 57 39.59 55.47V54.01L38.56 52.98C38.04 52.46 37.75 51.76 37.75 51.02C37.75 50.28 38.04 49.59 38.56 49.06L39.59 48.03V46.57C39.59 45.05 40.83 43.81 42.36 43.8H43.82L44.85 42.77C45.89 41.73 47.72 41.72 48.76 42.77L49.79 43.8H51.25C52.77 43.8 54.01 45.04 54.02 46.57V48.03L55.05 49.06C55.57 49.58 55.86 50.28 55.86 51.02C55.86 51.76 55.57 52.45 55.05 52.98L54.02 54.01V55.47C54.02 56.99 52.78 58.23 51.25 58.24H49.8L48.77 59.27C48.24 59.79 47.55 60.08 46.81 60.08ZM42.37 44.39C41.16 44.39 40.17 45.38 40.17 46.59V48.28L38.97 49.48C38.55 49.9 38.33 50.45 38.33 51.04C38.33 51.63 38.56 52.18 38.97 52.6L40.17 53.8V55.49C40.17 56.7 41.16 57.69 42.37 57.69H44.06L45.26 58.89C46.09 59.72 47.54 59.72 48.37 58.89L49.57 57.69H51.26C52.47 57.69 53.46 56.7 53.46 55.49V53.8L54.66 52.6C55.08 52.18 55.3 51.63 55.3 51.05C55.3 50.49 55.09 49.96 54.71 49.55L53.46 48.3V46.61C53.46 45.4 52.47 44.41 51.26 44.41H49.57L48.37 43.22C47.54 42.39 46.09 42.39 45.26 43.22L44.06 44.42H42.37V44.39ZM46.81 59.09C46.34 59.09 45.89 58.91 45.56 58.57L44.3 57.31C44.26 57.27 44.21 57.25 44.15 57.25H42.37C41.39 57.25 40.6 56.45 40.6 55.48V53.7C40.6 53.64 40.58 53.59 40.54 53.55L39.28 52.29C38.95 51.96 38.76 51.51 38.76 51.04C38.76 50.57 38.94 50.12 39.28 49.79L40.54 48.53C40.58 48.49 40.6 48.43 40.6 48.38V46.6C40.6 45.62 41.4 44.83 42.37 44.83H44.15C44.21 44.83 44.26 44.81 44.3 44.77L45.56 43.51C46.23 42.84 47.4 42.84 48.07 43.51L49.33 44.77C49.37 44.81 49.42 44.83 49.48 44.83H51.26C52.24 44.83 53.03 45.63 53.03 46.6V48.38C53.03 48.44 53.05 48.49 53.09 48.53L54.35 49.79C54.68 50.12 54.87 50.57 54.87 51.04C54.87 51.51 54.69 51.96 54.35 52.29L53.09 53.55C53.05 53.59 53.03 53.64 53.03 53.7V55.48C53.03 56.46 52.23 57.25 51.26 57.25H49.48C49.42 57.25 49.37 57.27 49.33 57.31L48.07 58.57C47.73 58.9 47.28 59.09 46.81 59.09ZM42.37 45.38C41.71 45.38 41.16 45.92 41.16 46.59V48.37C41.16 48.57 41.08 48.78 40.93 48.92L39.67 50.18C39.44 50.41 39.32 50.71 39.32 51.03C39.32 51.35 39.45 51.65 39.67 51.88L40.93 53.14C41.08 53.29 41.16 53.48 41.16 53.69V55.47C41.16 56.13 41.7 56.68 42.37 56.68H44.15C44.36 56.68 44.55 56.76 44.7 56.91L45.96 58.17C46.42 58.63 47.21 58.63 47.67 58.17L48.93 56.91C49.08 56.76 49.27 56.68 49.48 56.68H51.26C51.92 56.68 52.47 56.14 52.47 55.47V53.69C52.47 53.48 52.55 53.28 52.7 53.14L53.96 51.88C54.43 51.41 54.43 50.64 53.96 50.17L52.7 48.91C52.55 48.76 52.47 48.56 52.47 48.36V46.58C52.47 45.92 51.93 45.37 51.26 45.37H49.48C49.27 45.37 49.08 45.29 48.93 45.14L47.67 43.88C47.21 43.42 46.42 43.42 45.96 43.88L44.7 45.14C44.55 45.29 44.36 45.37 44.15 45.37H42.37V45.38ZM48.8 54.61C47.92 54.61 47.21 53.89 47.21 53.02C47.21 52.15 47.92 51.43 48.8 51.43C49.68 51.43 50.39 52.15 50.39 53.02C50.39 53.9 49.68 54.61 48.8 54.61ZM48.8 51.99C48.23 51.99 47.77 52.45 47.77 53.02C47.77 53.59 48.23 54.05 48.8 54.05C49.37 54.05 49.83 53.59 49.83 53.02C49.82 52.45 49.36 51.99 48.8 51.99ZM44.15 54.47C43.95 54.47 43.74 54.39 43.59 54.23C43.3 53.93 43.3 53.45 43.59 53.15L48.92 47.82C49.23 47.52 49.73 47.53 50.03 47.84C50.32 48.14 50.32 48.62 50.03 48.92L44.7 54.25C44.54 54.4 44.35 54.47 44.15 54.47ZM49.47 48.16C49.42 48.16 49.36 48.18 49.32 48.22L43.99 53.55C43.91 53.63 43.91 53.76 43.99 53.84C44.07 53.92 44.21 53.93 44.29 53.84L49.62 48.51C49.7 48.43 49.7 48.3 49.62 48.22C49.58 48.18 49.53 48.16 49.47 48.16ZM48.8 53.62C48.47 53.62 48.2 53.35 48.2 53.02C48.2 52.69 48.47 52.42 48.8 52.42C49.13 52.42 49.4 52.69 49.4 53.02C49.4 53.35 49.13 53.62 48.8 53.62ZM48.83 53.02L48.79 53.06C48.82 53.05 48.83 53.04 48.83 53.02ZM44.82 50.64C43.94 50.64 43.23 49.92 43.23 49.05C43.23 48.17 43.94 47.45 44.82 47.45C45.7 47.45 46.41 48.17 46.41 49.04C46.41 49.91 45.7 50.64 44.82 50.64ZM44.82 48.02C44.25 48.02 43.79 48.48 43.79 49.05C43.79 49.62 44.25 50.08 44.82 50.08C45.39 50.08 45.85 49.62 45.85 49.05C45.85 48.48 45.39 48.02 44.82 48.02ZM44.82 49.65C44.49 49.65 44.22 49.38 44.22 49.05C44.22 48.72 44.49 48.45 44.82 48.45C45.15 48.45 45.42 48.72 45.42 49.05C45.43 49.38 45.16 49.65 44.82 49.65ZM44.82 49.01C44.8 49.01 44.79 49.03 44.79 49.04L44.82 49.01Z" fill="white"/>
<path d="M84.7 62.96H74.1C73.5 62.96 73.1 62.56 73.1 61.96V42.56C73.1 41.96 73.5 41.56 74.1 41.56H84.8C85.4 41.56 85.8 41.96 85.8 42.56V61.96C85.7 62.46 85.3 62.96 84.7 62.96ZM75.1 60.96H83.8V43.56H75.1V60.96Z" fill="white"/>
<path d="M69.3 83.66H20C19.4 83.66 19 83.26 19 82.66V65.66C19 65.06 19.4 64.66 20 64.66H69.3C69.9 64.66 70.3 65.06 70.3 65.66V82.56C70.3 83.16 69.9 83.66 69.3 83.66ZM21 81.66H68.3V66.66H21V81.66Z" fill="white"/>
<path d="M35.5 79.06H24.6C24 79.06 23.6 78.66 23.6 78.06V70.36C23.6 69.76 24 69.36 24.6 69.36H35.5C36.1 69.36 36.5 69.76 36.5 70.36V78.06C36.5 78.56 36 79.06 35.5 79.06ZM25.6 77.06H34.5V71.36H25.6V77.06Z" fill="white"/>
<path d="M50.1 79.06H39.2C38.6 79.06 38.2 78.66 38.2 78.06V70.36C38.2 69.76 38.6 69.36 39.2 69.36H50.1C50.7 69.36 51.1 69.76 51.1 70.36V78.06C51.1 78.56 50.7 79.06 50.1 79.06ZM40.2 77.06H49.1V71.36H40.2V77.06Z" fill="white"/>
<path d="M64.7 79.06H53.8C53.2 79.06 52.8 78.66 52.8 78.06V70.36C52.8 69.76 53.2 69.36 53.8 69.36H64.7C65.3 69.36 65.7 69.76 65.7 70.36V78.06C65.7 78.56 65.2 79.06 64.7 79.06ZM54.8 77.06H63.7V71.36H54.8V77.06Z" fill="white"/>
<path d="M88.6 26.03V26.16H21L19 26.12V82.66C19 83.26 19.4 83.66 20 83.66H89.5C90.1 83.66 90.5 83.26 90.5 82.66V26C89.87 26.01 89.23 26.02 88.6 26.03ZM68.3 81.66H21V66.66H68.3V81.66ZM68.3 64.66H21V38.66H68.3V64.66ZM68.3 36.66H21V28.16H68.3V36.66ZM88.5 81.66H70.3V38.66H88.5V81.66ZM88.5 36.66H70.3V28.16H88.5V36.66Z" fill="white"/>
<path d="M74.3 66.76C74.9075 66.76 75.4 66.2675 75.4 65.66C75.4 65.0525 74.9075 64.56 74.3 64.56C73.6925 64.56 73.2 65.0525 73.2 65.66C73.2 66.2675 73.6925 66.76 74.3 66.76Z" fill="white"/>
<path d="M29.2 61.06C28.9 61.06 28.7 60.96 28.5 60.76L24.8 57.06C24.4 56.66 24.4 56.06 24.8 55.66C25.2 55.26 25.8 55.26 26.2 55.66L29.9 59.36C30.3 59.76 30.3 60.36 29.9 60.76C29.7 60.96 29.4 61.06 29.2 61.06Z" fill="white"/>
<path d="M33.8 60.36C33.5 60.36 33.3 60.26 33.1 60.06L25.6 52.56C25.2 52.16 25.2 51.56 25.6 51.16C26 50.76 26.6 50.76 27 51.16L34.5 58.66C34.9 59.06 34.9 59.66 34.5 60.06C34.3 60.26 34 60.36 33.8 60.36Z" fill="white"/>
</svg>
