<svg width="110" height="110" viewBox="0 0 110 110" fill="none" xmlns="http://www.w3.org/2000/svg">
<circle cx="55" cy="55" r="55" fill="#0047FF"/>
<path d="M41.4128 69.9902C41.0959 69.9902 40.8026 69.8611 40.5796 69.6499L36.6718 65.7421C36.2141 65.2845 36.2141 64.5452 36.6718 64.0875L41.5771 59.1822C41.8118 58.9358 42.1521 58.8302 42.4924 58.8419C42.8327 58.8654 43.1379 59.0296 43.3491 59.2996C43.8772 60.0037 44.4522 60.6608 45.0624 61.2711C45.6726 61.8813 46.3298 62.4446 47.0339 62.9844C47.3038 63.1839 47.4681 63.5007 47.4916 63.841C47.515 64.1814 47.386 64.5099 47.1513 64.7564L42.246 69.6617C42.023 69.8729 41.7296 69.9902 41.4128 69.9902ZM39.1714 64.9207L41.4128 67.1621L44.5695 64.0053C44.1588 63.6533 43.7715 63.3012 43.4078 62.9257C43.044 62.5619 42.6802 62.1629 42.3281 61.7639L39.1714 64.9207Z" fill="white"/>
<path d="M28.469 84.3422C26.8144 84.3422 25.148 83.7085 23.8923 82.4528C21.3693 79.9298 21.3693 75.8108 23.8923 73.2877L34.8881 62.2919C35.1111 62.069 35.4044 61.9516 35.7213 61.9516C36.0381 61.9516 36.3315 62.0807 36.5545 62.2919L44.0532 69.7907C44.5109 70.2483 44.5109 70.9876 44.0532 71.4453L33.0574 82.4411C31.7783 83.7085 30.1237 84.3422 28.469 84.3422ZM35.7096 64.7798L25.547 74.9424C23.9393 76.5501 23.9393 79.1787 25.547 80.7865C27.1547 82.3942 29.7833 82.3942 31.391 80.7865L41.5536 70.6239L35.7096 64.7798Z" fill="white"/>
<path d="M58.8394 69.3096C53.2535 69.3096 47.6559 67.1855 43.4078 62.9374C34.8998 54.4177 34.8998 40.5703 43.396 32.0624C47.5268 27.9434 53.0071 25.6667 58.8394 25.6667C64.6718 25.6667 70.152 27.9434 74.2711 32.0624C78.3901 36.1814 80.6667 41.6617 80.6667 47.494C80.6667 53.3264 78.3901 58.8067 74.2711 62.9374C70.0112 67.1855 64.4253 69.3096 58.8394 69.3096ZM45.0624 61.2711C52.6668 68.8637 65.0238 68.8519 72.6047 61.271C76.2895 57.5862 78.3197 52.6927 78.3197 47.494C78.3197 42.2954 76.2895 37.4018 72.6047 33.7288C68.9316 30.0439 64.0381 28.0138 58.8394 28.0138C53.6408 28.0138 48.7472 30.0439 45.0624 33.717C37.4698 41.3096 37.4698 53.6667 45.0624 61.2711Z" fill="white"/>
<path d="M47.5503 37.3901C47.2452 37.3901 46.9518 37.2728 46.7171 37.0498C46.2594 36.5921 46.2594 35.8528 46.7171 35.3951C49.956 32.1445 54.2628 30.3608 58.8394 30.3608C59.4849 30.3608 60.013 30.8889 60.013 31.5343C60.013 32.1797 59.4849 32.7078 58.8394 32.7078C54.8847 32.7078 51.1764 34.2451 48.3835 37.0381C48.1488 37.2728 47.8554 37.3901 47.5503 37.3901Z" fill="white"/>
<path d="M58.8511 55.9198C50.6953 55.9198 44.2879 48.5619 44.018 48.2568C43.6425 47.8226 43.6425 47.1654 44.018 46.7312C44.2879 46.4144 50.6953 39.0682 58.8511 39.0682C66.9836 39.0682 73.4027 46.4261 73.6726 46.7312C74.0481 47.1654 74.0481 47.8226 73.6726 48.2568C73.3909 48.5736 66.9836 55.9198 58.8511 55.9198ZM46.5176 47.494C48.313 49.2777 53.2183 53.5845 58.8394 53.5845C64.4723 53.5845 69.3541 49.2895 71.1495 47.5057C69.3541 45.722 64.4488 41.4152 58.8394 41.4152C53.2066 41.4035 48.313 45.6985 46.5176 47.494Z" fill="white"/>
<path d="M58.8393 51.8594C56.4337 51.8594 54.4622 49.8996 54.4622 47.4822C54.4622 45.0648 56.4219 43.105 58.8393 43.105C61.2568 43.105 63.2165 45.0648 63.2165 47.4822C63.2165 49.8996 61.245 51.8594 58.8393 51.8594ZM58.8393 45.4638C57.7245 45.4638 56.8092 46.3674 56.8092 47.4939C56.8092 48.6205 57.7128 49.5241 58.8393 49.5241C59.9659 49.5241 60.8695 48.6205 60.8695 47.4939C60.8695 46.3674 59.9542 45.4638 58.8393 45.4638Z" fill="white"/>
</svg>
