<svg width="110" height="110" viewBox="0 0 110 110" fill="none" xmlns="http://www.w3.org/2000/svg">
<circle cx="55" cy="55" r="55" fill="#0047FF"/>
<path d="M58.0503 85.267L63.4001 79.9171C63.5278 79.7894 63.7251 79.7198 63.8527 79.7894L71.3263 80.9499C71.5235 80.9499 71.6512 81.0196 71.8369 81.0196C73.45 81.0196 74.7961 79.8591 75.0514 78.246L76.2119 70.7724C76.2119 70.5752 76.3396 70.4475 76.4672 70.3895L83.2329 66.9776C84.0104 66.5947 84.5907 65.8868 84.846 65.0512C85.1013 64.2157 85.0432 63.3105 84.6487 62.5446L81.2368 55.7789C81.1672 55.6513 81.1672 55.454 81.2368 55.2683L84.7183 48.6303C85.1013 47.8528 85.1709 46.9592 84.9156 46.1236C84.6603 45.2881 84.08 44.6382 83.3025 44.1972L76.5369 40.7854C76.4092 40.7158 76.2815 40.5301 76.2815 40.4024L75.063 32.9289C74.8077 31.3158 73.45 30.1553 71.8485 30.1553C71.6512 30.1553 71.5235 30.1553 71.3379 30.2249L63.8643 31.3854C63.667 31.3854 63.5394 31.3854 63.4117 31.2578L58.0619 25.9079C57.4004 25.258 56.6345 24.9331 55.7293 24.9331C54.8241 24.9331 54.0582 25.258 53.4083 25.8963L48.0584 31.2462C47.9308 31.3738 47.8031 31.3738 47.6755 31.3738H47.6059L40.1323 30.2133C39.935 30.2133 39.8074 30.1437 39.6217 30.1437C38.0086 30.1437 36.6624 31.3042 36.4071 32.9173L35.2466 40.3908C35.2466 40.5881 35.119 40.7158 34.9913 40.7738L28.1677 44.1856C27.3901 44.5686 26.8099 45.2765 26.5546 46.112C26.2993 46.9476 26.3573 47.8528 26.7519 48.6187L30.1637 55.3843C30.2333 55.512 30.2333 55.7093 30.1637 55.895L26.7519 62.5446C26.3689 63.3221 26.2993 64.2157 26.5546 65.0512C26.8099 65.8868 27.3901 66.5367 28.1677 66.9776L34.9333 70.3895C35.061 70.4591 35.1886 70.6448 35.1886 70.7724L36.4071 78.246C36.6624 79.8591 38.0202 81.0196 39.6217 81.0196C39.819 81.0196 39.9466 81.0196 40.1323 80.9499L47.6059 79.7894C47.8031 79.7894 47.9308 79.7894 48.0584 79.9171L53.4083 85.267C54.0466 85.9052 54.8241 86.2302 55.7293 86.2302C56.6345 86.2418 57.4004 85.9168 58.0503 85.267ZM49.9965 77.9907C49.4162 77.4104 48.511 77.0275 47.6755 77.0275C47.4782 77.0275 47.3505 77.0275 47.1649 77.0971L39.6913 78.2576C39.3664 78.3272 39.1111 78.1299 39.053 77.805L37.8926 70.3315C37.6953 69.2986 37.057 68.405 36.1518 67.9524L29.4558 64.5406C29.2585 64.471 29.2005 64.2853 29.2005 64.2157C29.2005 64.146 29.1309 63.9604 29.2701 63.8327L32.682 57.0671C33.1345 56.1619 33.1345 55.0014 32.682 54.1078L29.2005 47.3422C29.1309 47.1449 29.1309 47.0172 29.1309 46.9592C29.1309 46.8896 29.2005 46.7619 29.3862 46.6343L36.1518 43.2224C37.057 42.7698 37.7649 41.8646 37.8926 40.8434L39.053 33.3699C39.1227 33.1146 39.378 32.8592 39.6913 32.9173L47.1649 34.0778C47.3622 34.0778 47.4898 34.1474 47.6755 34.1474C48.511 34.1474 49.3466 33.8225 49.9965 33.1842L55.3463 27.8343C55.474 27.7067 55.6713 27.7067 55.7293 27.7067C55.7873 27.7067 55.9846 27.7067 56.1122 27.8343L61.4621 33.1842C62.17 33.8921 63.2609 34.275 64.2937 34.0894L71.7672 32.9289C72.0922 32.8592 72.3475 33.0565 72.4055 33.3815L73.566 40.855C73.7633 41.8879 74.4016 42.7814 75.3067 43.234L82.0724 46.6459C82.2697 46.7155 82.3277 46.9012 82.3277 46.9708C82.3277 47.0404 82.3973 47.2261 82.2581 47.3538L78.8462 54.1194C78.3936 55.0246 78.3936 56.1851 78.8462 57.0787L82.2581 63.8443C82.3277 64.0416 82.3277 64.1693 82.3277 64.2273C82.3277 64.2969 82.2581 64.4246 82.0724 64.5522L75.3067 67.9641C74.4016 68.4166 73.6937 69.3218 73.566 70.3431L72.4055 77.8166C72.3359 78.0719 72.0806 78.3272 71.7672 78.2692L64.2937 77.1087C63.2609 76.9114 62.17 77.306 61.4621 78.0139L56.1122 83.3637C55.9846 83.4914 55.7873 83.4914 55.7293 83.4914C55.6713 83.4914 55.474 83.4914 55.3463 83.3637L49.9965 77.9907ZM68.4134 62.9856L70.0265 52.75C70.0265 52.6804 70.0265 52.6224 70.0265 52.5528C70.0265 50.0461 67.9608 47.9804 65.4542 47.9804H60.0463V44.3133C60.0463 42.2476 59.408 40.7042 58.1779 39.8106C56.2515 38.3948 53.8029 39.1027 53.4779 39.2303C52.8977 39.4276 52.5147 39.9382 52.5147 40.5185V45.4157C52.5147 48.7696 48.5226 49.9184 48.3254 49.9881C48.2557 49.9881 48.1977 50.0577 48.1281 50.0577C47.7451 49.7328 47.2229 49.6051 46.6426 49.6051H43.0335C41.6177 49.6051 40.4572 50.7656 40.4572 52.1814V64.413C40.4572 65.8288 41.6177 66.9892 43.0335 66.9892H46.6426C47.2229 66.9892 47.8031 66.792 48.1861 66.4786C48.9636 67.1169 49.9268 67.4418 51.0177 67.4418H62.9939C66.0925 67.3722 68.0885 65.7591 68.4134 62.9856ZM46.5846 64.2157H43.3701V52.2974H46.5846V64.2157ZM49.3582 62.7999V52.5644C50.3214 52.2394 55.3463 50.371 55.3463 45.4157V41.679C55.7989 41.679 56.3095 41.7486 56.6345 42.0039C57.2727 42.4565 57.412 43.4893 57.412 44.2553V49.3382C57.412 50.1157 58.0503 50.696 58.7698 50.696H65.5354C66.4986 50.696 67.3342 51.4735 67.4038 52.4367L65.7907 62.5446C65.7907 62.5446 65.7907 62.5446 65.7907 62.6142C65.7211 63.1944 65.5354 64.6102 63.2144 64.6102H51.157C50.1937 64.6683 49.3582 63.8327 49.3582 62.7999Z" fill="white"/>
</svg>
