<svg width="80" height="28" viewBox="0 0 80 28" fill="none" xmlns="http://www.w3.org/2000/svg">
<path d="M70.3961 22.2749C68.3208 22.2749 66.319 20.7496 66.319 17.6639C66.319 14.5403 68.3208 13.0894 70.3961 13.0894C72.5048 13.0894 74.4692 14.5403 74.4692 17.6639C74.4692 20.7875 72.5061 22.2749 70.3961 22.2749ZM70.3961 7.88337C65.0108 7.88337 60.7894 11.9373 60.7894 17.6639C60.7894 23.3918 65.0095 27.4809 70.3961 27.4809C75.8148 27.4809 80.0001 23.3905 80.0001 17.6639C80.0001 11.9373 75.8148 7.88337 70.3961 7.88337ZM58.6794 15.3205V26.9238H53.1484V16.2873C53.1484 14.4659 52.2024 13.0894 50.2019 13.0894C48.4554 13.0894 47.3275 14.3537 47.2193 16.0642V26.9238H41.6883V0H47.2193V9.63177C48.3458 8.47969 50.2393 7.95909 51.8375 7.95909C56.5694 7.95774 58.6794 11.2679 58.6794 15.3205ZM31.352 6.2472H26.9502L30.299 0.631481H36.4834L31.352 6.2472ZM38.7391 23.6136C38.7391 25.2876 38.8848 26.6263 38.9222 26.9238H33.609C33.5369 26.5885 33.4634 25.5473 33.4634 25.0645C32.5173 26.6642 30.4433 27.3335 28.6246 27.3335C24.2215 27.3335 21.748 24.0612 21.748 20.1195V8.44183H27.279V18.9282C27.279 20.7131 28.2251 22.1262 30.1881 22.1262C32.0442 22.1262 33.2081 20.824 33.2081 18.9647V8.44183H38.7391V23.6136ZM10.0487 22.2749C7.90258 22.2749 5.93821 20.7131 5.93821 17.6639C5.93821 14.5403 7.90258 13.0894 10.0487 13.0894C12.1975 13.0894 14.1244 14.5403 14.1244 17.6639C14.1244 20.751 12.1975 22.2749 10.0487 22.2749ZM11.25 7.9956C8.77652 7.9956 6.77474 9.0368 6.01171 10.1889V0H0.590332V26.9238H5.93821V24.8414C6.7734 26.2545 8.62953 27.3335 11.0322 27.3335C16.0901 27.3335 19.6554 23.2796 19.6554 17.6274C19.6554 12.086 16.4897 7.9956 11.25 7.9956Z" fill="white"/>
</svg>
