<svg width="31" height="19" viewBox="0 0 31 19" fill="none" xmlns="http://www.w3.org/2000/svg">
<path d="M21.8472 0.436523H9.13898C9.10156 0.436523 9.06415 0.439228 9.02539 0.439228H8.94254V0.441932C3.98486 0.547405 0 4.64459 0 9.68427C0 14.7916 3.82851 19.2566 9.13898 18.932C12.0775 18.7522 14.5163 17.139 15.2606 13.6287H15.4944L17.8423 18.932H21.8806V18.9307C26.9118 18.9131 30.9862 14.7794 30.9862 9.68427C30.9849 4.57698 26.8944 0.436523 21.8472 0.436523ZM9.13898 13.7355C6.92873 13.7355 5.13541 11.9208 5.13541 9.68427C5.13541 7.44772 6.92873 5.63306 9.13898 5.63306C11.3519 5.63306 13.1439 7.44772 13.1439 9.68427C13.1439 11.9208 11.3519 13.7355 9.13898 13.7355ZM21.8472 13.7355C19.637 13.7355 17.8423 11.9208 17.8423 9.68427C17.8423 7.44772 19.637 5.63306 21.8472 5.63306C24.0575 5.63306 25.8508 7.44772 25.8508 9.68427C25.8508 11.9208 24.0575 13.7355 21.8472 13.7355Z" fill="#00FF00"/>
</svg>
