<svg width="110" height="110" viewBox="0 0 110 110" fill="none" xmlns="http://www.w3.org/2000/svg">
<circle cx="55" cy="55" r="55" fill="#FF0054"/>
<path d="M73.5582 88.7333H36.4417C34.1454 88.7333 32.2666 86.8358 32.2666 84.5166V28.5614C32.2666 26.2423 34.1454 24.3448 36.4417 24.3448H73.5582C75.8545 24.3448 77.7333 26.2423 77.7333 28.5614V84.5166C77.7333 86.8358 75.8545 88.7333 73.5582 88.7333ZM36.4417 27.1559C35.6763 27.1559 35.05 27.7884 35.05 28.5614V84.5166C35.05 85.2897 35.6763 85.9222 36.4417 85.9222H73.5582C74.3236 85.9222 74.9499 85.2897 74.9499 84.5166V28.5614C74.9499 27.7884 74.3236 27.1559 73.5582 27.1559H36.4417Z" fill="#1E1F26"/>
<path d="M45.8495 30.234C45.0841 30.234 44.4578 29.6015 44.4578 28.8285V22.6722C44.4578 21.8991 45.0841 21.2666 45.8495 21.2666C46.615 21.2666 47.2412 21.8991 47.2412 22.6722V28.8285C47.2412 29.6015 46.615 30.234 45.8495 30.234Z" fill="#1E1F26"/>
<path d="M54.993 30.234C54.2275 30.234 53.6013 29.6015 53.6013 28.8285V22.6722C53.6013 21.8991 54.2275 21.2666 54.993 21.2666C55.7584 21.2666 56.3847 21.8991 56.3847 22.6722V28.8285C56.3847 29.6015 55.7723 30.234 54.993 30.234Z" fill="#1E1F26"/>
<path d="M64.1364 30.234C63.371 30.234 62.7447 29.6015 62.7447 28.8285V22.6722C62.7447 21.8991 63.371 21.2666 64.1364 21.2666C64.9018 21.2666 65.5281 21.8991 65.5281 22.6722V28.8285C65.5281 29.6015 64.9158 30.234 64.1364 30.234Z" fill="#1E1F26"/>
<path d="M42.6626 45.1329C42.593 45.1329 42.5095 45.1329 42.4399 45.1189C42.0502 45.0486 41.7023 44.8237 41.4935 44.4864L39.6426 41.5207C39.239 40.86 39.4199 40.0027 40.074 39.581C40.7281 39.1734 41.577 39.3702 41.9945 40.0167L43.0105 41.6472L48.285 37.3321C48.8834 36.8402 49.7602 36.9385 50.2473 37.5429C50.7344 38.1473 50.637 39.0328 50.0385 39.5248L43.5393 44.8237C43.2888 45.0345 42.9687 45.1329 42.6626 45.1329Z" fill="#1E1F26"/>
<path d="M69.1883 42.4905H56.1342C55.3687 42.4905 54.7425 41.858 54.7425 41.0849C54.7425 40.3119 55.3687 39.6794 56.1342 39.6794H69.1883C69.9537 39.6794 70.58 40.3119 70.58 41.0849C70.58 41.858 69.9676 42.4905 69.1883 42.4905Z" fill="#1E1F26"/>
<path d="M42.6626 56.3774C42.593 56.3774 42.5095 56.3774 42.4399 56.3633C42.0502 56.293 41.7023 56.0682 41.4935 55.7308L39.6426 52.7651C39.239 52.1045 39.4199 51.2471 40.074 50.8254C40.7281 50.4178 41.577 50.6146 41.9945 51.2612L43.0105 52.8916L48.285 48.5765C48.8834 48.0846 49.7602 48.183 50.2473 48.7874C50.7344 49.3918 50.637 50.2773 50.0385 50.7692L43.5393 56.0682C43.2888 56.279 42.9687 56.3774 42.6626 56.3774Z" fill="#1E1F26"/>
<path d="M69.1883 53.7349H56.1342C55.3687 53.7349 54.7425 53.1024 54.7425 52.3294C54.7425 51.5563 55.3687 50.9238 56.1342 50.9238H69.1883C69.9537 50.9238 70.58 51.5563 70.58 52.3294C70.58 53.1024 69.9676 53.7349 69.1883 53.7349Z" fill="#1E1F26"/>
<path d="M42.6626 67.6218C42.593 67.6218 42.5095 67.6218 42.4399 67.6078C42.0502 67.5375 41.7023 67.3126 41.4935 66.9753L39.6426 64.0095C39.239 63.3489 39.4199 62.4915 40.074 62.0699C40.7281 61.6623 41.577 61.859 41.9945 62.5056L43.0105 64.136L48.285 59.821C48.8834 59.329 49.7602 59.4274 50.2473 60.0318C50.7344 60.6362 50.637 61.5217 50.0385 62.0137L43.5393 67.3126C43.2888 67.5234 42.9687 67.6218 42.6626 67.6218Z" fill="#1E1F26"/>
<path d="M69.1883 64.9794H56.1342C55.3687 64.9794 54.7425 64.3469 54.7425 63.5738C54.7425 62.8008 55.3687 62.1683 56.1342 62.1683H69.1883C69.9537 62.1683 70.58 62.8008 70.58 63.5738C70.58 64.3469 69.9676 64.9794 69.1883 64.9794Z" fill="#1E1F26"/>
<path d="M42.6626 78.8663C42.593 78.8663 42.5095 78.8663 42.4399 78.8522C42.0502 78.7819 41.7023 78.557 41.4935 78.2197L39.6426 75.254C39.239 74.5934 39.4199 73.736 40.074 73.3143C40.7281 72.9067 41.577 73.1035 41.9945 73.75L43.0105 75.3805L48.285 71.0654C48.8834 70.5735 49.7602 70.6719 50.2473 71.2763C50.7344 71.8807 50.637 72.7662 50.0385 73.2581L43.5393 78.557C43.2888 78.7679 42.9687 78.8663 42.6626 78.8663Z" fill="#1E1F26"/>
<path d="M69.1883 76.2238H56.1342C55.3687 76.2238 54.7425 75.5913 54.7425 74.8183C54.7425 74.0452 55.3687 73.4127 56.1342 73.4127H69.1883C69.9537 73.4127 70.58 74.0452 70.58 74.8183C70.58 75.5913 69.9676 76.2238 69.1883 76.2238Z" fill="#1E1F26"/>
</svg>
