<svg width="110" height="110" viewBox="0 0 110 110" fill="none" xmlns="http://www.w3.org/2000/svg">
<circle cx="55" cy="55" r="55" fill="#00FFEA"/>
<path d="M58.0501 85.267L63.3999 79.9171C63.5276 79.7894 63.7249 79.7198 63.8525 79.7894L71.3261 80.9499C71.5234 80.9499 71.651 81.0196 71.8367 81.0196C73.4498 81.0196 74.7959 79.8591 75.0512 78.246L76.2117 70.7724C76.2117 70.5752 76.3394 70.4475 76.467 70.3895L83.2327 66.9776C84.0102 66.5947 84.5905 65.8868 84.8458 65.0512C85.1011 64.2157 85.0431 63.3105 84.6485 62.5446L81.2367 55.7789C81.167 55.6513 81.167 55.454 81.2367 55.2683L84.7181 48.6303C85.1011 47.8528 85.1707 46.9592 84.9154 46.1236C84.6601 45.2881 84.0799 44.6382 83.3023 44.1972L76.5367 40.7854C76.409 40.7158 76.2814 40.5301 76.2814 40.4024L75.0629 32.9289C74.8075 31.3158 73.4498 30.1553 71.8483 30.1553C71.651 30.1553 71.5234 30.1553 71.3377 30.2249L63.8641 31.3854C63.6668 31.3854 63.5392 31.3854 63.4115 31.2578L58.0617 25.9079C57.4002 25.258 56.6343 24.9331 55.7291 24.9331C54.8239 24.9331 54.058 25.258 53.4081 25.8963L48.0583 31.2462C47.9306 31.3738 47.803 31.3738 47.6753 31.3738H47.6057L40.1321 30.2133C39.9348 30.2133 39.8072 30.1437 39.6215 30.1437C38.0084 30.1437 36.6623 31.3042 36.4069 32.9173L35.2465 40.3908C35.2465 40.5881 35.1188 40.7158 34.9911 40.7738L28.1675 44.1856C27.3899 44.5686 26.8097 45.2765 26.5544 46.112C26.2991 46.9476 26.3571 47.8528 26.7517 48.6187L30.1635 55.3843C30.2331 55.512 30.2331 55.7093 30.1635 55.895L26.7517 62.5446C26.3687 63.3221 26.2991 64.2157 26.5544 65.0512C26.8097 65.8868 27.3899 66.5367 28.1675 66.9776L34.9331 70.3895C35.0608 70.4591 35.1884 70.6448 35.1884 70.7724L36.4069 78.246C36.6623 79.8591 38.02 81.0196 39.6215 81.0196C39.8188 81.0196 39.9464 81.0196 40.1321 80.9499L47.6057 79.7894C47.803 79.7894 47.9306 79.7894 48.0583 79.9171L53.4081 85.267C54.0464 85.9052 54.8239 86.2302 55.7291 86.2302C56.6343 86.2418 57.4002 85.9168 58.0501 85.267ZM49.9963 77.9907C49.416 77.4104 48.5109 77.0275 47.6753 77.0275C47.478 77.0275 47.3504 77.0275 47.1647 77.0971L39.6911 78.2576C39.3662 78.3272 39.1109 78.1299 39.0529 77.805L37.8924 70.3315C37.6951 69.2986 37.0568 68.405 36.1516 67.9524L29.4556 64.5406C29.2583 64.471 29.2003 64.2853 29.2003 64.2157C29.2003 64.146 29.1307 63.9604 29.2699 63.8327L32.6818 57.0671C33.1344 56.1619 33.1344 55.0014 32.6818 54.1078L29.2003 47.3422C29.1307 47.1449 29.1307 47.0172 29.1307 46.9592C29.1307 46.8896 29.2003 46.7619 29.386 46.6343L36.1516 43.2224C37.0568 42.7698 37.7647 41.8646 37.8924 40.8434L39.0529 33.3699C39.1225 33.1146 39.3778 32.8592 39.6911 32.9173L47.1647 34.0778C47.362 34.0778 47.4896 34.1474 47.6753 34.1474C48.5109 34.1474 49.3464 33.8225 49.9963 33.1842L55.3461 27.8343C55.4738 27.7067 55.6711 27.7067 55.7291 27.7067C55.7871 27.7067 55.9844 27.7067 56.1121 27.8343L61.4619 33.1842C62.1698 33.8921 63.2607 34.275 64.2935 34.0894L71.7671 32.9289C72.092 32.8592 72.3473 33.0565 72.4053 33.3815L73.5658 40.855C73.7631 41.8879 74.4014 42.7814 75.3066 43.234L82.0722 46.6459C82.2695 46.7155 82.3275 46.9012 82.3275 46.9708C82.3275 47.0404 82.3971 47.2261 82.2579 47.3538L78.846 54.1194C78.3935 55.0246 78.3935 56.1851 78.846 57.0787L82.2579 63.8443C82.3275 64.0416 82.3275 64.1693 82.3275 64.2273C82.3275 64.2969 82.2579 64.4246 82.0722 64.5522L75.3066 67.9641C74.4014 68.4166 73.6935 69.3218 73.5658 70.3431L72.4053 77.8166C72.3357 78.0719 72.0804 78.3272 71.7671 78.2692L64.2935 77.1087C63.2607 76.9114 62.1698 77.306 61.4619 78.0139L56.1121 83.3637C55.9844 83.4914 55.7871 83.4914 55.7291 83.4914C55.6711 83.4914 55.4738 83.4914 55.3461 83.3637L49.9963 77.9907ZM68.4132 62.9856L70.0263 52.75C70.0263 52.6804 70.0263 52.6224 70.0263 52.5528C70.0263 50.0461 67.9607 47.9804 65.454 47.9804H60.0461V44.3133C60.0461 42.2476 59.4078 40.7042 58.1777 39.8106C56.2513 38.3948 53.8027 39.1027 53.4777 39.2303C52.8975 39.4276 52.5145 39.9382 52.5145 40.5185V45.4157C52.5145 48.7696 48.5225 49.9184 48.3252 49.9881C48.2555 49.9881 48.1975 50.0577 48.1279 50.0577C47.7449 49.7328 47.2227 49.6051 46.6425 49.6051H43.0333C41.6175 49.6051 40.4571 50.7656 40.4571 52.1814V64.413C40.4571 65.8288 41.6175 66.9892 43.0333 66.9892H46.6425C47.2227 66.9892 47.803 66.792 48.1859 66.4786C48.9634 67.1169 49.9266 67.4418 51.0175 67.4418H62.9938C66.0923 67.3722 68.0883 65.7591 68.4132 62.9856ZM46.5844 64.2157H43.3699V52.2974H46.5844V64.2157ZM49.358 62.7999V52.5644C50.3212 52.2394 55.3461 50.371 55.3461 45.4157V41.679C55.7987 41.679 56.3093 41.7486 56.6343 42.0039C57.2725 42.4565 57.4118 43.4893 57.4118 44.2553V49.3382C57.4118 50.1157 58.0501 50.696 58.7696 50.696H65.5352C66.4984 50.696 67.334 51.4735 67.4036 52.4367L65.7905 62.5446C65.7905 62.5446 65.7905 62.5446 65.7905 62.6142C65.7209 63.1944 65.5352 64.6102 63.2143 64.6102H51.1568C50.1936 64.6683 49.358 63.8327 49.358 62.7999Z" fill="#1E1F26"/>
</svg>
