<svg width="110" height="110" viewBox="0 0 110 110" fill="none" xmlns="http://www.w3.org/2000/svg">
<circle cx="55" cy="55" r="55" fill="#00FFEA"/>
<path d="M54.9463 81.6292C48.1745 81.6292 41.7137 78.9731 36.8442 74.1035C26.8299 64.0893 26.8299 47.8057 36.8442 37.7915C46.8464 27.7893 63.142 27.7893 73.1562 37.7915C83.1704 47.8057 83.1704 64.0893 73.1562 74.1035C72.6896 74.5701 71.9358 74.5701 71.4692 74.1035C71.0026 73.6369 71.0026 72.8832 71.4692 72.4166C80.5502 63.3356 80.5502 48.5715 71.4692 39.4905C62.3882 30.4095 47.6241 30.4095 38.5431 39.4905C29.4621 48.5715 29.4621 63.3356 38.5431 72.4166C43.6878 77.5613 50.7827 79.9781 58.0092 79.0448C58.6673 78.9731 59.2655 79.4277 59.3492 80.0738C59.433 80.7318 58.9664 81.33 58.3203 81.4138C57.1837 81.5574 56.059 81.6292 54.9463 81.6292Z" fill="#1E1F26"/>
<path d="M76.8173 74.4625H72.3067C71.6487 74.4625 71.1103 73.9241 71.1103 73.266V68.7554C71.1103 68.0974 71.6487 67.559 72.3067 67.559C72.9647 67.559 73.5031 68.0974 73.5031 68.7554V72.0696H76.8173C77.4753 72.0696 78.0137 72.608 78.0137 73.266C78.0137 73.9241 77.4873 74.4625 76.8173 74.4625Z" fill="#1E1F26"/>
<path d="M54.9942 32.6708C54.3361 32.6708 53.7977 32.1324 53.7977 31.4743V25.3964C53.7977 24.7383 54.3361 24.2 54.9942 24.2C55.6522 24.2 56.1906 24.7383 56.1906 25.3964V31.4743C56.1906 32.1324 55.6522 32.6708 54.9942 32.6708Z" fill="#1E1F26"/>
<path d="M58.6673 26.5928H51.3211C50.6631 26.5928 50.1247 26.0544 50.1247 25.3964C50.1247 24.7383 50.6631 24.2 51.3211 24.2H58.6673C59.3253 24.2 59.8637 24.7383 59.8637 25.3964C59.8637 26.0544 59.3253 26.5928 58.6673 26.5928Z" fill="#1E1F26"/>
<path d="M37.6577 39.8853C37.3467 39.8853 37.0476 39.7657 36.8083 39.5383L33.0275 35.7456C32.5609 35.279 32.5609 34.5252 33.0275 34.0586C33.4941 33.592 34.2479 33.592 34.7145 34.0586L38.5072 37.8514C38.9738 38.318 38.9738 39.0717 38.5072 39.5383C38.2799 39.7657 37.9688 39.8853 37.6577 39.8853Z" fill="#1E1F26"/>
<path d="M32.1421 37.8155C31.8311 37.8155 31.532 37.6958 31.2927 37.4685C30.8261 37.0019 30.8261 36.2481 31.2927 35.7815L34.7504 32.3238C35.217 31.8572 35.9708 31.8572 36.4374 32.3238C36.904 32.7904 36.904 33.5442 36.4374 34.0108L32.9797 37.4685C32.7523 37.7078 32.4532 37.8155 32.1421 37.8155Z" fill="#1E1F26"/>
<path d="M72.4862 39.8853C72.1751 39.8853 71.876 39.7657 71.6367 39.5383C71.1701 39.0717 71.1701 38.318 71.6367 37.8514L75.4294 34.0586C75.896 33.592 76.6498 33.592 77.1164 34.0586C77.583 34.5252 77.583 35.279 77.1164 35.7456L73.3237 39.5383C73.0963 39.7657 72.7972 39.8853 72.4862 39.8853Z" fill="#1E1F26"/>
<path d="M78.0137 37.8155C77.7026 37.8155 77.4035 37.6958 77.1642 37.4685L73.6946 34.0108C73.228 33.5442 73.228 32.7904 73.6946 32.3238C74.1612 31.8572 74.9149 31.8572 75.3816 32.3238L78.8393 35.7815C79.3059 36.2481 79.3059 37.0019 78.8393 37.4685C78.6239 37.7078 78.3128 37.8155 78.0137 37.8155Z" fill="#1E1F26"/>
<path d="M54.9942 60.823C52.3142 60.823 50.1247 58.6335 50.1247 55.9535C50.1247 53.2735 52.3142 51.084 54.9942 51.084C57.6742 51.084 59.8637 53.2735 59.8637 55.9535C59.8637 58.6335 57.6862 60.823 54.9942 60.823ZM54.9942 53.4769C53.6302 53.4769 52.5175 54.5896 52.5175 55.9535C52.5175 57.3175 53.6302 58.4301 54.9942 58.4301C56.3581 58.4301 57.4708 57.3175 57.4708 55.9535C57.4708 54.5896 56.3581 53.4769 54.9942 53.4769Z" fill="#1E1F26"/>
<path d="M54.9942 53.4769C54.3361 53.4769 53.7977 52.9385 53.7977 52.2804V43.2712C53.7977 42.6132 54.3361 42.0748 54.9942 42.0748C55.6522 42.0748 56.1906 42.6132 56.1906 43.2712V52.2804C56.1906 52.9385 55.6522 53.4769 54.9942 53.4769Z" fill="#1E1F26"/>
<path d="M54.9942 38.7846C54.3361 38.7846 53.7977 38.2462 53.7977 37.5881V36.3678C53.7977 35.7097 54.3361 35.1713 54.9942 35.1713C55.6522 35.1713 56.1906 35.7097 56.1906 36.3678V37.5881C56.1906 38.2581 55.6522 38.7846 54.9942 38.7846Z" fill="#1E1F26"/>
<path d="M54.9942 76.7357C54.3361 76.7357 53.7977 76.1973 53.7977 75.5393V74.3189C53.7977 73.6609 54.3361 73.1225 54.9942 73.1225C55.6522 73.1225 56.1906 73.6609 56.1906 74.3189V75.5393C56.1906 76.1973 55.6522 76.7357 54.9942 76.7357Z" fill="#1E1F26"/>
<path d="M74.5799 57.15H73.3596C72.7015 57.15 72.1631 56.6116 72.1631 55.9535C72.1631 55.2955 72.7015 54.7571 73.3596 54.7571H74.5799C75.238 54.7571 75.7764 55.2955 75.7764 55.9535C75.7764 56.6116 75.238 57.15 74.5799 57.15Z" fill="#1E1F26"/>
<path d="M36.6408 57.15H35.4084C34.7504 57.15 34.212 56.6116 34.212 55.9535C34.212 55.2955 34.7504 54.7571 35.4084 54.7571H36.6288C37.2868 54.7571 37.8252 55.2955 37.8252 55.9535C37.8252 56.6116 37.2988 57.15 36.6408 57.15Z" fill="#1E1F26"/>
</svg>
