<svg width="110" height="110" viewBox="0 0 110 110" fill="none" xmlns="http://www.w3.org/2000/svg">
<circle cx="55" cy="55" r="55" fill="#00FFEA"/>
<path d="M37.1552 50.668C37.3202 50.668 37.4956 50.6577 37.6915 50.6268C39.1355 50.3905 41.3014 50.2672 44.148 50.2672C52.1618 50.2672 52.069 51.4079 55.8335 51.4079C65.4975 51.4079 69.8602 41.9018 70.3244 40.8022C71.3557 40.9152 72.088 40.9872 72.2531 41.0077C73.9755 41.1927 75.2234 42.1998 75.966 44.0086C76.1723 44.5224 76.7602 44.7588 77.2655 44.5532C77.7812 44.3477 78.0185 43.7619 77.8122 43.2584C76.523 40.0931 74.192 39.2196 72.4593 39.0346C72.2118 39.0037 70.9226 38.8804 69.5405 38.716C67.6325 35.9926 62.1765 29.3333 54.8227 29.3333C44.5812 29.3333 34.092 44.9951 35.1234 49.1367C35.3709 50.0925 36.1238 50.668 37.1552 50.668ZM37.2274 47.328C38.5373 42.7445 46.7574 31.327 54.8227 31.327C60.0725 31.327 64.3939 35.4994 66.7145 38.3152C66.1989 38.233 65.6832 38.1405 65.1675 38.0377C64.6724 37.935 64.1567 37.8527 63.6204 37.7705L59.7837 33.9475C59.3918 33.557 58.7626 33.557 58.3707 33.9475C57.9788 34.3381 57.9788 34.965 58.3707 35.3555L60.485 37.4519C59.8146 37.4211 59.1236 37.4211 58.4223 37.4314L54.9156 33.9373C54.5236 33.5468 53.8945 33.5468 53.5026 33.9373C53.1107 34.3278 53.1107 34.9547 53.5026 35.3452L55.7819 37.6164C55.029 37.7089 54.2761 37.8219 53.5026 37.9863L51.0685 35.561C50.6766 35.1705 50.0475 35.1705 49.6555 35.561C49.2636 35.9515 49.2636 36.5784 49.6555 36.9689L51.2542 38.5618C48.6448 39.3429 45.9632 40.5864 43.3126 42.4773C42.8588 42.7959 42.7556 43.4228 43.0857 43.8647C43.4054 44.3169 44.0345 44.4196 44.478 44.0908C46.5614 42.6006 48.6654 41.5524 50.7385 40.8228L49.408 42.7034C49.0883 43.1556 49.2017 43.7722 49.6452 44.0908C50.0887 44.4094 50.7179 44.3066 51.0376 43.8544L53.7914 39.9595C54.6784 39.7745 55.5447 39.6409 56.4008 39.5484L53.3994 43.5564C53.0694 43.9983 53.1622 44.6252 53.6057 44.954C54.0492 45.2829 54.6784 45.1904 55.0084 44.7485L59.0101 39.4045C59.8043 39.4045 60.5778 39.4354 61.3204 39.497L58.2779 43.5564C57.9478 43.9983 58.0406 44.6252 58.4841 44.954C58.9276 45.2829 59.5568 45.1904 59.8868 44.7485L63.6204 39.7642C64.0226 39.8259 64.4146 39.8978 64.7962 39.98C65.941 40.2164 67.0962 40.3911 68.241 40.5453C67.2096 42.6109 63.2388 49.4039 55.8438 49.4039C52.399 49.4039 52.3681 48.2735 44.117 48.2632C41.1982 48.2632 38.9292 48.3968 37.3718 48.6434C37.2996 48.6537 37.2274 48.664 37.1655 48.664C37.1346 48.664 37.114 48.664 37.0933 48.664C37.0521 48.5715 36.9799 48.1912 37.2274 47.328Z" fill="#1E1F26"/>
<path d="M84.1448 44.2552C82.5668 44.2552 83 45.1698 78.0288 50.113C76.1826 51.9526 74.1405 53.864 71.7786 55.3234C61.3101 61.8183 65.7863 74.0991 66.2298 75.2399C65.8585 75.5379 65.4872 75.8359 65.1262 76.1237C64.7652 76.2984 63.3626 78.364 59.9693 76.9458C59.464 76.73 58.8761 76.9664 58.6595 77.4802C58.4429 77.9838 58.6801 78.5695 59.1958 78.7854C60.2581 79.2375 61.2276 79.4123 62.094 79.4123C64.4455 79.4123 65.6729 78.1482 66.3845 77.6755C67.0033 77.1719 67.6325 76.6683 68.2719 76.1751C77.018 77.6652 85.8673 75.6509 88.5179 67.0081C90.725 59.8143 88.7139 48.8798 86.2385 45.5398C85.5991 44.6971 84.8978 44.2552 84.1448 44.2552ZM86.6098 66.4429C84.4955 73.3489 77.6987 75.1987 70.541 74.4794C71.8714 73.5236 71.8714 73.5956 73.1194 72.6912H78.5548C79.1117 72.6912 79.5552 72.2493 79.5552 71.6944C79.5552 71.1394 79.1117 70.6975 78.5548 70.6975H75.5741C76.0691 70.2453 76.5642 69.7623 77.049 69.2587H81.9996C82.5565 69.2587 83 68.8168 83 68.2619C83 67.7069 82.5565 67.265 81.9996 67.265H78.7817C79.2458 66.6793 79.6996 66.0524 80.1328 65.3947H83.5776C84.1345 65.3947 84.578 64.9527 84.578 64.3978C84.578 63.8428 84.1345 63.401 83.5776 63.401H81.3189C82.6081 61.0064 83.6188 58.242 84.1552 55.0356C84.248 54.4909 83.8767 53.9771 83.3301 53.8846C82.7731 53.7921 82.2677 54.1621 82.1852 54.7067C81.7624 57.2246 81.0198 59.4546 80.0812 61.4278L79.6893 59.1566C79.5965 58.6119 79.0808 58.2523 78.5341 58.3447C77.9875 58.4372 77.6265 58.9511 77.7194 59.4958L78.5341 64.1923C78.0391 64.9527 77.5234 65.6619 76.9768 66.3196L76.2548 61.3661C76.1723 60.8215 75.6669 60.4412 75.1203 60.5234C74.5737 60.6056 74.192 61.1092 74.2746 61.6539L75.2337 68.2516C74.6768 68.8168 74.1095 69.3307 73.5423 69.8137L72.81 64.7986C72.7275 64.2539 72.2221 63.884 71.6755 63.9559C71.1288 64.0381 70.7472 64.5417 70.8297 65.0863L71.727 71.2319C70.51 72.1054 70.015 72.3315 67.9006 73.945C67.0343 71.458 64.528 62.178 72.8512 57.0088C75.3781 55.4364 77.5234 53.4427 79.4521 51.5107C80.3597 50.6063 83.8251 46.9683 84.1552 46.2489C84.248 46.29 84.5574 46.4956 85.0112 47.3074C86.9193 50.7604 88.5385 60.1329 86.6098 66.4429Z" fill="#1E1F26"/>
<path d="M26.7177 58.3036C26.037 62.4452 24.9128 75.1165 35.9073 78.4668C37.9906 79.1039 40.4453 79.4225 43.2094 79.4225C49.7999 79.4225 57.7622 77.4802 58.6595 74.6952C58.7936 74.2841 58.9689 73.2256 57.7003 72.311C55.3384 70.6256 49.934 65.446 47.6444 61.7875C44.8287 57.2862 40.466 54.9123 35.0203 54.9123C31.2454 54.9123 28.2132 56.0427 27.6562 56.2688C27.1509 55.6419 26.8518 55.2823 26.4392 54.7581C25.3459 53.4119 25.1809 51.819 25.9441 50.0205C26.1607 49.5169 25.9235 48.9312 25.4078 48.7154C24.9024 48.4995 24.3146 48.7359 24.098 49.2498C22.7675 52.3945 23.7886 54.6656 24.8818 56.0119C25.1603 56.3716 25.8719 57.2451 26.7177 58.3036ZM35.01 56.906C39.8059 56.906 43.4776 58.8997 45.9426 62.846C48.2632 66.5559 53.8326 72.0027 56.5245 73.9347C56.6689 74.0375 56.7205 74.1094 56.7411 74.1094C56.3595 75.2296 50.3362 77.4288 43.2094 77.4288C32.679 77.4288 27.1509 72.2699 28.4091 60.5234C28.7185 60.9551 29.028 61.397 29.3271 61.8389C29.6055 62.2602 29.9046 62.6816 30.2244 63.1132V68.5291C30.2244 69.084 30.6679 69.5259 31.2248 69.5259C31.7817 69.5259 32.2252 69.084 32.2252 68.5291V65.5591C32.679 66.0524 33.1638 66.5457 33.6692 67.0287V71.9615C33.6692 72.5165 34.1127 72.9584 34.6696 72.9584C35.2265 72.9584 35.67 72.5165 35.67 71.9615V68.7552C36.2579 69.2176 36.8871 69.6698 37.5471 70.1014V73.5339C37.5471 74.0889 37.9906 74.5308 38.5476 74.5308C39.1045 74.5308 39.548 74.0889 39.548 73.5339V71.2833C41.9511 72.5679 44.7255 73.575 47.9434 74.1094C48.5004 74.2019 49.0058 73.8217 49.0883 73.2873C49.1811 72.7426 48.8098 72.2287 48.2632 72.1363C45.7363 71.7252 43.4982 70.975 41.518 70.0398L43.7973 69.6493C44.3439 69.5568 44.7049 69.0429 44.6121 68.4983C44.5193 67.9536 44.0036 67.5939 43.457 67.6864L38.7435 68.4983C37.9803 68.005 37.2687 67.4911 36.6086 66.9465L41.5798 66.2271C42.1265 66.1449 42.5081 65.6413 42.4256 65.0966C42.3431 64.552 41.8377 64.1717 41.2911 64.2539L34.6696 65.2097C34.1023 64.6547 33.5867 64.0895 33.1019 63.5243L38.135 62.7946C38.6817 62.7124 39.0633 62.2088 38.9808 61.6642C38.8983 61.1195 38.3929 60.7392 37.8462 60.8215L31.6786 61.7155C31.4414 61.3867 31.2145 61.0578 30.9979 60.7392C30.3584 59.7732 29.6674 58.8278 28.9558 57.9131C30.0078 57.5637 32.3077 56.906 35.01 56.906Z" fill="#1E1F26"/>
</svg>
