<svg width="110" height="110" viewBox="0 0 110 110" fill="none" xmlns="http://www.w3.org/2000/svg">
<circle cx="55" cy="55" r="55" fill="#00FFEA"/>
<path d="M64.265 84.7378H42.5479C41.9306 84.7378 41.4255 84.2325 41.4255 83.615V74.8463H32.6601C32.0428 74.8463 31.5378 74.341 31.5378 73.7235V39.8836C31.5378 38.6935 32.503 37.7279 33.6927 37.7279H64.2538C65.4434 37.7279 66.4086 38.6935 66.4086 39.8836V82.5821C66.4199 83.7722 65.4547 84.7378 64.265 84.7378ZM43.6702 82.4923H64.1752V39.9734H33.7824V72.612H42.5479C43.1651 72.612 43.6702 73.1172 43.6702 73.7347V82.4923Z" fill="#1E1F26"/>
<path d="M68.8217 80.1794H65.2975C64.6802 80.1794 64.1752 79.6741 64.1752 79.0566V39.9734H37.228C36.6107 39.9734 36.1057 39.4682 36.1057 38.8506V35.3252C36.1057 34.1351 37.0709 33.1695 38.2605 33.1695H68.8217C70.0113 33.1695 70.9765 34.1351 70.9765 35.3252V78.0237C70.9765 79.2138 70.0113 80.1794 68.8217 80.1794ZM66.4199 77.9339H68.7319V35.4038H38.3503V37.7167H64.265C65.4547 37.7167 66.4199 38.6822 66.4199 39.8723V77.9339Z" fill="#1E1F26"/>
<path d="M73.3783 75.6098H69.8542C69.2369 75.6098 68.7319 75.1045 68.7319 74.487V35.4038H41.7847C41.1674 35.4038 40.6623 34.8985 40.6623 34.281V30.7555C40.6623 29.5654 41.6275 28.5999 42.8172 28.5999H73.3783C74.568 28.5999 75.5332 29.5654 75.5332 30.7555V73.4541C75.5332 74.6442 74.568 75.6098 73.3783 75.6098ZM70.9765 73.3642H73.2885V30.8454H42.907V33.1583H68.8217C70.0113 33.1583 70.9765 34.1238 70.9765 35.3139V73.3642Z" fill="#1E1F26"/>
<path d="M42.5479 84.7378C42.2561 84.7378 41.9642 84.6255 41.751 84.4122L31.8633 74.5207C31.5378 74.1951 31.448 73.7123 31.6163 73.2969C31.7959 72.8815 32.2112 72.6008 32.6601 72.6008H42.5479C43.1651 72.6008 43.6702 73.106 43.6702 73.7235V83.615C43.6702 84.0641 43.4008 84.4795 42.9743 84.648C42.8397 84.7153 42.6938 84.7378 42.5479 84.7378ZM35.3649 74.8463L41.4143 80.8979V74.8463H35.3649Z" fill="#1E1F26"/>
<path d="M59.3716 77.4174H48.6309C48.0136 77.4174 47.5086 76.9122 47.5086 76.2946C47.5086 75.6771 48.0136 75.1719 48.6309 75.1719H59.3716C59.9889 75.1719 60.4939 75.6771 60.4939 76.2946C60.4939 76.9122 59.9889 77.4174 59.3716 77.4174Z" fill="#1E1F26"/>
<path d="M59.3716 68.4802H38.3503C37.7331 68.4802 37.228 67.975 37.228 67.3575C37.228 66.74 37.7331 66.2347 38.3503 66.2347H59.3716C59.9889 66.2347 60.4939 66.74 60.4939 67.3575C60.4939 67.975 59.9889 68.4802 59.3716 68.4802Z" fill="#1E1F26"/>
<path d="M59.3716 62.3837H38.3503C37.7331 62.3837 37.228 61.8784 37.228 61.2609C37.228 60.6434 37.7331 60.1381 38.3503 60.1381H59.3716C59.9889 60.1381 60.4939 60.6434 60.4939 61.2609C60.4939 61.8784 59.9889 62.3837 59.3716 62.3837Z" fill="#1E1F26"/>
<path d="M59.3716 56.2871H38.3503C37.7331 56.2871 37.228 55.7818 37.228 55.1643C37.228 54.5468 37.7331 54.0416 38.3503 54.0416H59.3716C59.9889 54.0416 60.4939 54.5468 60.4939 55.1643C60.4939 55.7818 59.9889 56.2871 59.3716 56.2871Z" fill="#1E1F26"/>
<path d="M59.3716 50.1905H38.3503C37.7331 50.1905 37.228 49.6853 37.228 49.0677C37.228 48.4502 37.7331 47.945 38.3503 47.945H59.3716C59.9889 47.945 60.4939 48.4502 60.4939 49.0677C60.4939 49.6853 59.9889 50.1905 59.3716 50.1905Z" fill="#1E1F26"/>
</svg>
