<svg width="148" height="151" viewBox="0 0 167 160" fill="none" xmlns="http://www.w3.org/2000/svg">
<path d="M134.596 121.913C121.372 149.55 90.851 147.788 59.3689 132.725C27.8868 117.661 7.05974 83.4382 29.6794 42.6717C52.299 1.90517 90.9921 10.5114 111.209 36.5841C131.425 62.6568 147.82 94.2767 134.596 121.913Z" fill="url(#paint0_linear)"/>
<path d="M55.6663 105.061C54.8891 105.061 54.2531 104.43 54.2531 103.658V47.768C54.2531 46.9958 54.8891 46.3641 55.6663 46.3641H93.356C94.1333 46.3641 94.7692 46.9958 94.7692 47.768V91.3593C95.1084 91.2891 95.4617 91.247 95.8432 91.247C96.4933 91.247 97.0727 91.3733 97.5956 91.5558V47.768C97.5956 45.4515 95.6878 43.5562 93.356 43.5562H55.6663C53.3346 43.5562 51.4268 45.4515 51.4268 47.768V103.658C51.4268 105.974 53.3346 107.869 55.6663 107.869H81.9233C81.7255 106.929 81.7679 105.946 82.0647 105.061H55.6663Z" fill="white"/>
<path d="M65.2195 49.4386C64.4422 49.4386 63.8063 48.8069 63.8063 48.0347V41.8856C63.8063 41.1134 64.4422 40.4817 65.2195 40.4817C65.9967 40.4817 66.6327 41.1134 66.6327 41.8856V48.0347C66.6327 48.8069 65.9967 49.4386 65.2195 49.4386Z" fill="white"/>
<path d="M74.5041 49.4386C73.7269 49.4386 73.0909 48.8069 73.0909 48.0347V41.8856C73.0909 41.1134 73.7269 40.4817 74.5041 40.4817C75.2814 40.4817 75.9173 41.1134 75.9173 41.8856V48.0347C75.9173 48.8069 75.2955 49.4386 74.5041 49.4386Z" fill="white"/>
<path d="M83.7887 49.4386C83.0115 49.4386 82.3756 48.8069 82.3756 48.0347V41.8856C82.3756 41.1134 83.0115 40.4817 83.7887 40.4817C84.566 40.4817 85.2019 41.1134 85.2019 41.8856V48.0347C85.2019 48.8069 84.5801 49.4386 83.7887 49.4386Z" fill="white"/>
<path d="M61.9833 64.32C61.9126 64.32 61.8278 64.32 61.7572 64.306C61.3615 64.2358 61.0082 64.0112 60.7962 63.6742L58.9167 60.712C58.5068 60.0522 58.6905 59.1958 59.3547 58.7746C60.0189 58.3675 60.881 58.564 61.3049 59.2098L62.3366 60.8383L67.6925 56.5284C68.3002 56.037 69.1905 56.1353 69.6851 56.7389C70.1798 57.3426 70.0808 58.2271 69.4732 58.7184L62.8736 64.0112C62.6192 64.2218 62.2942 64.32 61.9833 64.32Z" fill="white"/>
<path d="M88.9186 61.6807H75.6629C74.8857 61.6807 74.2497 61.0489 74.2497 60.2768C74.2497 59.5046 74.8857 58.8729 75.6629 58.8729H88.9186C89.6959 58.8729 90.3318 59.5046 90.3318 60.2768C90.3318 61.0489 89.71 61.6807 88.9186 61.6807Z" fill="white"/>
<path d="M61.9833 75.5513C61.9126 75.5513 61.8278 75.5513 61.7572 75.5373C61.3615 75.4671 61.0082 75.2424 60.7962 74.9055L58.9167 71.9433C58.5068 71.2834 58.6905 70.427 59.3547 70.0059C60.0189 69.5987 60.881 69.7953 61.3049 70.4411L62.3366 72.0696L67.6925 67.7596C68.3002 67.2682 69.1905 67.3665 69.6851 67.9702C70.1798 68.5739 70.0808 69.4583 69.4732 69.9497L62.8736 75.2424C62.6192 75.453 62.2942 75.5513 61.9833 75.5513Z" fill="white"/>
<path d="M88.9186 72.912H75.6629C74.8857 72.912 74.2497 72.2802 74.2497 71.508C74.2497 70.7359 74.8857 70.1041 75.6629 70.1041H88.9186C89.6959 70.1041 90.3318 70.7359 90.3318 71.508C90.3318 72.2802 89.71 72.912 88.9186 72.912Z" fill="white"/>
<path d="M61.9833 86.7826C61.9126 86.7826 61.8278 86.7826 61.7572 86.7685C61.3615 86.6983 61.0082 86.4737 60.7962 86.1368L58.9167 83.1745C58.5068 82.5147 58.6905 81.6583 59.3547 81.2371C60.0189 80.83 60.881 81.0265 61.3049 81.6723L62.3366 83.3009L67.6925 78.9909C68.3002 78.4995 69.1905 78.5978 69.6851 79.2015C70.1798 79.8051 70.0808 80.6896 69.4732 81.181L62.8736 86.4737C62.6192 86.6843 62.2942 86.7826 61.9833 86.7826Z" fill="white"/>
<path d="M88.9186 84.1432H75.6629C74.8857 84.1432 74.2497 83.5114 74.2497 82.7393C74.2497 81.9672 74.8857 81.3354 75.6629 81.3354H88.9186C89.6959 81.3354 90.3318 81.9672 90.3318 82.7393C90.3318 83.5114 89.71 84.1432 88.9186 84.1432Z" fill="white"/>
<path d="M61.9833 98.0138C61.9126 98.0138 61.8278 98.0138 61.7572 97.9998C61.3615 97.9296 61.0082 97.705 60.7962 97.368L58.9167 94.4058C58.5068 93.7459 58.6905 92.8896 59.3547 92.4684C60.0189 92.0612 60.881 92.2578 61.3049 92.9036L62.3366 94.5321L67.6925 90.2221C68.3002 89.7308 69.1905 89.829 69.6851 90.4327C70.1798 91.0364 70.0808 91.9209 69.4732 92.4122L62.8736 97.705C62.6192 97.9155 62.2942 98.0138 61.9833 98.0138Z" fill="white"/>
<path d="M88.9186 95.3745H75.6629C74.8857 95.3745 74.2497 94.7427 74.2497 93.9706C74.2497 93.1984 74.8857 92.5667 75.6629 92.5667H88.9186C89.6959 92.5667 90.3318 93.1984 90.3318 93.9706C90.3318 94.7427 89.71 95.3745 88.9186 95.3745Z" fill="white"/>
<path d="M96.8042 122.414C88.0566 122.414 80.9482 115.352 80.9482 106.662C80.9482 97.9717 88.0566 90.91 96.8042 90.91C105.552 90.91 112.66 97.9717 112.66 106.662C112.66 115.352 105.552 122.414 96.8042 122.414ZM96.8042 93.7179C89.6252 93.7179 83.7746 99.53 83.7746 106.662C83.7746 113.794 89.6252 119.606 96.8042 119.606C103.997 119.606 109.834 113.794 109.834 106.662C109.834 99.516 103.997 93.7179 96.8042 93.7179Z" fill="white"/>
<path d="M96.8042 96.5257C96.027 96.5257 95.391 95.8939 95.391 95.1218V92.3139C95.391 91.5418 96.027 90.91 96.8042 90.91C97.5815 90.91 98.2174 91.5418 98.2174 92.3139V95.1218C98.2174 95.8939 97.5815 96.5257 96.8042 96.5257Z" fill="white"/>
<path d="M96.8042 122.414C96.027 122.414 95.391 121.782 95.391 121.01V118.202C95.391 117.43 96.027 116.798 96.8042 116.798C97.5815 116.798 98.2174 117.43 98.2174 118.202V121.01C98.2174 121.782 97.5815 122.414 96.8042 122.414Z" fill="white"/>
<path d="M111.247 108.066H108.421C107.643 108.066 107.007 107.434 107.007 106.662C107.007 105.89 107.643 105.258 108.421 105.258H111.247C112.024 105.258 112.66 105.89 112.66 106.662C112.66 107.434 112.038 108.066 111.247 108.066Z" fill="white"/>
<path d="M85.1878 108.066H82.3614C81.5842 108.066 80.9482 107.434 80.9482 106.662C80.9482 105.89 81.5842 105.258 82.3614 105.258H85.1878C85.9651 105.258 86.601 105.89 86.601 106.662C86.601 107.434 85.9651 108.066 85.1878 108.066Z" fill="white"/>
<path d="M101.016 112.685C100.549 112.685 100.097 112.46 99.8284 112.053L95.6171 105.637C95.2214 105.019 95.3486 104.205 95.928 103.77L100.563 100.176C101.185 99.6985 102.061 99.8108 102.542 100.414C103.022 101.032 102.909 101.903 102.302 102.38L98.6837 105.174L102.188 110.509C102.612 111.154 102.429 112.025 101.779 112.446C101.553 112.614 101.284 112.685 101.016 112.685Z" fill="white"/>
<defs>
<linearGradient id="paint0_linear" x1="164.26" y1="59.9187" x2="67.1024" y2="165.194" gradientUnits="userSpaceOnUse">
<stop stop-color="#FF2E00"/>
<stop offset="0.765625" stop-color="#FFF000"/>
</linearGradient>
</defs>
</svg>
