<svg width="148" height="151" viewBox="0 0 148 151" fill="none" xmlns="http://www.w3.org/2000/svg">
<path d="M9.0052 79.0292C7.48055 65.6169 9.70524 52.486 14.9299 41.6882C23.7053 23.5635 64.2856 -9.65181 88.2179 26.1442C117.869 70.4919 139.349 62.9903 141.94 97.8588C145.915 151.367 18.7078 164.577 9.0052 79.0292Z" fill="url(#paint0_linear)"/>
<path d="M95.3723 47.3352H44.521C43.645 47.3352 42.9358 48.0439 42.9358 48.9194V101.334H38.1594C37.2834 101.334 36.5742 102.042 36.5742 102.918V107.681C36.5742 111.193 39.4213 114.039 42.9358 114.039H90.6063C94.1208 114.039 96.9679 111.193 96.9679 107.681V48.9194C96.9575 48.0439 96.2483 47.3352 95.3723 47.3352ZM42.9358 110.86C41.1838 110.86 39.755 109.442 39.755 107.681V104.502H84.2551V107.681C84.2551 108.796 84.5471 109.891 85.1103 110.86H42.9358ZM93.7871 107.681C93.7871 109.432 92.3688 110.86 90.6063 110.86C88.8542 110.86 87.4255 109.442 87.4255 107.681V102.918C87.4255 102.042 86.7163 101.334 85.8403 101.334H46.1062V50.514H93.7767V107.681H93.7871Z" fill="white"/>
<path d="M50.8722 88.6288H89.0107C89.8867 88.6288 90.5958 87.9201 90.5958 87.0446V55.2771C90.5958 54.4016 89.8867 53.6929 89.0107 53.6929H50.8722C49.9962 53.6929 49.287 54.4016 49.287 55.2771V87.0446C49.287 87.9201 49.9962 88.6288 50.8722 88.6288ZM52.4678 56.8613H87.4255V76.8515L80.605 70.0352C79.9792 69.4203 78.9781 69.4203 78.3628 70.0352L71.5423 76.8515L63.1261 68.4406C62.5421 67.857 61.6035 67.8153 60.9674 68.3572L52.4678 75.6425V56.8613ZM52.4678 79.8323L61.9164 71.7341L73.5863 83.3968L75.8285 81.156L73.774 79.1027L79.4682 73.4121L87.415 81.354V85.4604H52.4678V79.8323Z" fill="white"/>
<path d="M69.9466 69.5662C72.5747 69.5662 74.7126 67.4296 74.7126 64.8032C74.7126 62.1767 72.5747 60.0401 69.9466 60.0401C67.3186 60.0401 65.1806 62.1767 65.1806 64.8032C65.1806 67.4296 67.3186 69.5662 69.9466 69.5662ZM69.9466 63.219C70.8227 63.219 71.5318 63.9277 71.5318 64.8032C71.5318 65.6787 70.8227 66.3874 69.9466 66.3874C69.0706 66.3874 68.3614 65.6787 68.3614 64.8032C68.3614 63.9277 69.0706 63.219 69.9466 63.219Z" fill="white"/>
<path d="M60.4147 60.0401H57.2339V63.219H60.4147V60.0401Z" fill="white"/>
<path d="M82.6594 63.219H79.4786V66.3978H82.6594V63.219Z" fill="white"/>
<path d="M52.4678 91.8077H49.287V94.9865H52.4678V91.8077Z" fill="white"/>
<path d="M90.6063 91.8077H55.6487V94.9865H90.6063V91.8077Z" fill="white"/>
<defs>
<linearGradient id="paint0_linear" x1="160.774" y1="78.6707" x2="60.432" y2="175.23" gradientUnits="userSpaceOnUse">
<stop stop-color="#2B8DFF"/>
<stop offset="0.786458" stop-color="#00FFEA"/>
</linearGradient>
</defs>
</svg>
