<svg width="148" height="151" viewBox="0 0 131 120" fill="none" xmlns="http://www.w3.org/2000/svg">
<path d="M116.787 89.1428C109.318 98.345 96.9092 123.979 55.911 119.474C14.9128 114.968 0.00451835 84.2732 0.0045192 68.7906C0.00452005 53.3081 -2.00781 -13.4414 78.8947 2.41857C159.797 18.2786 124.256 79.9405 116.787 89.1428Z" fill="url(#paint0_linear)"/>
<path d="M37.7893 65.1433H57.3494C57.7979 65.1433 58.167 64.7715 58.167 64.3067V47.6324C58.167 47.1734 57.8036 46.7958 57.3494 46.7958H37.7893C37.3351 46.7958 36.9717 47.1676 36.9717 47.6324V64.3125C36.9717 64.7715 37.3351 65.1433 37.7893 65.1433ZM38.6012 63.4759V60.5245L43.4501 56.2716L49.4345 62.3952L50.5871 61.2158L49.531 60.141L52.4551 57.1489L56.5318 61.3204V63.4759H38.6012ZM56.5318 48.4632V58.9616L53.0343 55.3827C52.7163 55.0574 52.1996 55.0574 51.8817 55.3827L48.3841 58.9616L44.069 54.5461C43.7681 54.2382 43.2854 54.2208 42.9618 54.5054L38.6012 58.3283V48.4632H56.5318Z" fill="white"/>
<path d="M47.5665 55.1329C48.9178 55.1329 50.0137 54.0116 50.0137 52.6289C50.0137 51.2461 48.9178 50.1248 47.5665 50.1248C46.2152 50.1248 45.1194 51.2461 45.1194 52.6289C45.1194 54.0174 46.2152 55.1329 47.5665 55.1329ZM47.5665 51.7981C48.0151 51.7981 48.3841 52.1699 48.3841 52.6347C48.3841 53.0937 48.0208 53.4713 47.5665 53.4713C47.1123 53.4713 46.7489 53.0995 46.7489 52.6347C46.7489 52.1757 47.118 51.7981 47.5665 51.7981Z" fill="white"/>
<path d="M42.6779 50.1306H41.0484V51.798H42.6779V50.1306Z" fill="white"/>
<path d="M54.0847 51.798H52.4551V53.4655H54.0847V51.798Z" fill="white"/>
<path d="M84.6654 89.7887H68.1997V75.8451H70.4708C71.7256 75.8451 72.742 74.8051 72.742 73.5211V71.1972H70.4708V73.5211H57.9796V71.1972H55.7085V73.5211C55.7085 74.8051 56.7248 75.8451 57.9796 75.8451H60.2508V89.7887H43.7851C43.1605 89.7887 42.6495 90.3116 42.6495 90.9507C42.6495 91.5898 43.1605 92.1127 43.7851 92.1127H84.6654C85.2899 92.1127 85.8009 91.5898 85.8009 90.9507C85.8009 90.3116 85.2899 89.7887 84.6654 89.7887ZM62.5219 75.8451H65.9286V89.7887H62.5219V75.8451Z" fill="white"/>
<path d="M39.8106 36.338C39.8106 36.9771 40.3216 37.5 40.9462 37.5H46.624C47.2486 37.5 47.7596 36.9771 47.7596 36.338C47.7596 35.6989 47.2486 35.176 46.624 35.176H44.9207V28.2042C44.9207 27.5651 44.4097 27.0422 43.7851 27.0422C43.1605 27.0422 42.6495 27.5651 42.6495 28.2042V35.176H40.9462C40.3216 35.176 39.8106 35.6989 39.8106 36.338Z" fill="white"/>
<path d="M38.1073 44.3382C38.4763 44.3382 38.8227 44.1581 39.0328 43.8502L40.5544 41.6599C40.9178 41.137 40.7986 40.4107 40.2876 40.0389C39.7766 39.6671 39.0668 39.7891 38.7035 40.312L37.1818 42.5023C36.8184 43.0252 36.9377 43.7514 37.4487 44.1232C37.6417 44.2627 37.8688 44.3382 38.1073 44.3382Z" fill="white"/>
<path d="M49.4629 44.4718C50.0875 44.4718 50.5985 43.9489 50.5985 43.3098C50.5985 43.0658 50.5247 42.8334 50.3884 42.6359L48.8667 40.4456C48.5034 39.9227 47.7936 39.8007 47.2826 40.1725C46.7716 40.5443 46.6524 41.2706 47.0158 41.7935L48.5374 43.9838C48.7532 44.2917 49.0938 44.4718 49.4629 44.4718Z" fill="white"/>
<path d="M44.9207 43.3098V40.9859C44.9207 40.3468 44.4097 39.8239 43.7851 39.8239C43.1605 39.8239 42.6495 40.3468 42.6495 40.9859V43.3098C42.6495 43.9489 43.1605 44.4718 43.7851 44.4718C44.4097 44.4718 44.9207 43.9489 44.9207 43.3098Z" fill="white"/>
<path d="M81.2587 31.6901H47.1918V34.0141H81.2587V31.6901Z" fill="white"/>
<path d="M97.1566 31.6901H88.0721V34.0141H97.1566C97.7811 34.0141 98.2921 34.537 98.2921 35.176V67.7113C98.2921 68.3503 97.7811 68.8732 97.1566 68.8732H31.2939C30.6693 68.8732 30.1583 68.3503 30.1583 67.7113V35.176C30.1583 34.537 30.6693 34.0141 31.2939 34.0141H40.3784V31.6901H31.2939C29.4145 31.6901 27.8872 33.253 27.8872 35.176V67.7113C27.8872 69.6343 29.4145 71.1972 31.2939 71.1972H97.1566C99.0359 71.1972 100.563 69.6343 100.563 67.7113V35.176C100.563 33.253 99.0359 31.6901 97.1566 31.6901Z" fill="white"/>
<path d="M80.6909 36.338C80.6909 36.9771 81.2019 37.5 81.8265 37.5H87.5043C88.1288 37.5 88.6398 36.9771 88.6398 36.338C88.6398 35.6989 88.1288 35.176 87.5043 35.176H85.8009V28.2042C85.8009 27.5651 85.2899 27.0422 84.6654 27.0422C84.0408 27.0422 83.5298 27.5651 83.5298 28.2042V35.176H81.8265C81.2019 35.176 80.6909 35.6989 80.6909 36.338Z" fill="white"/>
<path d="M78.9876 44.3266C79.351 44.3266 79.6973 44.1465 79.9131 43.8502L81.4347 41.6599C81.7981 41.137 81.6789 40.4107 81.1678 40.0389C80.6568 39.6671 79.9471 39.7891 79.5837 40.312L78.0621 42.5023C77.6987 43.0252 77.8179 43.7514 78.3289 44.1232C78.522 44.2569 78.7491 44.3324 78.9876 44.3266Z" fill="white"/>
<path d="M89.747 40.4456C89.3836 39.9227 88.6739 39.8007 88.1629 40.1725C87.6519 40.5443 87.5327 41.2706 87.896 41.7935L89.4177 43.9838C89.7811 44.5067 90.4908 44.6287 91.0018 44.2568C91.5128 43.885 91.6321 43.1588 91.2687 42.6359L89.747 40.4456Z" fill="white"/>
<path d="M85.8009 43.3098V40.9859C85.8009 40.3468 85.2899 39.8239 84.6654 39.8239C84.0408 39.8239 83.5298 40.3468 83.5298 40.9859V43.3098C83.5298 43.9489 84.0408 44.4718 84.6654 44.4718C85.2899 44.4718 85.8009 43.9489 85.8009 43.3098Z" fill="white"/>
<path d="M93.1821 56.6725C93.1821 56.0334 92.6711 55.5105 92.0465 55.5105H72.742C72.1174 55.5105 71.6064 56.0334 71.6064 56.6725C71.6064 57.3116 72.1174 57.8345 72.742 57.8345H92.0465C92.6711 57.8345 93.1821 57.3116 93.1821 56.6725Z" fill="white"/>
<path d="M78.9876 60.1584C78.363 60.1584 77.852 60.6813 77.852 61.3204C77.852 61.9595 78.363 62.4824 78.9876 62.4824H91.4788C92.1033 62.4824 92.6143 61.9595 92.6143 61.3204C92.6143 60.6813 92.1033 60.1584 91.4788 60.1584H78.9876Z" fill="white"/>
<defs>
<linearGradient id="paint0_linear" x1="120.514" y1="14.2447" x2="80.9239" y2="138.603" gradientUnits="userSpaceOnUse">
<stop stop-color="#00FF47"/>
<stop offset="0.317708" stop-color="#0047FF"/>
</linearGradient>
</defs>
</svg>
