<svg width="110" height="110" viewBox="0 0 110 110" fill="none" xmlns="http://www.w3.org/2000/svg">
<circle cx="55" cy="55" r="55" fill="#00FF00"/>
<path d="M71.0472 44.2887H67.1574C66.9074 44.2887 66.6575 44.3887 66.4775 44.5587C65.1275 45.8186 63.3376 46.5186 61.4378 46.5186C59.5279 46.5186 57.738 45.8286 56.408 44.5587C56.218 44.3887 55.9781 44.2887 55.7181 44.2887H51.8283C48.4685 44.2887 45.7386 47.5686 45.7386 51.6083V60.9378C45.7386 61.4878 46.1886 61.9377 46.7386 61.9377H76.1469C76.6969 61.9377 77.1469 61.4878 77.1469 60.9378V51.5983C77.1369 47.5685 74.407 44.2887 71.0472 44.2887ZM75.137 59.9278H70.9572V55.1081C70.9572 54.5582 70.5072 54.1082 69.9573 54.1082C69.4073 54.1082 68.9573 54.5582 68.9573 55.1081V59.9278H53.8982V55.1081C53.8982 54.5582 53.4482 54.1082 52.8982 54.1082C52.3483 54.1082 51.8983 54.5582 51.8983 55.1081V59.9278H47.7285V51.5983C47.7285 48.6685 49.5584 46.2786 51.8183 46.2786H55.3281C56.998 47.7185 59.1479 48.5085 61.4278 48.5085C63.7076 48.5085 65.8575 47.7185 67.5374 46.2786H71.0472C73.2971 46.2786 75.127 48.6585 75.127 51.5983V59.9278H75.137Z" fill="#1E1F26"/>
<path d="M61.4278 22C55.3381 22 50.3884 27.0097 50.3884 33.1694C50.3884 39.329 55.3381 44.3387 61.4278 44.3387C67.5174 44.3387 72.4671 39.329 72.4671 33.1694C72.4671 27.0097 67.5174 22 61.4278 22ZM61.4278 42.3488C56.448 42.3488 52.3883 38.2291 52.3883 33.1794C52.3883 28.1197 56.438 24.0099 61.4278 24.0099C66.4175 24.0099 70.4672 28.1297 70.4672 33.1794C70.4672 38.2291 66.4175 42.3488 61.4278 42.3488Z" fill="#1E1F26"/>
<path d="M66.0575 30.2295H64.2176C63.6676 30.2295 63.2177 30.6795 63.2177 31.2295C63.2177 31.7794 63.6676 32.2294 64.2176 32.2294H66.0575C66.6075 32.2294 67.0574 31.7794 67.0574 31.2295C67.0574 30.6795 66.6175 30.2295 66.0575 30.2295Z" fill="#1E1F26"/>
<path d="M58.6479 32.2294C59.1979 32.2294 59.6479 31.7794 59.6479 31.2295C59.6479 30.6795 59.1979 30.2295 58.6479 30.2295H56.798C56.248 30.2295 55.7981 30.6795 55.7981 31.2295C55.7981 31.7794 56.248 32.2294 56.798 32.2294H58.6479Z" fill="#1E1F26"/>
<path d="M65.6675 35.4592C65.1375 35.3192 64.5876 35.6392 64.4476 36.1692C64.2176 37.0291 63.2876 38.0391 61.4278 38.0391C59.6579 38.0391 58.6379 37.1091 58.4179 36.1792C58.2879 35.6392 57.738 35.3092 57.208 35.4492C56.668 35.5792 56.348 36.1192 56.478 36.6592C56.888 38.3391 58.5879 40.039 61.4378 40.039C64.2476 40.039 65.9475 38.3491 66.3875 36.6792C66.5175 36.1492 66.2075 35.5992 65.6675 35.4592Z" fill="#1E1F26"/>
<path d="M87.4263 74.457C87.9062 74.227 88.1262 73.6571 87.9262 73.1671C86.0964 68.8173 82.6265 67.8274 80.0367 67.7574C78.4068 67.7174 76.7569 68.0574 75.057 68.7773L64.9376 73.0571C64.9576 72.8671 64.9976 72.6871 64.9976 72.4971C64.9976 69.7573 62.8077 67.5374 60.1078 67.5374L47.8985 67.5774L39.839 62.7977C39.689 62.7077 39.509 62.6577 39.329 62.6577H34.1893V60.6678C34.1893 59.1379 32.9694 57.898 31.4795 57.898H22.9999C22.45 57.898 22 58.3479 22 58.8979V86.9963C22 87.5463 22.45 87.9963 22.9999 87.9963H31.4595C32.9594 87.9963 34.1693 86.7563 34.1693 85.2264V81.2166L46.3986 86.2663C48.9485 87.3163 51.6583 87.8463 54.3682 87.8463C57.428 87.8463 60.4878 87.1763 63.3076 85.8464L87.4263 74.457ZM31.4595 85.9964H23.9999V59.8878H31.4595C31.8494 59.8878 32.1694 60.2278 32.1694 60.6578V85.2264C32.1694 85.6564 31.8494 85.9964 31.4595 85.9964ZM47.1586 84.4165L34.1693 79.0568V64.6376H39.039L47.1086 69.4173C47.2686 69.5073 47.4785 69.5773 47.6185 69.5573L60.0978 69.5173C61.6877 69.5173 62.9877 70.8472 62.9877 72.4771C62.9877 74.107 61.6877 75.437 60.0978 75.437H47.7785C47.2286 75.437 46.7786 75.8869 46.7786 76.4369C46.7786 76.9869 47.2286 77.4369 47.7785 77.4369H60.0978C61.5777 77.4369 62.8877 76.7469 63.7876 75.697L75.8269 70.6072C77.2569 69.9973 78.6468 69.7073 79.9767 69.7473C82.5565 69.8073 84.4664 70.9272 85.6564 73.0771L62.4577 84.0265C57.648 86.2963 52.0683 86.4463 47.1586 84.4165Z" fill="#1E1F26"/>
<path d="M71.0472 44.2887H67.1574C66.9074 44.2887 66.6575 44.3887 66.4775 44.5587C65.1275 45.8186 63.3376 46.5186 61.4378 46.5186C59.5279 46.5186 57.738 45.8286 56.408 44.5587C56.218 44.3887 55.9781 44.2887 55.7181 44.2887H51.8283C48.4685 44.2887 45.7386 47.5686 45.7386 51.6083V60.9378C45.7386 61.4878 46.1886 61.9377 46.7386 61.9377H76.1469C76.6969 61.9377 77.1469 61.4878 77.1469 60.9378V51.5983C77.1369 47.5685 74.407 44.2887 71.0472 44.2887ZM75.137 59.9278H70.9572V55.1081C70.9572 54.5582 70.5072 54.1082 69.9573 54.1082C69.4073 54.1082 68.9573 54.5582 68.9573 55.1081V59.9278H53.8982V55.1081C53.8982 54.5582 53.4482 54.1082 52.8982 54.1082C52.3483 54.1082 51.8983 54.5582 51.8983 55.1081V59.9278H47.7285V51.5983C47.7285 48.6685 49.5584 46.2786 51.8183 46.2786H55.3281C56.998 47.7185 59.1479 48.5085 61.4278 48.5085C63.7076 48.5085 65.8575 47.7185 67.5374 46.2786H71.0472C73.2971 46.2786 75.127 48.6585 75.127 51.5983V59.9278H75.137Z" stroke="#0F1012" stroke-width="0.5"/>
<path d="M61.4278 22C55.3381 22 50.3884 27.0097 50.3884 33.1694C50.3884 39.329 55.3381 44.3387 61.4278 44.3387C67.5174 44.3387 72.4671 39.329 72.4671 33.1694C72.4671 27.0097 67.5174 22 61.4278 22ZM61.4278 42.3488C56.448 42.3488 52.3883 38.2291 52.3883 33.1794C52.3883 28.1197 56.438 24.0099 61.4278 24.0099C66.4175 24.0099 70.4672 28.1297 70.4672 33.1794C70.4672 38.2291 66.4175 42.3488 61.4278 42.3488Z" stroke="#0F1012" stroke-width="0.5"/>
<path d="M66.0575 30.2295H64.2176C63.6676 30.2295 63.2177 30.6795 63.2177 31.2295C63.2177 31.7794 63.6676 32.2294 64.2176 32.2294H66.0575C66.6075 32.2294 67.0574 31.7794 67.0574 31.2295C67.0574 30.6795 66.6175 30.2295 66.0575 30.2295Z" stroke="#0F1012" stroke-width="0.5"/>
<path d="M58.6479 32.2294C59.1979 32.2294 59.6479 31.7794 59.6479 31.2295C59.6479 30.6795 59.1979 30.2295 58.6479 30.2295H56.798C56.248 30.2295 55.7981 30.6795 55.7981 31.2295C55.7981 31.7794 56.248 32.2294 56.798 32.2294H58.6479Z" stroke="#0F1012" stroke-width="0.5"/>
<path d="M65.6675 35.4592C65.1375 35.3192 64.5876 35.6392 64.4476 36.1692C64.2176 37.0291 63.2876 38.0391 61.4278 38.0391C59.6579 38.0391 58.6379 37.1091 58.4179 36.1792C58.2879 35.6392 57.738 35.3092 57.208 35.4492C56.668 35.5792 56.348 36.1192 56.478 36.6592C56.888 38.3391 58.5879 40.039 61.4378 40.039C64.2476 40.039 65.9475 38.3491 66.3875 36.6792C66.5175 36.1492 66.2075 35.5992 65.6675 35.4592Z" stroke="#0F1012" stroke-width="0.5"/>
<path d="M87.4263 74.457C87.9062 74.227 88.1262 73.6571 87.9262 73.1671C86.0964 68.8173 82.6265 67.8274 80.0367 67.7574C78.4068 67.7174 76.7569 68.0574 75.057 68.7773L64.9376 73.0571C64.9576 72.8671 64.9976 72.6871 64.9976 72.4971C64.9976 69.7573 62.8077 67.5374 60.1078 67.5374L47.8985 67.5774L39.839 62.7977C39.689 62.7077 39.509 62.6577 39.329 62.6577H34.1893V60.6678C34.1893 59.1379 32.9694 57.898 31.4795 57.898H22.9999C22.45 57.898 22 58.3479 22 58.8979V86.9963C22 87.5463 22.45 87.9963 22.9999 87.9963H31.4595C32.9594 87.9963 34.1693 86.7563 34.1693 85.2264V81.2166L46.3986 86.2663C48.9485 87.3163 51.6583 87.8463 54.3682 87.8463C57.428 87.8463 60.4878 87.1763 63.3076 85.8464L87.4263 74.457ZM31.4595 85.9964H23.9999V59.8878H31.4595C31.8494 59.8878 32.1694 60.2278 32.1694 60.6578V85.2264C32.1694 85.6564 31.8494 85.9964 31.4595 85.9964ZM47.1586 84.4165L34.1693 79.0568V64.6376H39.039L47.1086 69.4173C47.2686 69.5073 47.4785 69.5773 47.6185 69.5573L60.0978 69.5173C61.6877 69.5173 62.9877 70.8472 62.9877 72.4771C62.9877 74.107 61.6877 75.437 60.0978 75.437H47.7785C47.2286 75.437 46.7786 75.8869 46.7786 76.4369C46.7786 76.9869 47.2286 77.4369 47.7785 77.4369H60.0978C61.5777 77.4369 62.8877 76.7469 63.7876 75.697L75.8269 70.6072C77.2569 69.9973 78.6468 69.7073 79.9767 69.7473C82.5565 69.8073 84.4664 70.9272 85.6564 73.0771L62.4577 84.0265C57.648 86.2963 52.0683 86.4463 47.1586 84.4165Z" stroke="#0F1012" stroke-width="0.5"/>
</svg>
