<svg width="132" height="131" viewBox="0 0 132 131" fill="none" xmlns="http://www.w3.org/2000/svg">
<path d="M132 64.2407C132 95.1359 104.185 142.532 66.124 127.436C28.0625 112.339 3.17583 98.296 0.248012 64.2407C-2.67981 30.1855 20.3769 9.1205 66.124 1.04566C111.871 -7.02919 132 33.3456 132 64.2407Z" fill="url(#paint0_linear)"/>
<path d="M93.8478 43.1211H42.9172C42.139 43.1211 41.5024 42.4876 41.5024 41.7133V33.4638C41.5024 31.141 43.4123 29.2405 45.7466 29.2405H91.0183C93.3527 29.2405 95.2626 31.141 95.2626 33.4638V41.7133C95.2626 42.5016 94.6259 43.1211 93.8478 43.1211ZM44.3319 40.3055H92.4331V33.4638C92.4331 32.6895 91.7965 32.056 91.0183 32.056H45.7466C44.9685 32.056 44.3319 32.6895 44.3319 33.4638V40.3055Z" fill="white"/>
<path d="M78.4413 82.8905H47.4585C45.9023 82.8905 44.629 81.6235 44.629 80.075V41.7133C44.629 40.939 45.2656 40.3055 46.0437 40.3055H90.7212C91.4994 40.3055 92.136 40.939 92.136 41.7133V66.1521C92.136 66.9264 91.4994 67.5599 90.7212 67.5599H87.9201C86.9722 69.1085 84.4822 72.3745 79.8419 73.5711V81.4687C79.856 82.257 79.2194 82.8905 78.4413 82.8905ZM47.4585 43.1211V80.075H77.0124V72.4449C77.0124 71.7551 77.5076 71.1779 78.1866 71.0512C83.5627 70.1502 85.6989 65.7439 85.798 65.5609C86.0385 65.0682 86.5336 64.7444 87.0854 64.7444H89.3065V43.1211H47.4585Z" fill="white"/>
<path d="M103.015 82.8905H90.7213C89.9431 82.8905 89.3065 82.257 89.3065 81.4827V66.1521C89.3065 65.3779 89.9431 64.7444 90.7213 64.7444H94.3571C94.9089 64.7444 95.404 65.0682 95.6446 65.5609C95.7294 65.7439 97.8798 70.1502 103.256 71.0512C103.935 71.1638 104.43 71.7551 104.43 72.4449V81.4827C104.43 82.257 103.793 82.8905 103.015 82.8905ZM92.136 80.075H101.601V73.5852C96.9603 72.3886 94.4703 69.1085 93.5224 67.574H92.136V80.075Z" fill="white"/>
<path d="M90.7213 98.2211C90.4808 98.2211 90.2261 98.1507 90.0139 98.024C89.5753 97.7706 89.3065 97.306 89.3065 96.8133V81.4827C89.3065 80.7085 89.9431 80.075 90.7213 80.075H103.015C103.793 80.075 104.43 80.7085 104.43 81.4827V87.7332C104.43 87.9725 104.374 88.1978 104.26 88.409C104.062 88.7609 102.025 92.0832 91.4286 98.0381C91.2023 98.1648 90.9618 98.2211 90.7213 98.2211ZM92.136 94.3638C98.7004 90.4643 100.978 88.0289 101.601 87.2687V82.8764H92.136V94.3638Z" fill="white"/>
<path d="M90.7213 82.8905H78.4272C77.649 82.8905 77.0124 82.257 77.0124 81.4827L77.0124 72.4449C77.0124 71.7551 77.5076 71.1779 78.1866 71.0512C83.6192 70.1361 85.7697 65.6031 85.798 65.5609C86.0243 65.0682 86.5336 64.7444 87.0854 64.7444H90.7213C91.4994 64.7444 92.136 65.3779 92.136 66.1521L92.136 81.4827C92.136 82.257 91.4994 82.8905 90.7213 82.8905ZM79.856 80.075H89.3207V67.5599H87.9342C86.9863 69.1085 84.4964 72.3745 79.856 73.5711V80.075Z" fill="white"/>
<path d="M90.7213 98.2211C90.4808 98.2211 90.2402 98.1648 90.028 98.0381C79.4316 92.0691 77.3944 88.7609 77.1963 88.409C77.0832 88.1978 77.0266 87.9725 77.0266 87.7332V81.4827C77.0266 80.7085 77.6632 80.075 78.4413 80.075H90.7354C91.5135 80.075 92.1501 80.7085 92.1501 81.4827V96.8133C92.1501 97.3201 91.8813 97.7706 91.4428 98.024C91.2164 98.1507 90.9759 98.2211 90.7213 98.2211ZM79.856 87.2827C80.4502 88.0148 82.7138 90.4502 89.3207 94.3638V82.8905H79.856V87.2827Z" fill="white"/>
<path d="M62.4547 67.94C61.6766 67.94 61.04 67.3065 61.04 66.5322V49.639C61.04 48.8648 61.6766 48.2313 62.4547 48.2313C63.2328 48.2313 63.8695 48.8648 63.8695 49.639V66.5322C63.8695 67.3065 63.2328 67.94 62.4547 67.94Z" fill="white"/>
<path d="M67.18 55.7487C66.8121 55.7487 66.4584 55.608 66.1755 55.3405L62.4406 51.624L58.7057 55.3405C58.1539 55.8895 57.2626 55.8895 56.7109 55.3405C56.1591 54.7915 56.1591 53.9046 56.7109 53.3555L61.4503 48.6395C62.002 48.0905 62.8933 48.0905 63.445 48.6395L68.1844 53.3555C68.7362 53.9046 68.7362 54.7915 68.1844 55.3405C67.9015 55.622 67.5478 55.7487 67.18 55.7487Z" fill="white"/>
<path d="M76.6021 67.94C75.824 67.94 75.1874 67.3065 75.1874 66.5322V49.639C75.1874 48.8648 75.824 48.2313 76.6021 48.2313C77.3802 48.2313 78.0169 48.8648 78.0169 49.639V66.5322C78.0169 67.3065 77.3802 67.94 76.6021 67.94Z" fill="white"/>
<path d="M76.6021 67.94C76.2202 67.94 75.8665 67.7852 75.5977 67.5318L70.8583 62.8157C70.3065 62.2667 70.3065 61.3798 70.8583 60.8308C71.41 60.2818 72.3013 60.2818 72.8531 60.8308L76.588 64.5473L80.3229 60.8308C80.8747 60.2818 81.7659 60.2818 82.3177 60.8308C82.8694 61.3798 82.8694 62.2667 82.3177 62.8157L77.5783 67.5318C77.3237 67.7852 76.97 67.94 76.6021 67.94Z" fill="white"/>
<path d="M76.5031 89.1973H43.1718C40.0452 89.1973 37.5128 86.6774 37.5128 83.5662V50.8356C37.5128 49.3716 36.7347 47.9919 35.4898 47.2317L29.081 43.3182C28.4161 42.9099 28.2038 42.0512 28.6141 41.3895C29.0244 40.7279 29.8874 40.5167 30.5665 40.925L36.9752 44.8385C39.0549 46.1055 40.3565 48.4143 40.3565 50.8356V83.5662C40.3565 85.1148 41.6297 86.3818 43.186 86.3818H76.5031C77.2812 86.3818 77.9179 87.0153 77.9179 87.7895C77.9179 88.5638 77.2812 89.1973 76.5031 89.1973Z" fill="white"/>
<path d="M52.0847 99.4177C48.4771 99.4177 45.5344 96.4895 45.5344 92.8997C45.5344 89.3099 48.4771 86.3818 52.0847 86.3818C55.6923 86.3818 58.6349 89.3099 58.6349 92.8997C58.6349 96.4895 55.6923 99.4177 52.0847 99.4177ZM52.0847 89.1973C50.0333 89.1973 48.3639 90.8585 48.3639 92.8997C48.3639 94.941 50.0333 96.6022 52.0847 96.6022C54.136 96.6022 55.8054 94.941 55.8054 92.8997C55.8054 90.8585 54.136 89.1973 52.0847 89.1973Z" fill="white"/>
<path d="M74.4234 99.4177C70.8158 99.4177 67.8732 96.4895 67.8732 92.8997C67.8732 89.3099 70.8158 86.3818 74.4234 86.3818C78.031 86.3818 80.9737 89.3099 80.9737 92.8997C80.9737 96.4895 78.031 99.4177 74.4234 99.4177ZM74.4234 89.1973C72.3721 89.1973 70.7027 90.8585 70.7027 92.8997C70.7027 94.941 72.3721 96.6022 74.4234 96.6022C76.4748 96.6022 78.1442 94.941 78.1442 92.8997C78.1442 90.8585 76.4748 89.1973 74.4234 89.1973Z" fill="white"/>
<defs>
<linearGradient id="paint0_linear" x1="132" y1="1.0458" x2="80.3339" y2="154.415" gradientUnits="userSpaceOnUse">
<stop stop-color="#2B31FF"/>
<stop offset="0.552083" stop-color="#A31BFF"/>
</linearGradient>
</defs>
</svg>
