<svg width="155" height="146" viewBox="0 0 155 146" fill="none" xmlns="http://www.w3.org/2000/svg">
<path d="M33.765 112.246C23.9179 102.943 17.0229 91.4717 13.8605 79.881C8.55637 60.4219 21.4881 12.9973 57.8803 21.3968C94.2725 29.7964 127.581 7.80678 144.188 42.1797C160.794 76.5526 96.5565 171.601 33.765 112.246Z" fill="url(#paint0_linear)"/>
<path d="M107.284 69.456H98.1303C97.354 69.456 96.7394 68.8428 96.7394 68.0681C96.7394 67.2935 97.354 66.6802 98.1303 66.6802H107.284C108.06 66.6802 108.675 67.2935 108.675 68.0681C108.675 68.8266 108.06 69.456 107.284 69.456Z" fill="white"/>
<path d="M107.284 75.2335H98.1303C97.354 75.2335 96.7394 74.6203 96.7394 73.8456C96.7394 73.071 97.354 72.4577 98.1303 72.4577H107.284C108.06 72.4577 108.675 73.071 108.675 73.8456C108.675 74.6041 108.06 75.2335 107.284 75.2335Z" fill="white"/>
<path d="M107.284 81.0111H98.1303C97.354 81.0111 96.7394 80.3978 96.7394 79.6232C96.7394 78.8485 97.354 78.2353 98.1303 78.2353H107.284C108.06 78.2353 108.675 78.8485 108.675 79.6232C108.675 80.3978 108.06 81.0111 107.284 81.0111Z" fill="white"/>
<path d="M115.144 57.5298V88.7574C115.144 89.6451 114.416 90.3713 113.527 90.3713H100.896V102.975C100.896 103.863 100.168 104.589 99.2783 104.589H50.5334C48.819 104.589 47.4282 103.201 47.4282 101.491V57.5298C47.4282 55.8191 48.819 54.4312 50.5334 54.4312H112.039C113.753 54.4312 115.144 55.8191 115.144 57.5298ZM111.909 87.1275V57.6589H50.6628V101.345H97.6772V88.7413C97.6772 87.8537 98.405 87.1275 99.2945 87.1275H111.909Z" fill="white"/>
<path d="M108.578 50.9615V56.0289C108.578 56.9165 107.85 57.6428 106.961 57.6428H50.6629V96.3909C50.6629 97.2785 49.9352 98.0047 49.0457 98.0047H43.9674C42.2531 98.0047 40.8622 96.6168 40.8622 94.9061V50.9615C40.8622 49.2508 42.2531 47.8629 43.9674 47.8629H105.473C107.187 47.8629 108.578 49.2508 108.578 50.9615ZM105.343 54.4312V51.0906H44.0806V94.777H47.4122V57.5298C47.4122 55.8191 48.8031 54.4312 50.5174 54.4312H105.343Z" fill="white"/>
<path d="M101.995 44.4093V49.4768C101.995 50.3644 101.268 51.0906 100.378 51.0906L44.0806 51.0906L44.0805 89.8387C44.0805 90.7263 43.3527 91.4525 42.4632 91.4525H37.385C35.6706 91.4525 34.2798 90.0646 34.2798 88.354V44.4093C34.2798 42.6987 35.6706 41.3108 37.385 41.3108H98.8903C100.605 41.3108 101.995 42.6987 101.995 44.4093ZM98.7609 47.8629V44.5385H37.5144V88.2249H40.846V50.9615C40.846 49.2508 42.2368 47.8629 43.9511 47.8629H98.7609Z" fill="white"/>
<path d="M115.144 88.7574C115.144 89.177 114.982 89.5966 114.675 89.9033L100.427 104.121C99.9576 104.589 99.2622 104.718 98.6638 104.476C98.0654 104.234 97.6611 103.637 97.6611 102.991V88.7574C97.6611 87.8698 98.3888 87.1436 99.2783 87.1436H113.527C114.174 87.1436 114.772 87.5309 115.015 88.1442C115.112 88.3378 115.144 88.5476 115.144 88.7574ZM100.896 99.0698L109.613 90.3713L100.896 90.3713L100.896 99.0698Z" fill="white"/>
<path d="M56.7277 93.9217H91.0626C91.8551 93.9217 92.4858 93.2762 92.4858 92.5015V63.9367C92.4858 63.1459 91.8389 62.5165 91.0626 62.5165H56.7277C55.9352 62.5165 55.3045 63.1621 55.3045 63.9367V92.4854C55.3045 93.2923 55.9514 93.9217 56.7277 93.9217ZM58.1671 86.0139L66.674 78.7355L77.1863 89.2254L79.2079 87.2082L77.3642 85.3684L82.491 80.2525L89.6394 87.3857V91.0814H58.1671V86.0139ZM89.6394 65.373V83.335L83.4937 77.2024C82.9277 76.6376 82.022 76.6376 81.4721 77.2024L75.3264 83.335L67.7575 75.7822C67.2238 75.2497 66.3829 75.2174 65.8168 75.7015L58.1671 82.2537V65.373H89.6394Z" fill="white"/>
<path d="M73.9033 76.7989C76.2807 76.7989 78.1891 74.8785 78.1891 72.5223C78.1891 70.15 76.2646 68.2456 73.9033 68.2456C71.5421 68.2456 69.6175 70.1661 69.6175 72.5223C69.6175 74.8785 71.5259 76.7989 73.9033 76.7989ZM73.9033 71.086C74.6958 71.086 75.3265 71.7315 75.3265 72.5062C75.3265 73.2969 74.6796 73.9263 73.9033 73.9263C73.127 73.9263 72.4801 73.2808 72.4801 72.5062C72.4801 71.7154 73.1109 71.086 73.9033 71.086Z" fill="white"/>
<path d="M65.3154 68.2295H62.4528V71.086H65.3154V68.2295Z" fill="white"/>
<path d="M85.3537 71.086H82.4911V73.9425H85.3537V71.086Z" fill="white"/>
<defs>
<linearGradient id="paint0_linear" x1="179.192" y1="19.1154" x2="102.842" y2="286.048" gradientUnits="userSpaceOnUse">
<stop stop-color="#4200FF"/>
<stop offset="0.390625" stop-color="#FF0054"/>
</linearGradient>
</defs>
</svg>
