<svg width="41" height="41" viewBox="0 0 41 41" fill="none" xmlns="http://www.w3.org/2000/svg">
<path d="M20.5 34.5827C12.7164 34.5827 6.40625 28.2743 6.40625 20.4929C6.40625 12.7115 12.7164 6.40311 20.5 6.40311C28.2836 6.40311 34.5938 12.7115 34.5938 20.4929C34.5938 20.8452 34.882 21.1334 35.2344 21.1334C35.5867 21.1334 35.875 20.8452 35.875 20.4929C35.875 12.007 28.9883 5.12221 20.5 5.12221C12.0117 5.12221 5.125 12.007 5.125 20.4929C5.125 28.9788 12.0117 35.8636 20.5 35.8636C20.8523 35.8636 21.1406 35.5754 21.1406 35.2232C21.1406 34.8709 20.8523 34.5827 20.5 34.5827Z" fill="black"/>
<path d="M39.6675 25.2258C40.4683 23.7656 40.9231 22.1453 41 20.4865C41 18.9751 40.3338 17.6493 39.6867 16.3749C39.3344 15.7216 39.0269 15.0363 38.7834 14.3318C38.572 13.5761 38.4247 12.814 38.3286 12.0326C38.1236 10.6236 37.9122 9.16343 37.0922 7.99141C36.2594 6.80659 34.9845 6.14052 33.7481 5.50008C33.0691 5.17345 32.422 4.79559 31.807 4.36008C31.2241 3.89256 30.6859 3.3738 30.1927 2.8102C29.2189 1.77909 28.2131 0.709542 26.8486 0.248421C25.5353 -0.193486 24.1388 0.0434786 22.787 0.274039C22.0311 0.434151 21.2687 0.523813 20.5 0.549431C19.7313 0.523813 18.9689 0.434151 18.2194 0.286848C16.8677 0.0562875 15.4711 -0.187082 14.1578 0.26123C12.7869 0.722351 11.7811 1.7919 10.8137 2.82301C10.3205 3.3802 9.77594 3.89896 9.19297 4.37289C8.57797 4.8084 7.93094 5.18626 7.25187 5.51289C6.01547 6.15333 4.74062 6.8194 3.90781 8.00422C3.08781 9.17624 2.87641 10.6365 2.67141 12.0454C2.57531 12.814 2.42797 13.5825 2.21656 14.3318C1.97312 15.0363 1.66562 15.7216 1.31328 16.3749C0.66625 17.6557 0 18.9815 0 20.4929C0 22.0044 0.66625 23.3301 1.31328 24.6046C1.66562 25.2578 1.97312 25.9431 2.21656 26.6476C2.42797 27.4033 2.57531 28.1655 2.67141 28.9468C2.87641 30.3558 3.08781 31.816 3.90781 32.988C4.74062 34.1728 6.01547 34.8389 7.25187 35.4794C7.93094 35.806 8.57797 36.1838 9.19297 36.6193C9.77594 37.0869 10.3141 37.6056 10.8073 38.1692C11.7811 39.2003 12.7869 40.2699 14.1514 40.731C15.4647 41.1729 16.8612 40.936 18.213 40.7054C18.9625 40.5517 19.7248 40.4684 20.4936 40.4428C21.2623 40.4684 22.0247 40.5581 22.7742 40.7182C23.575 40.8847 24.3822 40.9808 25.2022 41C25.3559 41 25.5161 40.9936 25.6698 40.9808C25.8492 40.968 26.0094 40.8783 26.1183 40.7374L39.5522 25.4051C39.5778 25.3667 39.6034 25.3283 39.6227 25.2899C39.6291 25.2771 39.6419 25.2706 39.6419 25.2578L39.6675 25.2258ZM25.7531 35.5882C25.8684 36.6129 25.8236 37.6441 25.625 38.6496C25.5097 39.0082 25.3687 39.3605 25.2086 39.6999C24.4655 39.6807 23.7288 39.591 22.9984 39.4437C22.172 39.2772 21.3392 39.1747 20.4936 39.1491C19.6544 39.1747 18.8216 39.2708 17.9952 39.4309C16.7459 39.6423 15.5672 39.8472 14.555 39.5078C13.4916 39.1491 12.6331 38.2397 11.7298 37.2854C11.1853 36.677 10.5895 36.107 9.95531 35.5946C9.28266 35.1207 8.57156 34.698 7.83484 34.3394C6.68812 33.7437 5.59906 33.1802 4.94562 32.2515C4.29859 31.3293 4.11922 30.0804 3.92703 28.7547C3.82453 27.9093 3.65797 27.0767 3.42734 26.2633C3.15828 25.4948 2.83156 24.7455 2.44719 24.0218C1.85141 22.8305 1.28125 21.697 1.28125 20.4929C1.28125 19.2889 1.85141 18.1553 2.46 16.9577C2.84437 16.2404 3.1775 15.491 3.44016 14.7161C3.67078 13.8963 3.83734 13.0637 3.93984 12.2248C4.13203 10.9054 4.31781 9.65657 4.95844 8.73433C5.61188 7.80568 6.69453 7.24209 7.84766 6.64648C8.59078 6.28783 9.30188 5.86513 9.96813 5.3912C10.6088 4.87885 11.2045 4.30885 11.7491 3.70042C12.6523 2.73976 13.5044 1.83673 14.5678 1.47808C15.5736 1.13864 16.7588 1.34358 18.008 1.55493C18.828 1.72145 19.6672 1.81751 20.5064 1.83673C21.3456 1.81111 22.1784 1.71504 23.0048 1.55493C24.2541 1.34358 25.4328 1.13864 26.445 1.47808C27.5084 1.83673 28.3669 2.74616 29.2702 3.70042C29.8147 4.30885 30.4105 4.87885 31.0447 5.3912C31.7173 5.87154 32.4284 6.28783 33.1652 6.64648C34.3119 7.24209 35.4009 7.80568 36.0544 8.73433C36.7014 9.65657 36.8808 10.9054 37.073 12.2312C37.1755 13.0766 37.342 13.9091 37.5727 14.7225C37.8417 15.491 38.1684 16.2404 38.5528 16.9641C39.1486 18.1553 39.7188 19.2825 39.7188 20.4929C39.6611 21.8635 39.2895 23.2084 38.6361 24.4124C38.3606 24.4765 38.0788 24.5149 37.7969 24.5341C33.2228 24.3932 32.3131 25.6805 31.6725 27.2432C31.5508 27.6531 31.3266 28.0182 31.0063 28.3064C30.4425 28.7034 29.8147 29.0044 29.1484 29.1902C28.0402 29.4528 27.06 30.0996 26.3809 31.009C25.5866 32.1426 25.6763 33.8975 25.7531 35.5882ZM27.0664 37.7081C27.092 36.978 27.0792 36.2543 27.0344 35.5242C26.9639 34.0448 26.887 32.5205 27.4316 31.7456C27.9569 31.0603 28.7128 30.5863 29.5648 30.4006C30.3592 30.1701 31.1088 29.805 31.7814 29.3247C32.2875 28.9084 32.6591 28.3512 32.8577 27.7236C33.2612 26.7373 33.6456 25.7958 37.0858 25.7958C37.2203 25.7958 37.3613 25.7958 37.5022 25.8022L27.0664 37.7081Z" fill="black"/>
<path d="M29.4688 26.6284C29.4688 26.2761 29.1805 25.9879 28.8281 25.9879C28.2708 26.0008 27.7134 25.8919 27.2073 25.6613C25.862 25.1041 24.3566 25.1041 23.0112 25.6613C21.9734 26.0968 20.8075 26.0968 19.7697 25.6613C19.1098 25.3731 18.3923 25.2258 17.6748 25.245C16.9573 25.2322 16.2398 25.3731 15.58 25.6613C15.0739 25.8919 14.5166 26.0008 13.9592 25.9879C13.4019 26.0008 12.8509 25.8919 12.3384 25.6613C11.6786 25.3731 10.9611 25.2258 10.2436 25.245C9.89125 25.245 9.60297 25.5332 9.60297 25.8855C9.60297 26.2377 9.89125 26.5259 10.2436 26.5259C10.8009 26.5131 11.3519 26.622 11.8644 26.8525C12.5242 27.1407 13.2417 27.288 13.9592 27.2688C14.6767 27.2816 15.3942 27.1407 16.0541 26.8525C16.5602 26.622 17.1175 26.5131 17.6748 26.5259C18.2322 26.5131 18.7831 26.622 19.2956 26.8525C20.6345 27.4097 22.1464 27.4097 23.4853 26.8525C24.5231 26.417 25.6891 26.417 26.7269 26.8525C27.3867 27.1407 28.1042 27.288 28.8217 27.2688C29.1805 27.2688 29.4688 26.9806 29.4688 26.6284Z" fill="black"/>
<path d="M25.625 28.4601C25.2214 28.4729 24.8178 28.3896 24.4527 28.2231C23.3956 27.7876 22.2105 27.7876 21.1534 28.2231C20.4039 28.5369 19.5583 28.5369 18.8088 28.2231C17.7517 27.7876 16.5666 27.7876 15.5159 28.2231C15.1508 28.3896 14.7472 28.4729 14.3436 28.4601C13.94 28.4729 13.5428 28.3896 13.1712 28.2231C12.6523 27.9925 12.0886 27.8837 11.5248 27.8965C11.1725 27.8965 10.8842 28.1847 10.8842 28.5369C10.8842 28.8892 11.1725 29.1774 11.5248 29.1774C11.9284 29.1646 12.3256 29.2478 12.6972 29.4143C13.2161 29.6449 13.7798 29.7538 14.3436 29.741C14.9073 29.7538 15.4711 29.6385 15.99 29.4143C16.7395 29.1005 17.5852 29.1005 18.3347 29.4143C19.3917 29.8498 20.5769 29.8498 21.6275 29.4143C22.377 29.1005 23.2227 29.1005 23.9722 29.4143C24.4911 29.6449 25.0548 29.7538 25.6186 29.741C25.9709 29.741 26.2592 29.4528 26.2592 29.1005C26.2592 28.7483 25.9773 28.4601 25.625 28.4601Z" fill="black"/>
<path d="M23.0625 30.9194C22.8383 30.9258 22.6077 30.881 22.4027 30.7849C21.6723 30.4839 20.8587 30.4839 20.1284 30.7849C19.7056 30.9642 19.2316 30.9642 18.8088 30.7849C18.0848 30.4839 17.2648 30.4839 16.5409 30.7849C16.1181 30.9642 15.6441 30.9642 15.2277 30.7849C14.8689 30.6312 14.4845 30.5543 14.0938 30.5607C13.7414 30.5607 13.4531 30.8489 13.4531 31.2012C13.4531 31.5534 13.7414 31.8416 14.0938 31.8416C14.318 31.8352 14.5486 31.88 14.7536 31.9761C15.4775 32.2771 16.2975 32.2771 17.0214 31.9761C17.4442 31.7968 17.9183 31.7968 18.3347 31.9761C19.0586 32.2771 19.8786 32.2771 20.6025 31.9761C21.0253 31.7968 21.4994 31.7968 21.9222 31.9761C22.2809 32.1298 22.6653 32.2067 23.0561 32.2003C23.4084 32.2003 23.6967 31.9121 23.6967 31.5598C23.6967 31.2076 23.4148 30.9194 23.0625 30.9194Z" fill="black"/>
<path d="M15.5031 15.6255L9.7375 23.3109C9.52609 23.5927 9.58375 23.9962 9.86562 24.2075C10.1475 24.4189 10.5511 24.3612 10.7625 24.0794L16.0156 17.0729L21.2688 24.073C21.4802 24.3548 21.8837 24.4124 22.1656 24.2011C22.4475 23.9898 22.5052 23.5863 22.2937 23.3045L16.5281 15.6191C16.2975 15.3373 15.8747 15.2925 15.5928 15.5295C15.5608 15.5615 15.5288 15.5935 15.5031 15.6255Z" fill="black"/>
<path d="M25.4072 17.4508C25.1766 17.2459 24.8242 17.233 24.5808 17.4316L21.3777 19.9934C21.1022 20.2111 21.0573 20.6146 21.2752 20.8964C21.493 21.1782 21.8966 21.2166 22.1784 20.9989L24.9587 18.7765L30.3208 23.5414C30.5834 23.7784 30.987 23.7528 31.2241 23.4902C31.4611 23.2276 31.4355 22.8241 31.1728 22.5872L25.4072 17.4508Z" fill="black"/>
<path d="M24.3438 13.4544C24.3438 12.039 23.197 10.8926 21.7812 10.8926C20.3655 10.8926 19.2188 12.039 19.2188 13.4544C19.2188 14.8698 20.3655 16.0162 21.7812 16.0162C23.197 16.0162 24.3438 14.8698 24.3438 13.4544ZM20.5 13.4544C20.5 12.7499 21.0766 12.1735 21.7812 12.1735C22.4859 12.1735 23.0625 12.7499 23.0625 13.4544C23.0625 14.1589 22.4859 14.7353 21.7812 14.7353C21.0766 14.7353 20.5 14.1589 20.5 13.4544Z" fill="black"/>
</svg>
