<svg width="110" height="110" viewBox="0 0 110 110" fill="none" xmlns="http://www.w3.org/2000/svg">
<circle cx="55" cy="55" r="55" fill="#FF0054"/>
<path d="M55 76.9979C42.85 76.9979 33 67.1479 33 54.9979C33 42.8479 42.85 32.9979 55 32.9979C67.15 32.9979 77 42.8479 77 54.9979C77 55.5479 77.45 55.9979 78 55.9979C78.55 55.9979 79 55.5479 79 54.9979C79 41.7479 68.25 30.9979 55 30.9979C41.75 30.9979 31 41.7479 31 54.9979C31 68.2479 41.75 78.9979 55 78.9979C55.55 78.9979 56 78.5479 56 77.9979C56 77.4479 55.55 76.9979 55 76.9979Z" fill="white"/>
<path d="M84.92 62.3879C86.17 60.1079 86.88 57.5779 87 54.9879C87 52.6279 85.96 50.5579 84.95 48.5679C84.4 47.5479 83.92 46.4779 83.54 45.3779C83.21 44.1979 82.98 43.0079 82.83 41.7879C82.51 39.5879 82.18 37.3079 80.9 35.4779C79.6 33.6279 77.61 32.5879 75.68 31.5879C74.62 31.0779 73.61 30.4879 72.65 29.8079C71.74 29.0779 70.9 28.2679 70.13 27.3879C68.61 25.7779 67.04 24.1079 64.91 23.3879C62.86 22.6979 60.68 23.0679 58.57 23.4279C57.39 23.6779 56.2 23.8179 55 23.8579C53.8 23.8179 52.61 23.6779 51.44 23.4479C49.33 23.0879 47.15 22.7079 45.1 23.4079C42.96 24.1279 41.39 25.7979 39.88 27.4079C39.11 28.2779 38.26 29.0879 37.35 29.8279C36.39 30.5079 35.38 31.0979 34.32 31.6079C32.39 32.6079 30.4 33.6479 29.1 35.4979C27.82 37.3279 27.49 39.6079 27.17 41.8079C27.02 43.0079 26.79 44.2079 26.46 45.3779C26.08 46.4779 25.6 47.5479 25.05 48.5679C24.04 50.5679 23 52.6379 23 54.9979C23 57.3579 24.04 59.4279 25.05 61.4179C25.6 62.4379 26.08 63.5079 26.46 64.6079C26.79 65.7879 27.02 66.9779 27.17 68.1979C27.49 70.3979 27.82 72.6779 29.1 74.5079C30.4 76.3579 32.39 77.3979 34.32 78.3979C35.38 78.9079 36.39 79.4979 37.35 80.1779C38.26 80.9079 39.1 81.7179 39.87 82.5979C41.39 84.2079 42.96 85.8779 45.09 86.5979C47.14 87.2879 49.32 86.9179 51.43 86.5579C52.6 86.3179 53.79 86.1879 54.99 86.1479C56.19 86.1879 57.38 86.3279 58.55 86.5779C59.8 86.8379 61.06 86.9879 62.34 87.0179C62.58 87.0179 62.83 87.0079 63.07 86.9879C63.35 86.9679 63.6 86.8279 63.77 86.6079L84.74 62.6679C84.78 62.6079 84.82 62.5479 84.85 62.4879C84.86 62.4679 84.88 62.4579 84.88 62.4379L84.92 62.3879ZM63.2 78.5679C63.38 80.1679 63.31 81.7779 63 83.3479C62.82 83.9079 62.6 84.4579 62.35 84.9879C61.19 84.9579 60.04 84.8179 58.9 84.5879C57.61 84.3279 56.31 84.1679 54.99 84.1279C53.68 84.1679 52.38 84.3179 51.09 84.5679C49.14 84.8979 47.3 85.2179 45.72 84.6879C44.06 84.1279 42.72 82.7079 41.31 81.2179C40.46 80.2679 39.53 79.3779 38.54 78.5779C37.49 77.8379 36.38 77.1779 35.23 76.6179C33.44 75.6879 31.74 74.8079 30.72 73.3579C29.71 71.9179 29.43 69.9679 29.13 67.8979C28.97 66.5779 28.71 65.2779 28.35 64.0079C27.93 62.8079 27.42 61.6379 26.82 60.5079C25.89 58.6479 25 56.8779 25 54.9979C25 53.1179 25.89 51.3479 26.84 49.4779C27.44 48.3579 27.96 47.1879 28.37 45.9779C28.73 44.6979 28.99 43.3979 29.15 42.0879C29.45 40.0279 29.74 38.0779 30.74 36.6379C31.76 35.1879 33.45 34.3079 35.25 33.3779C36.41 32.8179 37.52 32.1579 38.56 31.4179C39.56 30.6179 40.49 29.7279 41.34 28.7779C42.75 27.2779 44.08 25.8679 45.74 25.3079C47.31 24.7779 49.16 25.0979 51.11 25.4279C52.39 25.6879 53.7 25.8379 55.01 25.8679C56.32 25.8279 57.62 25.6779 58.91 25.4279C60.86 25.0979 62.7 24.7779 64.28 25.3079C65.94 25.8679 67.28 27.2879 68.69 28.7779C69.54 29.7279 70.47 30.6179 71.46 31.4179C72.51 32.1679 73.62 32.8179 74.77 33.3779C76.56 34.3079 78.26 35.1879 79.28 36.6379C80.29 38.0779 80.57 40.0279 80.87 42.0979C81.03 43.4179 81.29 44.7179 81.65 45.9879C82.07 47.1879 82.58 48.3579 83.18 49.4879C84.11 51.3479 85 53.1079 85 54.9979C84.91 57.1379 84.33 59.2379 83.31 61.1179C82.88 61.2179 82.44 61.2779 82 61.3079C74.86 61.0879 73.44 63.0979 72.44 65.5379C72.25 66.1779 71.9 66.7479 71.4 67.1979C70.52 67.8179 69.54 68.2879 68.5 68.5779C66.77 68.9879 65.24 69.9979 64.18 71.4179C62.94 73.1879 63.08 75.9279 63.2 78.5679ZM65.25 81.8779C65.29 80.7379 65.27 79.6079 65.2 78.4679C65.09 76.1579 64.97 73.7779 65.82 72.5679C66.64 71.4979 67.82 70.7579 69.15 70.4679C70.39 70.1079 71.56 69.5379 72.61 68.7879C73.4 68.1379 73.98 67.2679 74.29 66.2879C74.92 64.7479 75.52 63.2779 80.89 63.2779C81.1 63.2779 81.32 63.2779 81.54 63.2879L65.25 81.8779Z" fill="white"/>
<path d="M69 64.5779C69 64.0279 68.55 63.5779 68 63.5779C67.13 63.5979 66.26 63.4279 65.47 63.0679C63.37 62.1979 61.02 62.1979 58.92 63.0679C57.3 63.7479 55.48 63.7479 53.86 63.0679C52.83 62.6179 51.71 62.3879 50.59 62.4179C49.47 62.3979 48.35 62.6179 47.32 63.0679C46.53 63.4279 45.66 63.5979 44.79 63.5779C43.92 63.5979 43.06 63.4279 42.26 63.0679C41.23 62.6179 40.11 62.3879 38.99 62.4179C38.44 62.4179 37.99 62.8679 37.99 63.4179C37.99 63.9679 38.44 64.4179 38.99 64.4179C39.86 64.3979 40.72 64.5679 41.52 64.9279C42.55 65.3779 43.67 65.6079 44.79 65.5779C45.91 65.5979 47.03 65.3779 48.06 64.9279C48.85 64.5679 49.72 64.3979 50.59 64.4179C51.46 64.3979 52.32 64.5679 53.12 64.9279C55.21 65.7979 57.57 65.7979 59.66 64.9279C61.28 64.2479 63.1 64.2479 64.72 64.9279C65.75 65.3779 66.87 65.6079 67.99 65.5779C68.55 65.5779 69 65.1279 69 64.5779Z" fill="white"/>
<path d="M63 67.4379C62.37 67.4579 61.74 67.3279 61.17 67.0679C59.52 66.3879 57.67 66.3879 56.02 67.0679C54.85 67.5579 53.53 67.5579 52.36 67.0679C50.71 66.3879 48.86 66.3879 47.22 67.0679C46.65 67.3279 46.02 67.4579 45.39 67.4379C44.76 67.4579 44.14 67.3279 43.56 67.0679C42.75 66.7079 41.87 66.5379 40.99 66.5579C40.44 66.5579 39.99 67.0079 39.99 67.5579C39.99 68.1079 40.44 68.5579 40.99 68.5579C41.62 68.5379 42.24 68.6679 42.82 68.9279C43.63 69.2879 44.51 69.4579 45.39 69.4379C46.27 69.4579 47.15 69.2779 47.96 68.9279C49.13 68.4379 50.45 68.4379 51.62 68.9279C53.27 69.6079 55.12 69.6079 56.76 68.9279C57.93 68.4379 59.25 68.4379 60.42 68.9279C61.23 69.2879 62.11 69.4579 62.99 69.4379C63.54 69.4379 63.99 68.9879 63.99 68.4379C63.99 67.8879 63.55 67.4379 63 67.4379Z" fill="white"/>
<path d="M59 71.2779C58.65 71.2879 58.29 71.2179 57.97 71.0679C56.83 70.5979 55.56 70.5979 54.42 71.0679C53.76 71.3479 53.02 71.3479 52.36 71.0679C51.23 70.5979 49.95 70.5979 48.82 71.0679C48.16 71.3479 47.42 71.3479 46.77 71.0679C46.21 70.8279 45.61 70.7079 45 70.7179C44.45 70.7179 44 71.1679 44 71.7179C44 72.2679 44.45 72.7179 45 72.7179C45.35 72.7079 45.71 72.7779 46.03 72.9279C47.16 73.3979 48.44 73.3979 49.57 72.9279C50.23 72.6479 50.97 72.6479 51.62 72.9279C52.75 73.3979 54.03 73.3979 55.16 72.9279C55.82 72.6479 56.56 72.6479 57.22 72.9279C57.78 73.1679 58.38 73.2879 58.99 73.2779C59.54 73.2779 59.99 72.8279 59.99 72.2779C59.99 71.7279 59.55 71.2779 59 71.2779Z" fill="white"/>
<path d="M47.2 47.3979L38.2 59.3979C37.87 59.8379 37.96 60.4679 38.4 60.7979C38.84 61.1279 39.47 61.0379 39.8 60.5979L48 49.6579L56.2 60.5879C56.53 61.0279 57.16 61.1179 57.6 60.7879C58.04 60.4579 58.13 59.8279 57.8 59.3879L48.8 47.3879C48.44 46.9479 47.78 46.8779 47.34 47.2479C47.29 47.2979 47.24 47.3479 47.2 47.3979Z" fill="white"/>
<path d="M62.66 50.2479C62.3 49.9279 61.75 49.9079 61.37 50.2179L56.37 54.2179C55.94 54.5579 55.87 55.1879 56.21 55.6279C56.55 56.0679 57.18 56.1279 57.62 55.7879L61.96 52.3179L70.33 59.7579C70.74 60.1279 71.37 60.0879 71.74 59.6779C72.11 59.2679 72.07 58.6379 71.66 58.2679L62.66 50.2479Z" fill="white"/>
<path d="M61 44.0079C61 41.7979 59.21 40.0079 57 40.0079C54.79 40.0079 53 41.7979 53 44.0079C53 46.2179 54.79 48.0079 57 48.0079C59.21 48.0079 61 46.2179 61 44.0079ZM55 44.0079C55 42.9079 55.9 42.0079 57 42.0079C58.1 42.0079 59 42.9079 59 44.0079C59 45.1079 58.1 46.0079 57 46.0079C55.9 46.0079 55 45.1079 55 44.0079Z" fill="white"/>
</svg>
