<svg width="35" height="50" viewBox="0 0 35 50" fill="none" xmlns="http://www.w3.org/2000/svg">
<path d="M33.5938 6.25C34.0234 6.25 34.375 5.89844 34.375 5.46875V2.34375C34.375 1.91406 34.0234 1.5625 33.5938 1.5625H13.2812V0.78125C13.2812 0.351562 12.9297 0 12.5 0H9.375C8.94531 0 8.59375 0.351562 8.59375 0.78125V45.3125H2.34375C1.04688 45.3125 0 46.3594 0 47.6562V49.2188C0 49.6484 0.351562 50 0.78125 50H21.0938C21.5234 50 21.875 49.6484 21.875 49.2188V47.6562C21.875 46.3594 20.8281 45.3125 19.5312 45.3125H13.2812V40.625H33.5938C34.0234 40.625 34.375 40.2734 34.375 39.8438V36.7188C34.375 36.2891 34.0234 35.9375 33.5938 35.9375H32.8125V6.25H33.5938ZM14.0625 3.125H32.8125V4.6875H14.0625V3.125ZM20.3125 47.6562V48.4375H1.5625V47.6562C1.5625 47.2266 1.91406 46.875 2.34375 46.875H19.5312C19.9609 46.875 20.3125 47.2266 20.3125 47.6562ZM10.1562 45.3125V1.5625H11.7188V45.3125H10.1562ZM32.8125 39.0625H14.0625V37.5H32.8125V39.0625ZM31.25 35.9375H14.0625V6.25H31.25V35.9375Z" fill="black"/>
<path d="M16.4453 21.2891C16.4531 21.3359 16.4688 21.3828 16.4844 21.4219C16.5391 21.5078 16.6016 21.5859 16.6641 21.6641C16.6719 21.6719 16.6797 21.6797 16.6875 21.6875C16.7188 21.7031 16.75 21.7266 16.7812 21.7344C16.8672 21.7969 16.9766 21.8359 17.0859 21.8438C17.1172 21.8516 17.1562 21.8594 17.1875 21.8672H28.125C28.5547 21.8672 28.9062 21.5156 28.9062 21.0859V10.1562C28.9062 9.72656 28.5547 9.375 28.125 9.375H17.1875C16.7578 9.375 16.4062 9.72656 16.4062 10.1562V21.0938C16.4062 21.1094 16.4141 21.1172 16.4141 21.125C16.4219 21.1797 16.4297 21.2344 16.4453 21.2891ZM23.3359 20.3125H18.8594L21.0938 17.625L23.3359 20.3125ZM25.3672 20.3125L24.2812 19.0078L25.7812 17.5078L27.3438 19.0703V20.3125H25.3672ZM23.4375 10.9375H27.3438V16.8672L26.3359 15.8594C26.0312 15.5547 25.5391 15.5547 25.2344 15.8594L23.2812 17.8125L21.6953 15.9141C21.3984 15.5859 20.8828 15.5547 20.5547 15.8516C20.5312 15.8672 20.5156 15.8906 20.4922 15.9141L17.9688 18.9375V10.9375H23.4375Z" fill="black"/>
<path d="M21.0938 13.2812C21.0938 14.5781 22.1406 15.625 23.4375 15.625C24.7344 15.625 25.7812 14.5781 25.7812 13.2812C25.7812 11.9844 24.7344 10.9375 23.4375 10.9375C22.1406 10.9375 21.0938 11.9844 21.0938 13.2812ZM23.4375 12.5C23.8672 12.5 24.2188 12.8516 24.2188 13.2812C24.2188 13.7109 23.8672 14.0625 23.4375 14.0625C23.0078 14.0625 22.6562 13.7109 22.6562 13.2812C22.6562 12.8516 23.0078 12.5 23.4375 12.5Z" fill="black"/>
<path d="M17.1875 26.5625H23.4375C23.8672 26.5625 24.2188 26.2109 24.2188 25.7812C24.2188 25.3516 23.8672 25 23.4375 25H17.1875C16.7578 25 16.4062 25.3516 16.4062 25.7812C16.4062 26.2109 16.7578 26.5625 17.1875 26.5625Z" fill="black"/>
<path d="M28.125 25H26.5625C26.1328 25 25.7812 25.3516 25.7812 25.7812C25.7812 26.2109 26.1328 26.5625 26.5625 26.5625H28.125C28.5547 26.5625 28.9062 26.2109 28.9062 25.7812C28.9062 25.3516 28.5547 25 28.125 25Z" fill="black"/>
<path d="M28.125 28.125H21.875C21.4453 28.125 21.0938 28.4766 21.0938 28.9062C21.0938 29.3359 21.4453 29.6875 21.875 29.6875H28.125C28.5547 29.6875 28.9062 29.3359 28.9062 28.9062C28.9062 28.4766 28.5547 28.125 28.125 28.125Z" fill="black"/>
<path d="M17.1875 29.6875H18.75C19.1797 29.6875 19.5312 29.3359 19.5312 28.9062C19.5312 28.4766 19.1797 28.125 18.75 28.125H17.1875C16.7578 28.125 16.4062 28.4766 16.4062 28.9062C16.4062 29.3359 16.7578 29.6875 17.1875 29.6875Z" fill="black"/>
<path d="M17.1875 32.8125H23.4375C23.8672 32.8125 24.2188 32.4609 24.2188 32.0312C24.2188 31.6016 23.8672 31.25 23.4375 31.25H17.1875C16.7578 31.25 16.4062 31.6016 16.4062 32.0312C16.4062 32.4609 16.7578 32.8125 17.1875 32.8125Z" fill="black"/>
<path d="M28.125 31.25H26.5625C26.1328 31.25 25.7812 31.6016 25.7812 32.0312C25.7812 32.4609 26.1328 32.8125 26.5625 32.8125H28.125C28.5547 32.8125 28.9062 32.4609 28.9062 32.0312C28.9062 31.6016 28.5547 31.25 28.125 31.25Z" fill="black"/>
</svg>
