<svg width="37" height="36" viewBox="0 0 37 36" fill="none" xmlns="http://www.w3.org/2000/svg">
<path d="M18.3813 35.8741C17.9613 35.8741 17.5413 35.7641 17.1713 35.5541L5.31131 28.7041C4.56131 28.2641 4.10131 27.4741 4.10131 26.6041V20.7741C4.10131 20.3341 4.46131 19.9741 4.90131 19.9741C5.34131 19.9741 5.70131 20.3341 5.70131 20.7741V26.6041C5.70131 26.8941 5.85131 27.1641 6.10131 27.3041L17.9713 34.1541C18.2213 34.2941 18.5313 34.2941 18.7813 34.1541L30.6513 27.3041C30.9013 27.1541 31.0513 26.8941 31.0513 26.6041V20.7741C31.0513 20.3341 31.4113 19.9741 31.8513 19.9741C32.2913 19.9741 32.6513 20.3341 32.6513 20.7741V26.6041C32.6513 27.4641 32.1913 28.2641 31.4413 28.6941L19.6013 35.5541C19.2313 35.7641 18.8113 35.8741 18.3813 35.8741Z" fill="black"/>
<path d="M31.8613 12.7741C31.7213 12.7741 31.5813 12.7341 31.4613 12.6641L19.1613 5.56411C18.6813 5.28411 18.0913 5.28411 17.6113 5.56411L5.30131 12.6641C5.05131 12.8141 4.74131 12.8241 4.49131 12.6741C4.24131 12.5241 4.08131 12.2641 4.08131 11.9741C4.08131 11.6841 4.24131 11.4141 4.50131 11.2741L16.8113 4.16411C17.7913 3.60411 18.9813 3.60411 19.9613 4.16411L32.2713 11.2741C32.5813 11.4541 32.7413 11.8241 32.6413 12.1741C32.5413 12.5341 32.2313 12.7741 31.8613 12.7741Z" fill="black"/>
<path d="M14.0013 26.8541C13.6913 26.8541 13.3813 26.7641 13.1213 26.6041L1.38131 19.6141C0.981312 19.3741 0.691312 18.9941 0.581312 18.5441C0.471312 18.0941 0.541312 17.6141 0.781312 17.2241L3.74131 12.3441C4.23131 11.5441 5.27131 11.2741 6.09131 11.7441L18.7813 19.0741C18.9713 19.1841 19.1013 19.3641 19.1613 19.5741C19.2113 19.7841 19.1813 20.0041 19.0713 20.1941L15.4913 26.0441C15.1713 26.5441 14.6013 26.8541 14.0013 26.8541ZM5.23131 13.1141C5.18131 13.1141 5.14131 13.1341 5.11131 13.1741L2.15131 18.0541C2.13131 18.0841 2.13131 18.1241 2.13131 18.1541C2.14131 18.1841 2.16131 18.2141 2.19131 18.2341L13.9313 25.2241C13.9613 25.2441 14.0013 25.2441 14.0313 25.2341C14.0613 25.2241 14.0913 25.2041 14.1113 25.1741L17.2613 20.0241L5.29131 13.1241C5.27131 13.1141 5.25131 13.1041 5.23131 13.1141Z" fill="black"/>
<path d="M22.7213 26.8941C22.1613 26.8941 21.6313 26.6041 21.3413 26.1241L17.7013 20.1741C17.5913 19.9941 17.5513 19.7641 17.6113 19.5541C17.6613 19.3441 17.8013 19.1641 17.9913 19.0541L30.7813 11.6641C31.5413 11.2341 32.5113 11.4741 32.9713 12.2241L36.0613 17.3141C36.2913 17.6841 36.3513 18.1241 36.2513 18.5441C36.1513 18.9641 35.8813 19.3241 35.5113 19.5441L23.5713 26.6641C23.3013 26.8241 23.0113 26.8941 22.7213 26.8941ZM19.5013 20.0441L22.7213 25.2941L34.6813 18.1741L31.6013 13.0741L19.5013 20.0441Z" fill="black"/>
<path d="M31.8213 12.5841C31.5713 12.5841 31.3213 12.5141 31.1013 12.3941L17.9913 4.81411C17.7613 4.67411 17.6113 4.43411 17.5913 4.16411C17.5813 3.89411 17.7013 3.63411 17.9213 3.47411L22.2213 0.314115C22.6813 -0.0258852 23.3113 -0.0558852 23.8013 0.234115L35.9513 7.48411C36.3713 7.73411 36.6313 8.17412 36.6513 8.65411C36.6713 9.13411 36.4513 9.60412 36.0513 9.88412L32.6613 12.3141C32.4213 12.4941 32.1313 12.5841 31.8213 12.5841ZM19.8513 4.04411L31.8213 10.9541L34.9113 8.73411L23.0713 1.67411L19.8513 4.04411Z" fill="black"/>
<path d="M4.93131 12.6141C4.66131 12.6141 4.39131 12.5241 4.17131 12.3641L0.541312 9.75412C0.191312 9.49411 -0.0186882 9.08412 0.00131184 8.64412C0.0213118 8.20412 0.261312 7.81411 0.631312 7.58411L13.0513 0.184115C13.5013 -0.0858852 14.0613 -0.0558852 14.4813 0.254115L18.8613 3.46411C19.0813 3.62411 19.2013 3.88411 19.1913 4.15411C19.1813 4.42411 19.0313 4.66411 18.7913 4.80411L5.58131 12.4341C5.38131 12.5541 5.16131 12.6141 4.93131 12.6141ZM1.86131 8.72412L4.95131 10.9441L16.9213 4.03411L13.7013 1.67411L1.86131 8.72412Z" fill="black"/>
<path d="M18.3813 35.0941C18.1713 35.0941 17.9613 35.0141 17.8113 34.8641C17.6613 34.7141 17.5813 34.5141 17.5813 34.2941V4.19412C17.5813 3.75412 17.9413 3.39411 18.3813 3.39411C18.8213 3.39411 19.1813 3.75412 19.1813 4.19412V34.2941C19.1813 34.5041 19.1013 34.7141 18.9413 34.8641C18.8013 35.0141 18.6013 35.0941 18.3813 35.0941Z" fill="black"/>
</svg>
