<svg width="110" height="110" viewBox="0 0 110 110" fill="none" xmlns="http://www.w3.org/2000/svg">
<circle cx="55" cy="55" r="55" fill="#FF0054"/>
<path d="M85.3964 45.757H85.3841C84.7052 45.757 84.162 46.3123 84.162 46.9911C84.162 47.6698 84.7175 48.2251 85.4088 48.2251C86.0877 48.2251 86.6431 47.6698 86.6431 46.9911C86.6431 46.3123 86.0753 45.757 85.3964 45.757Z" fill="white"/>
<path d="M85.3964 49.4468H85.3841C84.7052 49.4468 84.162 50.0021 84.162 50.6809C84.162 51.3596 84.7175 51.9149 85.4088 51.9149C86.0877 51.9149 86.6431 51.3596 86.6431 50.6809C86.6431 50.0021 86.0753 49.4468 85.3964 49.4468Z" fill="white"/>
<path d="M89.0995 45.757C88.4083 45.757 87.8652 46.3123 87.8652 46.9911C87.8652 47.6698 88.4206 48.2251 89.1119 48.2251C89.7908 48.2251 90.3463 47.6698 90.3463 46.9911C90.3463 46.3123 89.7784 45.757 89.0995 45.757Z" fill="white"/>
<path d="M89.0995 49.4468C88.4083 49.4468 87.8652 50.0021 87.8652 50.6809C87.8652 51.3596 88.4206 51.9149 89.1119 51.9149C89.7908 51.9149 90.3463 51.3596 90.3463 50.6809C90.3463 50.0021 89.7784 49.4468 89.0995 49.4468Z" fill="white"/>
<path d="M85.3594 44.5106H89.0625C89.7414 44.5106 90.2969 43.9553 90.2969 43.2766C90.2969 42.5979 89.7414 42.0426 89.0625 42.0426H85.3594C84.6805 42.0426 84.125 42.5979 84.125 43.2766C84.125 43.9553 84.6805 44.5106 85.3594 44.5106Z" fill="white"/>
<path d="M16.2344 84H22.4062C23.0852 84 23.6406 83.4447 23.6406 82.766V80.2979H85.3594V82.766C85.3594 83.4447 85.9148 84 86.5938 84H92.7656C93.4445 84 94 83.4447 94 82.766V39.5745C94 38.8957 93.4445 38.3404 92.7656 38.3404H37.2188V37.1064H38.4531C39.132 37.1064 39.6875 36.5511 39.6875 35.8723V27.234C39.6875 26.5553 39.132 26 38.4531 26H16.2344C15.5555 26 15 26.5553 15 27.234V35.8723C15 36.5511 15.5555 37.1064 16.2344 37.1064H17.4688V38.3404H16.2344C15.5555 38.3404 15 38.8957 15 39.5745V82.766C15 83.4447 15.5555 84 16.2344 84ZM32.2812 51.9149H37.2188H42.1562H47.0938H52.0312H56.9688H61.9062H66.8438H71.7812H76.7188H80.4219V53.1489H77.9531C77.9531 52.4702 77.3977 51.9149 76.7188 51.9149C76.0398 51.9149 75.4844 52.4702 75.4844 53.1489H73.0156C73.0156 52.4702 72.4602 51.9149 71.7812 51.9149C71.1023 51.9149 70.5469 52.4702 70.5469 53.1489H68.0781C68.0781 52.4702 67.5227 51.9149 66.8438 51.9149C66.1648 51.9149 65.6094 52.4702 65.6094 53.1489H63.1406C63.1406 52.4702 62.5852 51.9149 61.9062 51.9149C61.2273 51.9149 60.6719 52.4702 60.6719 53.1489H58.2031C58.2031 52.4702 57.6477 51.9149 56.9688 51.9149C56.2898 51.9149 55.7344 52.4702 55.7344 53.1489H53.2656C53.2656 52.4702 52.7102 51.9149 52.0312 51.9149C51.3523 51.9149 50.7969 52.4702 50.7969 53.1489H48.3281C48.3281 52.4702 47.7727 51.9149 47.0938 51.9149C46.4148 51.9149 45.8594 52.4702 45.8594 53.1489H43.44C43.4277 53.1489 43.4277 53.1489 43.4153 53.1489C43.403 53.1489 43.3906 53.1489 43.3906 53.1489C43.3906 52.4702 42.8352 51.9149 42.1562 51.9149C41.4773 51.9149 40.9219 52.4702 40.9219 53.1489H38.4531C38.4531 52.4702 37.8977 51.9149 37.2188 51.9149C36.5398 51.9149 35.9844 52.4702 35.9844 53.1489H33.5156C33.5156 52.4702 32.9602 51.9149 32.2812 51.9149C31.6023 51.9149 31.0469 52.4702 31.0469 53.1489H28.5781V51.9149H32.2812ZM48.97 65.3043L51.1795 68.6979L47.6862 74.1277H43.2302L48.97 65.3043ZM59.4622 60.3928L68.3003 74.1277H50.6117L53.6483 69.4136C53.6606 69.3889 53.673 69.3766 53.6853 69.3519L59.4622 60.3928ZM71.2381 74.1277L60.4991 57.4434L60.4867 57.4311C60.4373 57.357 60.3633 57.3077 60.3016 57.246C60.2522 57.1966 60.2028 57.1226 60.1411 57.0855C60.1287 57.0855 60.1287 57.0732 60.1287 57.0732C60.067 57.0362 60.0053 57.0238 59.9436 56.9991C59.8572 56.9621 59.7831 56.9251 59.6967 56.9004C59.6103 56.8881 59.5362 56.8881 59.4498 56.9004C59.3758 56.9004 59.3017 56.8881 59.2277 56.9004C59.1289 56.9128 59.0548 56.9621 58.9561 56.9991C58.9067 57.0238 58.845 57.0362 58.7833 57.0609L58.7709 57.0732C58.7092 57.1102 58.6598 57.1843 58.5981 57.2336C58.5364 57.2953 58.4623 57.3447 58.413 57.4187L58.4006 57.4311L52.6237 66.4149L49.9822 62.3549C49.9822 62.3549 49.9822 62.3549 49.9698 62.3426C49.9205 62.2685 49.8587 62.2191 49.797 62.1698C49.7353 62.1204 49.6859 62.0464 49.6242 61.997C49.6242 61.997 49.6242 61.9847 49.6119 61.9847C49.5625 61.9477 49.5008 61.9477 49.4391 61.923C49.3527 61.886 49.2663 61.8366 49.1675 61.8119C49.0934 61.7996 49.007 61.8119 48.933 61.8119C48.8589 61.8119 48.7725 61.7996 48.6984 61.8119C48.5997 61.8366 48.5133 61.8736 48.4269 61.923C48.3652 61.9477 48.3158 61.96 48.2541 61.9847C48.2541 61.9847 48.2541 61.997 48.2417 61.997C48.1677 62.0464 48.1306 62.1081 48.0689 62.1698C48.0072 62.2315 47.9455 62.2808 47.8961 62.3426C47.8961 62.3426 47.8961 62.3426 47.8838 62.3549L40.28 74.1277H28.5781V64.2677C28.5781 64.2677 28.5781 64.2677 28.5781 64.2553C28.5781 64.243 28.5781 64.2553 28.5781 64.243V55.6047H39.9344C39.7986 55.9872 39.7122 56.4068 39.7122 56.8387C39.7122 58.8749 41.3786 60.5409 43.4153 60.5409C45.452 60.5409 47.1184 58.8749 47.1184 56.8387C47.1184 56.4068 47.032 55.9872 46.8962 55.6047H80.4342V74.1153H71.2381V74.1277ZM21.1719 60.5532V69.1668C21.1719 69.1791 21.1719 69.1791 21.1719 69.1791V74.1153C21.1719 74.1277 21.1719 74.1277 21.1719 74.1277V81.5319H17.4688V60.5532H21.1719ZM26.1094 60.5532V63.0213H23.6406V60.5532H26.1094ZM23.6406 65.4894H26.1094V67.9574H23.6406V65.4894ZM23.6406 70.4255H26.1094V72.8936H23.6406V70.4255ZM43.4277 55.617C44.1066 55.6294 44.6497 56.1723 44.6497 56.8511C44.6497 57.5298 44.0942 58.0851 43.4153 58.0851C42.7364 58.0851 42.1809 57.5298 42.1809 56.8511C42.1809 56.1723 42.7241 55.6294 43.403 55.617H43.4277ZM82.8906 65.514H85.3594V67.9574H82.8906V65.514ZM85.3594 63.046H82.8906V60.5532H85.3594V63.046ZM82.8906 70.4255H85.3594V72.8936H82.8906V70.4255ZM87.8281 79.0762C87.8281 79.0638 87.8281 79.0515 87.8281 79.0515V74.14C87.8281 74.1277 87.8281 74.1277 87.8281 74.1277V69.1915C87.8281 69.1791 87.8281 69.1791 87.8281 69.1791V60.5532H91.5312V81.5319H87.8281V79.0762ZM91.5312 58.0851H82.8906V55.617H91.5312V58.0851ZM26.1094 58.0851H17.4688V55.617H26.1094V58.0851ZM23.6406 77.8298V75.3617H26.1094C26.1094 76.0404 26.6648 76.5957 27.3438 76.5957H40.8231C40.8602 76.5957 40.8972 76.6081 40.9466 76.6081H70.5716C70.5963 76.6081 70.6209 76.5957 70.658 76.5957H81.6562C82.3352 76.5957 82.8906 76.0404 82.8906 75.3617H85.3594V77.8298H23.6406ZM91.5312 53.1489H82.8906V50.6809C82.8906 50.6685 82.8906 50.6685 82.8906 50.6562V40.8085H91.5312V53.1489ZM17.4688 28.4681H18.7031V29.7021C18.7031 30.3809 19.2586 30.9362 19.9375 30.9362C20.6164 30.9362 21.1719 30.3809 21.1719 29.7021V28.4681H22.4062V29.7021C22.4062 30.3809 22.9617 30.9362 23.6406 30.9362C24.3195 30.9362 24.875 30.3809 24.875 29.7021V28.4681H26.1094V29.7021C26.1094 30.3809 26.6648 30.9362 27.3438 30.9362C28.0227 30.9362 28.5781 30.3809 28.5781 29.7021V28.4681H29.8125V29.7021C29.8125 30.3809 30.368 30.9362 31.0469 30.9362C31.7258 30.9362 32.2812 30.3809 32.2812 29.7021V28.4681H33.5156V29.7021C33.5156 30.3809 34.0711 30.9362 34.75 30.9362C35.4289 30.9362 35.9844 30.3809 35.9844 29.7021V28.4681H37.2188V34.6383H17.4688V28.4681ZM19.9375 37.1064H34.75V38.3404H19.9375V37.1064ZM80.4219 40.8085V49.4468H27.3438C26.6648 49.4468 26.1094 50.0021 26.1094 50.6809V53.1489H17.4688V40.8085H80.4219Z" fill="white"/>
</svg>
