<svg width="31" height="43" viewBox="0 0 31 43" fill="none" xmlns="http://www.w3.org/2000/svg">
<path d="M1.59621e-06 39.2586L0 2.74144C-6.62055e-08 1.22683 1.25972 1.13357e-06 2.81493 1.06559e-06L27.1928 0C28.7481 -6.79804e-08 30.0078 1.22683 30.0078 2.74144L30.0078 30.1331C30.0078 30.6405 29.5879 31.0494 29.0669 31.0494C28.5459 31.0494 28.126 30.6405 28.126 30.1331L28.126 11.8669H27.8927C27.3717 11.8669 26.9518 11.458 26.9518 10.9506C26.9518 10.4432 27.3717 10.0343 27.8927 10.0343H28.126V2.74144C28.126 2.23404 27.7061 1.8251 27.1851 1.8251L2.81493 1.8251C2.29393 1.8251 1.87403 2.23404 1.87403 2.74144L1.87403 10.0418H2.57387C3.09487 10.0418 3.51477 10.4508 3.51477 10.9582C3.51477 11.4656 3.09487 11.8745 2.57387 11.8745H1.87403L1.87403 39.2661C1.87403 39.7735 2.29394 40.1825 2.81493 40.1825H27.1928C27.7138 40.1825 28.1337 39.7735 28.1337 39.2661L28.1337 34.6996C28.1337 34.1922 28.5537 33.7833 29.0746 33.7833C29.5956 33.7833 30.0155 34.1922 30.0155 34.6996V39.2661C30.0155 40.7807 28.7558 42.0076 27.2006 42.0076H2.81493C1.25972 42 1.66242e-06 40.7732 1.59621e-06 39.2586Z" fill="black"/>
<path d="M15.4666 30.1331C15.4666 28.3686 16.9363 26.9372 18.7481 26.9372C20.5599 26.9372 22.0296 28.3686 22.0296 30.1331C22.0296 31.8976 20.5599 33.3289 18.7481 33.3289C16.9363 33.3289 15.4666 31.8976 15.4666 30.1331ZM20.1555 30.1331C20.1555 29.3758 19.5257 28.7623 18.7481 28.7623C17.9705 28.7623 17.3406 29.3758 17.3406 30.1331C17.3406 30.8904 17.9705 31.5038 18.7481 31.5038C19.5257 31.4962 20.1555 30.8828 20.1555 30.1331Z" fill="black"/>
<path d="M14.5334 22.8251C14.5334 24.5896 13.0638 26.0209 11.2519 26.0209C9.44012 26.0209 7.97045 24.5896 7.97045 22.8251C7.97045 21.0606 9.44012 19.6293 11.2519 19.6293C13.0638 19.6293 14.5334 21.0606 14.5334 22.8251ZM9.84448 22.8251C9.84448 23.5824 10.4743 24.1958 11.2519 24.1958C12.0295 24.1958 12.6594 23.5824 12.6594 22.8251C12.6594 22.0678 12.0295 21.4544 11.2519 21.4544C10.4743 21.4544 9.84448 22.0678 9.84448 22.8251Z" fill="black"/>
<path d="M21.4463 20.9697C21.4463 21.212 21.3452 21.4392 21.1664 21.6134L10.0078 32.4883C9.65784 32.8594 9.06686 32.8896 8.68583 32.5489C8.30481 32.2081 8.2737 31.6325 8.62363 31.2614C8.64695 31.2387 8.66251 31.216 8.68583 31.2009L19.8445 20.326C20.2099 19.9701 20.8009 19.9625 21.1664 20.3184C21.3452 20.4926 21.4463 20.7274 21.4463 20.9697Z" fill="black"/>
<path d="M4.88334 11.8669C4.36235 11.8669 3.94244 11.458 3.94244 10.9506C3.94244 10.4432 4.36235 10.0343 4.88334 10.0343H7.18505C7.70605 10.0343 8.12596 10.4432 8.12596 10.9506C8.12596 11.458 7.70605 11.8669 7.18505 11.8669H4.88334Z" fill="black"/>
<path d="M9.47901 11.8669C8.95801 11.8669 8.53811 11.458 8.53811 10.9506C8.53811 10.4432 8.95801 10.0343 9.47901 10.0343H11.7807C12.3017 10.0343 12.7216 10.4432 12.7216 10.9506C12.7216 11.458 12.3017 11.8669 11.7807 11.8669H9.47901Z" fill="black"/>
<path d="M14.0824 11.8669C13.5615 11.8669 13.1415 11.458 13.1415 10.9506C13.1415 10.4432 13.5615 10.0343 14.0824 10.0343L16.3997 10.0343C16.9207 10.0343 17.3406 10.4432 17.3406 10.9506C17.3406 11.458 16.9207 11.8669 16.3997 11.8669H14.0824Z" fill="black"/>
<path d="M18.6858 11.8669C18.1648 11.8669 17.7449 11.458 17.7449 10.9506C17.7449 10.4432 18.1648 10.0343 18.6858 10.0343H20.9875C21.5085 10.0343 21.9284 10.4432 21.9284 10.9506C21.9284 11.458 21.5085 11.8669 20.9875 11.8669H18.6858Z" fill="black"/>
<path d="M22.3484 10.9582C22.3484 10.4508 22.7683 10.0418 23.2893 10.0418H25.591C26.112 10.0418 26.5319 10.4508 26.5319 10.9582C26.5319 11.4656 26.112 11.8745 25.591 11.8745H23.2893C22.7683 11.8669 22.3484 11.458 22.3484 10.9582Z" fill="black"/>
</svg>
