<svg width="50" height="50" viewBox="0 0 50 50" fill="none" xmlns="http://www.w3.org/2000/svg">
<path d="M25.8065 30.6452H24.1935V32.4032C23.2581 32.7339 22.5806 33.621 22.5806 34.6774C22.5806 36.0081 23.6694 37.0968 25 37.0968C25.4435 37.0968 25.8065 37.4597 25.8065 37.9032C25.8065 38.3468 25.4435 38.7097 25 38.7097H22.5806V40.3226H24.1935V41.9355H25.8065V40.1774C26.7419 39.8468 27.4194 38.9597 27.4194 37.9032C27.4194 36.5726 26.3306 35.4839 25 35.4839C24.5565 35.4839 24.1935 35.121 24.1935 34.6774C24.1935 34.2339 24.5565 33.871 25 33.871H27.4194V32.2581H25.8065V30.6452Z" fill="black"/>
<path d="M38.7097 35.4839H37.0968V37.2419C36.1613 37.5726 35.4839 38.4597 35.4839 39.5161C35.4839 40.8468 36.5726 41.9355 37.9032 41.9355C38.3468 41.9355 38.7097 42.2984 38.7097 42.7419C38.7097 43.1855 38.3468 43.5484 37.9032 43.5484H35.4839V45.1613H37.0968V46.7742H38.7097V45.0161C39.6452 44.6855 40.3226 43.7984 40.3226 42.7419C40.3226 41.4113 39.2339 40.3226 37.9032 40.3226C37.4597 40.3226 37.0968 39.9597 37.0968 39.5161C37.0968 39.0726 37.4597 38.7097 37.9032 38.7097H40.3226V37.0968H38.7097V35.4839Z" fill="black"/>
<path d="M12.9032 35.4839H11.2903V37.2419C10.3548 37.5726 9.67742 38.4597 9.67742 39.5161C9.67742 40.8468 10.7661 41.9355 12.0968 41.9355C12.5403 41.9355 12.9032 42.2984 12.9032 42.7419C12.9032 43.1855 12.5403 43.5484 12.0968 43.5484H9.67742V45.1613H11.2903V46.7742H12.9032V45.0161C13.8387 44.6855 14.5161 43.7984 14.5161 42.7419C14.5161 41.4113 13.4274 40.3226 12.0968 40.3226C11.6532 40.3226 11.2903 39.9597 11.2903 39.5161C11.2903 39.0726 11.6532 38.7097 12.0968 38.7097H14.5161V37.0968H12.9032V35.4839Z" fill="black"/>
<path d="M49.1936 8.06452H48.3871V0H46.7742V8.06452H3.22581V0H1.6129V8.06452H0.806452C0.362903 8.06452 0 8.42742 0 8.87097V12.0968C0 12.5403 0.362903 12.9032 0.806452 12.9032H11.2903V23.0565L3.45968 30.8871C3.30645 31.0323 3.22581 31.2339 3.22581 31.4516V49.1936C3.22581 49.6371 3.58871 50 4.03226 50H20.1613C20.6048 50 20.9677 49.6371 20.9677 49.1936V45.1613H29.0323V49.1936C29.0323 49.6371 29.3952 50 29.8387 50H45.9677C46.4113 50 46.7742 49.6371 46.7742 49.1936V31.4516C46.7742 31.2339 46.6935 31.0323 46.5403 30.879L38.7097 23.0565V12.9032H49.1936C49.6371 12.9032 50 12.5403 50 12.0968V8.87097C50 8.42742 49.6371 8.06452 49.1936 8.06452ZM12.9032 30.6452V29.2581C13.379 29.5403 13.7097 30.0484 13.7097 30.6452C13.7097 31.5323 12.9839 32.2581 12.0968 32.2581C11.2097 32.2581 10.4839 31.5323 10.4839 30.6452C10.4839 30.0484 10.8145 29.5323 11.2903 29.2581V30.6452H12.9032ZM19.3548 48.3871H4.83871V31.7823L11.2903 25.3306V27.5323C9.90323 27.8952 8.87097 29.1452 8.87097 30.6452C8.87097 32.4274 10.3145 33.871 12.0968 33.871C13.879 33.871 15.3226 32.4274 15.3226 30.6452C15.3226 29.1452 14.2903 27.8952 12.9032 27.5323V25.3306L16.129 28.5565V44.3548C16.129 44.7984 16.4919 45.1613 16.9355 45.1613H19.3548V48.3871ZM25.8065 25.8065V24.4194C26.2903 24.7016 26.6129 25.2097 26.6129 25.8065C26.6129 26.6935 25.8871 27.4194 25 27.4194C24.1129 27.4194 23.3871 26.6935 23.3871 25.8065C23.3871 25.2097 23.7177 24.6935 24.1935 24.4194V25.8065H25.8065ZM24.1935 18.2177L16.3629 26.0484C16.2823 26.129 16.2177 26.2339 16.1855 26.3387L12.9032 23.0565V12.9032H24.1935V18.2177ZM17.7742 30.6452C17.7742 30.6452 18.0161 30.6452 17.7419 30.6452V26.9435L24.1935 20.4919V22.6935C22.8065 23.0565 21.7742 24.3065 21.7742 25.8065C21.7742 27.5887 23.2177 29.0323 25 29.0323C26.7823 29.0323 28.2258 27.5887 28.2258 25.8065C28.2258 24.3065 27.1935 23.0565 25.8065 22.6935V20.4919L32.2581 26.9435V43.5484H17.7419V40.3226L17.7742 30.6452ZM17.7419 38.7097V32.2581H17.7742L17.7419 38.7097ZM38.7097 30.6452V29.2581C39.1936 29.5403 39.5161 30.0484 39.5161 30.6452C39.5161 31.5323 38.7903 32.2581 37.9032 32.2581C37.0161 32.2581 36.2903 31.5323 36.2903 30.6452C36.2903 30.0484 36.621 29.5323 37.0968 29.2581V30.6452H38.7097ZM37.0968 23.0565L33.8145 26.3387C33.7742 26.2339 33.7177 26.129 33.6371 26.0484L25.8065 18.2177V12.9032H37.0968V23.0565ZM45.1613 31.7823V48.3871H30.6452V45.1613H33.0645C33.5081 45.1613 33.871 44.7984 33.871 44.3548V28.5565L37.0968 25.3306V27.5323C35.7097 27.8952 34.6774 29.1452 34.6774 30.6452C34.6774 32.4274 36.121 33.871 37.9032 33.871C39.6855 33.871 41.129 32.4274 41.129 30.6452C41.129 29.1452 40.0968 27.8952 38.7097 27.5323V25.3306L45.1613 31.7823ZM48.3871 11.2903H1.6129V9.67742H48.3871V11.2903Z" fill="black"/>
</svg>
