<svg width="40" height="49" viewBox="0 0 40 49" fill="none" xmlns="http://www.w3.org/2000/svg">
<path d="M4.21534 45.0509H7.72397C8.11474 45.0509 8.43068 44.737 8.43068 44.3404C8.43068 43.9439 8.11474 43.6299 7.72397 43.6299H4.21534C3.82457 43.6299 3.50863 43.9439 3.50863 44.3404C3.50863 44.737 3.82457 45.0509 4.21534 45.0509Z" fill="black"/>
<path d="M0 11.4755V48.2895C0 48.6778 0.315943 49 0.706714 49H28.809C28.9586 49 29.0917 48.9587 29.2081 48.8761C29.3993 48.7522 29.524 48.5373 29.524 48.2895V15.5154C30.3139 15.7715 31.137 15.9037 31.9933 15.9037C36.4082 15.9037 40 12.3347 40 7.94773C40 3.56078 36.3999 0 31.9933 0C27.5868 0 23.9867 3.56904 23.9867 7.94773C23.9867 8.91435 24.1696 9.8727 24.5022 10.7732H0.715028C0.315943 10.7732 0 11.0872 0 11.4755ZM4.79734 24.8759V23.3392H8.88797V24.8759H4.79734ZM8.88797 21.9265H4.79734V19.7289H8.88797V21.9265ZM7.61588 15.3667H6.06942V14.5819H7.60757V15.3667H7.61588ZM4.79734 16.7795H8.88797V18.3161H4.79734V16.7795ZM28.094 26.2887V39.6891H26.1401V32.394C26.1401 32.3692 26.1401 32.3445 26.1318 32.3279C26.1318 32.3114 26.1318 32.3032 26.1235 32.2866C26.1235 32.2784 26.1235 32.2701 26.1152 32.2618C26.1152 32.2453 26.1068 32.2288 26.1068 32.2123C26.1068 32.204 26.1068 32.1958 26.0985 32.1875C26.0902 32.171 26.0902 32.1544 26.0819 32.1379C26.0819 32.1297 26.0736 32.1214 26.0736 32.1214C26.0653 32.1049 26.0653 32.0966 26.057 32.0801C26.057 32.0718 26.0486 32.0636 26.0486 32.0553C26.0403 32.047 26.032 32.0305 26.0237 32.0223C26.0154 32.014 26.0154 32.0057 26.0071 31.9975C25.9988 31.9892 25.9904 31.9727 25.9821 31.9644C25.9738 31.9562 25.9738 31.9479 25.9655 31.9396C25.9572 31.9314 25.9489 31.9231 25.9406 31.9149C25.9322 31.9066 25.9322 31.8983 25.9239 31.8983C25.8158 31.7496 25.6496 31.1713 25.5415 30.8243C25.3336 30.1138 25.1507 29.4942 24.8098 29.1472C24.6768 29.015 24.4939 28.9406 24.311 28.9406H21.0019C20.8106 28.9406 20.636 29.015 20.503 29.1472C20.1621 29.4942 19.9792 30.1055 19.7714 30.8243C19.6716 31.1713 19.5053 31.7496 19.3889 31.8983C19.3806 31.9066 19.3806 31.9149 19.3723 31.9149C19.364 31.9231 19.3556 31.9314 19.3473 31.9396C19.339 31.9479 19.339 31.9562 19.3307 31.9644C19.3224 31.9727 19.3141 31.9892 19.3058 31.9975C19.2974 32.0057 19.2974 32.014 19.2891 32.0223C19.2808 32.0388 19.2725 32.047 19.2642 32.0553C19.2642 32.0636 19.2559 32.0718 19.2559 32.0801C19.2476 32.0966 19.2392 32.1049 19.2392 32.1214C19.2392 32.1297 19.2309 32.1379 19.2309 32.1379C19.2226 32.1544 19.2226 32.1627 19.2143 32.1875C19.2143 32.1958 19.206 32.204 19.206 32.2123C19.1977 32.2288 19.1977 32.2453 19.1977 32.2618C19.1977 32.2701 19.1894 32.2784 19.1894 32.2866C19.1894 32.3032 19.181 32.3114 19.181 32.3279C19.181 32.3527 19.1727 32.3775 19.1727 32.394V39.6891H18.1916V32.394C18.1916 32.3692 18.1916 32.3445 18.1916 32.3279C18.1916 32.3197 18.1833 32.3032 18.1833 32.2949C18.1833 32.2866 18.1833 32.2701 18.175 32.2618C18.175 32.2453 18.1667 32.2288 18.1667 32.2205C18.1667 32.2123 18.1667 32.204 18.1584 32.1958C18.1501 32.1792 18.1501 32.1627 18.1418 32.1544C18.1418 32.1462 18.1334 32.1379 18.1334 32.1297C18.1251 32.1131 18.1251 32.1049 18.1168 32.0883C18.1085 32.0801 18.1085 32.0718 18.1085 32.0636C18.1002 32.0553 18.0919 32.0388 18.0919 32.0305C18.0836 32.0223 18.0836 32.014 18.0752 32.0057C18.0669 31.9975 18.0586 31.9809 18.0503 31.9727C18.042 31.9644 18.042 31.9562 18.0337 31.9479C18.0254 31.9396 18.017 31.9314 18.0087 31.9231C18.0004 31.9149 18.0004 31.9066 17.9921 31.9066C17.884 31.7579 17.7177 31.1796 17.6096 30.8326C17.4018 30.1138 17.2272 29.5024 16.878 29.1555C16.745 29.0233 16.562 28.9489 16.3791 28.9489H13.07C12.8788 28.9489 12.7042 29.0233 12.5712 29.1555C12.222 29.5024 12.0474 30.1138 11.8395 30.8326C11.7398 31.1796 11.5735 31.7579 11.4571 31.9066C11.4488 31.9149 11.4488 31.9231 11.4404 31.9231C11.4321 31.9314 11.4238 31.9396 11.4155 31.9479C11.4072 31.9562 11.4072 31.9644 11.3989 31.9727C11.3906 31.9809 11.3822 31.9975 11.3739 32.0057C11.3656 32.014 11.3656 32.0223 11.3573 32.0305C11.349 32.047 11.3407 32.0553 11.3407 32.0636C11.3324 32.0718 11.3324 32.0801 11.3324 32.0883C11.324 32.1049 11.3157 32.1131 11.3157 32.1297C11.3157 32.1379 11.3074 32.1462 11.3074 32.1462C11.2991 32.1627 11.2991 32.171 11.2908 32.1958C11.2908 32.204 11.2825 32.2123 11.2825 32.2205C11.2742 32.2371 11.2742 32.2536 11.2742 32.2701C11.2742 32.2784 11.2742 32.2866 11.2658 32.2949C11.2658 32.3114 11.2575 32.3197 11.2575 32.3362C11.2575 32.361 11.2492 32.3858 11.2492 32.4023V39.6974H10.3097V32.4023C10.3097 32.3775 10.3097 32.3527 10.3014 32.3362C10.3014 32.3197 10.3014 32.3114 10.2931 32.2949C10.2931 32.2866 10.2931 32.2784 10.2848 32.2701C10.2848 32.2536 10.2765 32.2371 10.2765 32.2205C10.2765 32.2123 10.2765 32.204 10.2681 32.1958C10.2598 32.1792 10.2598 32.1627 10.2515 32.1462C10.2515 32.1379 10.2432 32.1297 10.2432 32.1297C10.2349 32.1131 10.2349 32.1049 10.2266 32.0883C10.2266 32.0801 10.2183 32.0718 10.2183 32.0636C10.2099 32.0553 10.2016 32.0388 10.1933 32.0305C10.185 32.0223 10.185 32.014 10.1767 32.0057C10.1684 31.9975 10.1601 31.9809 10.1517 31.9727C10.1434 31.9644 10.1351 31.9562 10.1351 31.9479C10.1268 31.9396 10.1185 31.9314 10.1102 31.9231C10.1019 31.9149 10.1019 31.9066 10.0935 31.9066C9.98545 31.7579 9.81917 31.1796 9.71108 30.8326C9.50322 30.1221 9.32862 29.5024 8.97942 29.1555C8.84639 29.0233 8.66348 28.9489 8.48057 28.9489H5.18811C4.99688 28.9489 4.82228 29.0233 4.68925 29.1555C4.34837 29.5024 4.16545 30.1138 3.9576 30.8326C3.85783 31.1796 3.69154 31.7579 3.58345 31.9066C3.57514 31.9149 3.57514 31.9231 3.56683 31.9231C3.55851 31.9314 3.5502 31.9396 3.54188 31.9479C3.53357 31.9562 3.53357 31.9644 3.52525 31.9727C3.51694 31.9809 3.50863 31.9975 3.50031 32.0057C3.492 32.014 3.492 32.0223 3.48368 32.0305C3.47537 32.047 3.46705 32.0553 3.46705 32.0636C3.46705 32.0718 3.45874 32.0801 3.45874 32.0883C3.45043 32.1049 3.45043 32.1131 3.44211 32.1297C3.44211 32.1379 3.4338 32.1462 3.4338 32.1462C3.42548 32.1627 3.42548 32.171 3.41717 32.1958C3.41717 32.204 3.41717 32.2123 3.40885 32.2205C3.40885 32.2371 3.40054 32.2536 3.40054 32.2701C3.40054 32.2784 3.40054 32.2866 3.39223 32.2949C3.39223 32.3114 3.38391 32.3197 3.38391 32.3362C3.38391 32.361 3.38391 32.3858 3.38391 32.4023V39.6974H1.42174V26.2887H28.094ZM12.7125 24.8759V23.3392H16.8032V24.8759C16.8115 24.8759 12.7125 24.8759 12.7125 24.8759ZM16.8115 21.9265H12.7208V19.7289H16.8115V21.9265ZM15.5311 15.3667H13.9929V14.5819H15.5311V15.3667ZM12.7125 16.7795H16.8115V18.3161H12.7208V16.7795H12.7125ZM20.636 24.8759V23.3392H24.7267V24.8759H20.636ZM24.7267 21.9265H20.636V19.7289H24.7267V21.9265ZM23.4546 15.3667H21.9081V14.5819H23.4546V15.3667ZM20.636 16.7795H24.7267V18.3161H20.636V16.7795ZM8.88797 33.0963V34.1372H4.79734V33.0963H8.88797ZM4.79734 35.55H8.88797V36.9958H4.79734V35.55ZM4.79734 38.4085H8.88797V39.5652H4.79734C4.79734 39.5734 4.79734 38.4085 4.79734 38.4085ZM5.1798 31.6835C5.22968 31.5348 5.27125 31.3778 5.32114 31.2209C5.39597 30.973 5.50405 30.6012 5.59551 30.3617H8.09811C8.18957 30.6012 8.29765 30.973 8.37248 31.2209C8.42237 31.3778 8.46394 31.5348 8.51382 31.6835H5.1798ZM28.1023 41.1018V47.579H1.42174V41.1018H28.1023ZM16.8115 33.0963V34.1372H12.7208V33.0963H16.8115ZM12.7125 35.55H16.8032V36.9958H12.7125V35.55ZM12.7125 38.4085H16.8032V39.5652H12.7125V38.4085ZM13.095 31.6835C13.1449 31.5348 13.1864 31.3778 13.2363 31.2209C13.3112 30.973 13.4192 30.6012 13.5107 30.3617H16.0133C16.1131 30.6012 16.2128 30.973 16.2877 31.2209C16.3376 31.3861 16.3791 31.5431 16.429 31.6835H13.095ZM24.7267 33.0963V34.1372H20.636V33.0963H24.7267ZM20.636 35.55H24.7267V36.9958H20.636V35.55ZM20.636 38.4085H24.7267V39.5652H20.636V38.4085ZM21.0185 31.6835C21.0684 31.5348 21.11 31.3778 21.1598 31.2209C21.2347 30.973 21.3428 30.6012 21.4342 30.3617H23.9368C24.0366 30.6012 24.1364 30.973 24.2112 31.2209C24.2611 31.3778 24.3026 31.5348 24.3525 31.6835H21.0185ZM25.4084 7.95599C25.4084 4.3539 28.36 1.42101 31.9933 1.42101C35.6184 1.42101 38.5783 4.3539 38.5783 7.96426C38.5783 11.5746 35.6267 14.5075 31.9933 14.5075C31.137 14.5075 30.3055 14.3505 29.524 14.0283V11.4837C29.524 11.0954 29.2081 10.7815 28.8173 10.7815H26.057C25.6329 9.89749 25.4084 8.93087 25.4084 7.95599ZM1.42174 12.186H28.1023V24.8759H26.1484V16.5729C26.1484 15.9037 25.5997 15.3585 24.9262 15.3585H24.868V13.8714C24.868 13.4831 24.5521 13.1691 24.1613 13.1691H21.2014C20.8106 13.1691 20.4947 13.4831 20.4947 13.8714V15.3585H20.4365C19.763 15.3585 19.2143 15.9037 19.2143 16.5729V24.8759H18.2332V16.5729C18.2332 15.9037 17.6845 15.3585 17.011 15.3585H16.9528V13.8714C16.9528 13.4831 16.6369 13.1691 16.2461 13.1691H13.2779C12.8871 13.1691 12.5712 13.4831 12.5712 13.8714V15.3585H12.513C11.8395 15.3585 11.2908 15.9037 11.2908 16.5729V24.8759H10.3097V16.5729C10.3097 15.9037 9.76097 15.3585 9.08751 15.3585H9.02931V13.8714C9.02931 13.4831 8.71337 13.1691 8.32259 13.1691H5.36271C4.97194 13.1691 4.656 13.4831 4.656 13.8714V15.3585H4.5978C3.92434 15.3585 3.3756 15.9037 3.3756 16.5729V24.8759H1.42174V12.186Z" fill="black"/>
<path d="M32.3259 9.84792H30.3471C29.9564 9.84792 29.6404 10.1619 29.6404 10.5502C29.6404 10.9385 29.9564 11.2524 30.3471 11.2524H31.2783V11.7151C31.2783 12.1034 31.5943 12.4173 31.985 12.4173C32.3758 12.4173 32.6917 12.1034 32.6917 11.7151V11.2111C33.6229 11.0293 34.3297 10.2197 34.3297 9.23655C34.3297 8.12949 33.4234 7.22897 32.3093 7.22897H31.6525C31.3199 7.22897 31.0538 6.96459 31.0538 6.63413C31.0538 6.30366 31.3199 6.03929 31.6525 6.03929H33.6229C34.0137 6.03929 34.3297 5.72534 34.3297 5.33704C34.3297 4.94874 34.0137 4.6348 33.6229 4.6348H32.6917V4.17215C32.6917 3.78385 32.3758 3.4699 31.985 3.4699C31.5943 3.4699 31.2783 3.78385 31.2783 4.17215V4.67611C30.3471 4.85787 29.6404 5.66751 29.6404 6.65065C29.6404 7.75771 30.5467 8.65824 31.6608 8.65824H32.3176C32.6502 8.65824 32.9162 8.92261 32.9162 9.25308C32.9162 9.58354 32.6502 9.84792 32.3259 9.84792Z" fill="black"/>
</svg>
