<svg width="37" height="39" viewBox="0 0 37 39" fill="none" xmlns="http://www.w3.org/2000/svg">
<path d="M35.135 17.5584C35.087 17.0761 34.6907 16.7143 34.2105 16.7143H20.9313L20.331 10.1299C20.295 9.6475 19.8988 9.28571 19.4185 9.28571H16.645V5.57143C16.645 2.49629 14.1597 0 11.098 0C8.03635 0 5.55101 2.49629 5.55101 5.57143V9.28571H2.77752C2.29726 9.28571 1.90104 9.6475 1.85302 10.1299L0.00401878 30.5584C-0.0199942 30.8237 0.0640512 31.077 0.244148 31.2699C0.424246 31.4629 0.664375 31.5714 0.928518 31.5714H15.3843L14.808 37.987C14.784 38.2523 14.868 38.5056 15.0481 38.6985C15.2282 38.8915 15.4684 39 15.7325 39H36.0715C36.3356 39 36.5758 38.8915 36.7559 38.6985C36.936 38.5056 37.02 38.2523 36.996 37.987L35.135 17.5584ZM7.40001 5.57143C7.40001 3.52134 9.0569 1.85714 11.098 1.85714C13.1391 1.85714 14.796 3.52134 14.796 5.57143V9.28571H7.40001V5.57143ZM15.5524 29.7143H1.93706L3.61797 11.1429H5.55101V13.9286C5.55101 14.4471 5.95923 14.8571 6.47551 14.8571C6.99179 14.8571 7.40001 14.4471 7.40001 13.9286V11.1429H14.796V13.9286C14.796 14.4471 15.2042 14.8571 15.7205 14.8571C16.2368 14.8571 16.645 14.4471 16.645 13.9286V11.1429H18.578L19.0823 16.7143H17.5695C17.0892 16.7143 16.693 17.0761 16.645 17.5584L15.5524 29.7143ZM16.729 37.1429L18.41 18.5714H33.358L35.0389 37.1429H16.729Z" fill="black"/>
<path d="M30.5125 20.4286C30.0082 20.4286 29.588 20.8386 29.588 21.3571C29.588 23.4072 27.9311 25.0714 25.89 25.0714C23.8489 25.0714 22.192 23.4072 22.192 21.3571C22.192 20.8386 21.7718 20.4286 21.2675 20.4286C20.7512 20.4286 20.343 20.8386 20.343 21.3571C20.343 24.4323 22.8284 26.9286 25.89 26.9286C28.9517 26.9286 31.437 24.4323 31.437 21.3571C31.437 20.8386 31.0168 20.4286 30.5125 20.4286Z" fill="black"/>
</svg>
