<svg width="56" height="40" viewBox="0 0 56 40" fill="none" xmlns="http://www.w3.org/2000/svg">
<path d="M55.3613 5.25136L36.9863 0.033556C36.9688 0.0248597 36.9513 0.033556 36.9425 0.033556C36.8113 0.0161633 36.68 0.0248597 36.5488 0.033556C36.5312 0.033556 36.5138 0.033556 36.505 0.033556L19.2412 5.18179L1.11125 0.033556C0.6475 -0.096889 0.16625 0.164001 0.035 0.624907C0.00875 0.703174 0 0.790137 0 0.868404V33.9145C0 34.3058 0.2625 34.645 0.63875 34.7493L19.0138 39.9671C19.1712 40.0106 19.3463 40.0106 19.5037 39.9671L36.7587 34.8189L54.8887 39.9671C55.3525 40.0976 55.8338 39.828 55.9738 39.3671C55.9913 39.2975 56 39.2106 56 39.1323V6.08621C56 5.69487 55.7375 5.35571 55.3613 5.25136ZM35.875 17.6175L20.125 22.3136V6.72973L35.875 2.03371V17.6175ZM1.75 2.02502L18.375 6.74713V37.9844L1.75 33.2623V2.02502ZM20.125 24.1224L35.875 19.4264V33.2623L20.125 37.9583V24.1224ZM54.25 37.9757L37.625 33.2536V2.02502L54.25 6.74713V37.9757Z" fill="black"/>
<path d="M16.0037 11.3388L4.62875 7.86026C4.17375 7.72112 3.68375 7.98201 3.535 8.44291C3.50875 8.52118 3.5 8.60814 3.5 8.69511V19.1307C3.5 19.5134 3.75375 19.8525 4.12125 19.9656L15.4962 23.4441C15.96 23.5832 16.45 23.331 16.59 22.8701C16.6162 22.7832 16.625 22.6962 16.625 22.6092V12.1736C16.625 11.791 16.3713 11.4518 16.0037 11.3388ZM5.25 12.7911C5.3375 12.9128 5.43375 13.052 5.52125 13.1998C6.405 14.9391 8.53125 15.6435 10.2812 14.7652C10.325 14.7391 10.3687 14.7217 10.4125 14.6956C11.2612 14.1477 12.39 14.3912 12.9412 15.2261C13.0025 15.313 13.055 15.4087 13.09 15.513C13.475 16.2435 14.0962 16.8349 14.8575 17.1653V18.4959C14.77 18.3741 14.6825 18.235 14.5863 18.0872C13.7113 16.3479 11.5763 15.6435 9.82625 16.5131C9.7825 16.5392 9.73 16.5566 9.68625 16.5827C8.8375 17.1306 7.7 16.8871 7.14875 16.0435C7.0875 15.9565 7.035 15.8609 7 15.7565C6.6325 15.0434 6.01125 14.4608 5.25 14.1216V12.7911ZM14.875 12.8172V15.0347C14.7875 14.913 14.7 14.7738 14.6038 14.626C13.7288 12.8867 11.5938 12.1823 9.84375 13.052C9.8 13.0781 9.7475 13.0955 9.70375 13.1215C8.855 13.6694 7.7175 13.4259 7.16625 12.5824C7.105 12.4954 7.0525 12.3997 7.0175 12.2954C6.6325 11.5649 6.01125 10.9822 5.25 10.6431V9.86911L14.875 12.8172ZM5.25 18.4872V16.2696C5.3375 16.3914 5.43375 16.5305 5.52125 16.6783C6.405 18.4176 8.53125 19.122 10.2812 18.2437C10.325 18.2176 10.3687 18.2002 10.4125 18.1741C11.2612 17.6262 12.39 17.8697 12.9412 18.7046C13.0025 18.7916 13.055 18.8872 13.09 18.9916C13.475 19.7221 14.0962 20.3134 14.8575 20.6439V21.4178L5.25 18.4872Z" fill="black"/>
<path d="M15.155 26.1313L4.655 22.6527C4.2 22.5049 3.70125 22.7484 3.54375 23.2006C3.395 23.6528 3.64 24.1485 4.095 24.305L14.595 27.7836C15.05 27.9314 15.5488 27.6879 15.7063 27.2357C15.8638 26.7835 15.61 26.2878 15.155 26.1313Z" fill="black"/>
<path d="M15.155 30.4794L4.655 27.0009C4.2 26.8531 3.70125 27.0966 3.54375 27.5488C3.395 28.001 3.64 28.4967 4.095 28.6532L14.595 32.1317C15.05 32.2796 15.5488 32.0361 15.7063 31.5839C15.8638 31.1317 15.61 30.636 15.155 30.4794Z" fill="black"/>
<path d="M39.97 12.1302L50.47 15.6087C50.925 15.7565 51.4238 15.513 51.5812 15.0608C51.7388 14.6086 51.485 14.1129 51.03 13.9564L40.53 10.4779C40.075 10.33 39.5762 10.5735 39.4188 11.0257C39.2612 11.4779 39.515 11.9736 39.97 12.1302Z" fill="black"/>
<path d="M39.97 16.4783L50.47 19.9569C50.925 20.1047 51.4238 19.8612 51.5812 19.409C51.7388 18.9568 51.485 18.4611 51.03 18.3046L40.53 14.826C40.075 14.6782 39.5762 14.9217 39.4188 15.3739C39.2612 15.8261 39.515 16.3218 39.97 16.4783Z" fill="black"/>
<path d="M39.97 20.8265L50.47 24.305C50.925 24.4529 51.4237 24.2094 51.5812 23.7572C51.7387 23.305 51.485 22.8093 51.03 22.6527L40.53 19.1742C40.075 19.0264 39.5762 19.2699 39.4188 19.7221C39.27 20.183 39.515 20.67 39.97 20.8265Z" fill="black"/>
<path d="M39.97 25.1747L50.47 28.6532C50.925 28.801 51.4238 28.5575 51.5812 28.1053C51.7388 27.6531 51.485 27.1574 51.03 27.0009L40.53 23.5224C40.075 23.3745 39.5762 23.618 39.4188 24.0702C39.2612 24.5224 39.515 25.0181 39.97 25.1747Z" fill="black"/>
<path d="M21.4375 19.8873C21.8575 20.1221 22.3913 19.983 22.6275 19.5655L25.6637 14.2869L30.135 17.2523C30.5375 17.5219 31.08 17.4175 31.3513 17.0175C31.6225 16.6175 31.5175 16.0783 31.115 15.8087L31.1062 15.8L25.8562 12.3215C25.4537 12.0519 24.9112 12.1649 24.64 12.565C24.6313 12.5824 24.6225 12.5998 24.605 12.6172L21.105 18.7046C20.8775 19.1133 21.0175 19.6438 21.4375 19.8873Z" fill="black"/>
<path d="M29.2688 13.7651C29.6713 14.0347 30.2138 13.9216 30.485 13.5216L31.8675 11.4692L33.8625 12.1302C34.3175 12.278 34.8162 12.0345 34.9738 11.5823C35.1225 11.1301 34.8775 10.6344 34.4225 10.4779L31.7975 9.60822C31.4212 9.48647 31.01 9.62562 30.7912 9.94738L29.0412 12.5563C28.7525 12.9563 28.8663 13.4955 29.2688 13.7651C29.26 13.7651 29.26 13.7651 29.2688 13.7651Z" fill="black"/>
<path d="M27.125 11.304C28.5775 11.304 29.75 10.1387 29.75 8.69511C29.75 7.25152 28.5775 6.08621 27.125 6.08621C25.6725 6.08621 24.5 7.25152 24.5 8.69511C24.5 10.1387 25.6725 11.304 27.125 11.304ZM27.125 7.82547C27.6063 7.82547 28 8.21681 28 8.69511C28 9.17341 27.6063 9.56474 27.125 9.56474C26.6437 9.56474 26.25 9.17341 26.25 8.69511C26.25 8.21681 26.6437 7.82547 27.125 7.82547Z" fill="black"/>
<path d="M32.97 22.6527L22.47 26.1313C22.015 26.2791 21.7612 26.7748 21.9187 27.2357C22.0763 27.6966 22.5662 27.9401 23.03 27.7836L33.53 24.305C33.985 24.1572 34.2388 23.6615 34.0812 23.2006C33.9238 22.7397 33.4338 22.5049 32.97 22.6527Z" fill="black"/>
<path d="M32.97 27.0009L22.47 30.4794C22.015 30.6273 21.7612 31.123 21.9187 31.5839C22.0763 32.0448 22.5662 32.2883 23.03 32.1317L33.53 28.6532C33.985 28.5054 34.2388 28.0097 34.0812 27.5488C33.9238 27.0879 33.4338 26.8531 32.97 27.0009Z" fill="black"/>
</svg>
