<svg width="110" height="110" viewBox="0 0 110 110" fill="none" xmlns="http://www.w3.org/2000/svg">
<circle cx="55" cy="55" r="55" fill="#FF0054"/>
<path d="M31.72 59.79H48.94C49.34 59.79 49.66 59.47 49.66 59.07V44.72C49.66 44.32 49.34 44 48.94 44H31.72C31.32 44 31 44.32 31 44.72V59.07C31 59.47 31.32 59.79 31.72 59.79ZM32.44 55.81L36.71 52.15L41.98 57.42L42.99 56.41L42.06 55.48L44.63 52.91L48.22 56.5V58.36H32.44V55.81ZM48.22 54.47L45.14 51.39C44.86 51.11 44.41 51.11 44.13 51.39L41.05 54.47L37.25 50.67C36.98 50.41 36.56 50.39 36.28 50.63L32.44 53.92V45.43H48.22V54.47Z" fill="white"/>
<path d="M40.33 51.18C41.52 51.18 42.48 50.22 42.48 49.03C42.48 47.84 41.52 46.88 40.33 46.88C39.14 46.88 38.18 47.84 38.18 49.03C38.18 50.21 39.14 51.18 40.33 51.18ZM40.33 48.31C40.73 48.31 41.05 48.63 41.05 49.03C41.05 49.43 40.73 49.75 40.33 49.75C39.93 49.75 39.61 49.43 39.61 49.03C39.61 48.63 39.93 48.31 40.33 48.31Z" fill="white"/>
<path d="M36.03 46.87H34.59V48.31H36.03V46.87Z" fill="white"/>
<path d="M46.08 48.31H44.64V49.75H46.08V48.31Z" fill="white"/>
<path d="M73 81H58.5V69H60.5C61.6 69 62.5 68.1 62.5 67V65H60.5V67H49.5V65H47.5V67C47.5 68.1 48.4 69 49.5 69H51.5V81H37C36.45 81 36 81.45 36 82C36 82.55 36.45 83 37 83H73C73.55 83 74 82.55 74 82C74 81.45 73.55 81 73 81ZM53.5 69H56.5V81H53.5V69Z" fill="white"/>
<path d="M33.5 35C33.5 35.55 33.95 36 34.5 36H39.5C40.05 36 40.5 35.55 40.5 35C40.5 34.45 40.05 34 39.5 34H38V28C38 27.45 37.55 27 37 27C36.45 27 36 27.45 36 28V34H34.5C33.95 34 33.5 34.45 33.5 35Z" fill="white"/>
<path d="M32 41.88C32.32 41.88 32.63 41.72 32.82 41.46L34.16 39.58C34.48 39.13 34.38 38.51 33.93 38.19C33.48 37.87 32.86 37.97 32.54 38.42L31.19 40.3C30.87 40.75 30.97 41.37 31.42 41.69C31.59 41.82 31.79 41.88 32 41.88Z" fill="white"/>
<path d="M42 42C42.55 42 43 41.55 43 41C43 40.79 42.94 40.59 42.81 40.42L41.47 38.54C41.15 38.09 40.53 37.99 40.08 38.31C39.63 38.63 39.53 39.25 39.85 39.7L41.19 41.58C41.37 41.84 41.68 42 42 42Z" fill="white"/>
<path d="M38 41V39C38 38.45 37.55 38 37 38C36.45 38 36 38.45 36 39V41C36 41.55 36.45 42 37 42C37.55 42 38 41.55 38 41Z" fill="white"/>
<path d="M70 31H40V33H70V31Z" fill="white"/>
<path d="M84 31H76V33H84C84.55 33 85 33.45 85 34V62C85 62.55 84.55 63 84 63H26C25.45 63 25 62.55 25 62V34C25 33.45 25.45 33 26 33H34V31H26C24.34 31 23 32.34 23 34V62C23 63.66 24.34 65 26 65H84C85.66 65 87 63.66 87 62V34C87 32.34 85.66 31 84 31Z" fill="white"/>
<path d="M69.5 35C69.5 35.55 69.95 36 70.5 36H75.5C76.05 36 76.5 35.55 76.5 35C76.5 34.45 76.05 34 75.5 34H74V28C74 27.45 73.55 27 73 27C72.45 27 72 27.45 72 28V34H70.5C69.95 34 69.5 34.45 69.5 35Z" fill="white"/>
<path d="M68 41.88C68.32 41.88 68.62 41.73 68.82 41.47L70.16 39.59C70.48 39.14 70.38 38.52 69.93 38.2C69.48 37.88 68.86 37.98 68.54 38.43L67.2 40.31C66.88 40.76 66.98 41.38 67.43 41.7C67.59 41.82 67.79 41.88 68 41.88Z" fill="white"/>
<path d="M77.47 38.54C77.15 38.09 76.53 37.99 76.08 38.31C75.63 38.63 75.53 39.25 75.85 39.7L77.19 41.58C77.51 42.03 78.13 42.13 78.58 41.81C79.03 41.49 79.13 40.87 78.81 40.42L77.47 38.54Z" fill="white"/>
<path d="M74 41V39C74 38.45 73.55 38 73 38C72.45 38 72 38.45 72 39V41C72 41.55 72.45 42 73 42C73.55 42 74 41.55 74 41Z" fill="white"/>
<path d="M80.5 52.5C80.5 51.95 80.05 51.5 79.5 51.5H62.5C61.95 51.5 61.5 51.95 61.5 52.5C61.5 53.05 61.95 53.5 62.5 53.5H79.5C80.05 53.5 80.5 53.05 80.5 52.5Z" fill="white"/>
<path d="M68 55.5C67.45 55.5 67 55.95 67 56.5C67 57.05 67.45 57.5 68 57.5H79C79.55 57.5 80 57.05 80 56.5C80 55.95 79.55 55.5 79 55.5H68Z" fill="white"/>
</svg>
