<svg width="110" height="110" viewBox="0 0 110 110" fill="none" xmlns="http://www.w3.org/2000/svg">
<circle cx="55" cy="55" r="55" fill="#FF0054"/>
<path d="M77.6382 28H36.1125C31.5064 28 27.7507 32.8247 27.7507 38.7296C27.7507 43.9864 30.7269 48.3791 34.6244 49.3152L23.0737 79.4878C22.932 79.8478 23.0029 80.2079 23.2155 80.4959C23.428 80.784 23.7115 81 24.0658 81H68.8512C69.2763 81 69.6307 80.712 69.8433 80.3519L84.5827 44.9226C85.4331 43.1223 86 41.034 86 38.7296C86 32.8247 82.2443 28 77.6382 28ZM29.9474 38.7296C29.9474 33.9769 32.7111 30.1603 36.1834 30.1603H72.7486C70.6936 32.1046 69.4181 35.2731 69.4181 38.7296C69.4181 42.1861 70.7645 45.3546 72.7486 47.2989H36.1125C32.7111 47.2989 29.9474 43.4823 29.9474 38.7296ZM62.5444 49.8913L56.1667 68.5421H40.01L46.3876 49.8913H62.5444ZM68.0717 78.7677H25.5539L36.892 49.4592H44.2617L37.5298 69.2622C37.388 69.6223 37.4589 69.9823 37.6715 70.2704C37.8841 70.5584 38.1675 70.7024 38.5218 70.7024H56.9462C57.3714 70.7024 57.7966 70.4144 57.9383 69.9823L64.9537 49.4592H77.709C78.7011 49.4592 79.6932 49.2432 80.6144 48.8111L68.0717 78.7677ZM82.6694 43.8424C82.5986 43.9144 82.5986 43.9864 82.5277 44.0584C81.3939 46.0027 79.6223 47.2989 77.6382 47.2989C74.2368 47.2989 71.4022 43.4103 71.4022 38.7296C71.4022 34.0489 74.1659 30.1603 77.6382 30.1603C81.1105 30.1603 83.8741 33.9769 83.8741 38.7296C83.8741 40.6019 83.4489 42.4022 82.6694 43.8424Z" fill="white"/>
<path d="M47.0262 43.6984C47.0262 44.2744 47.5222 44.7785 48.0891 44.7785H57.6556C58.2225 44.7785 58.7186 44.2744 58.7186 43.6984C58.7186 43.1223 58.2225 42.6182 57.6556 42.6182H48.0891C47.5222 42.6182 47.0262 43.1223 47.0262 43.6984Z" fill="white"/>
<path d="M48.6561 53.4198H58.2226C58.7895 53.4198 59.2855 52.9158 59.2855 52.3397C59.2855 51.7636 58.7895 51.2595 58.2226 51.2595H48.6561C48.0892 51.2595 47.5931 51.7636 47.5931 52.3397C47.5931 52.9158 48.0892 53.4198 48.6561 53.4198Z" fill="white"/>
<path d="M47.3805 57.3804H56.947C57.5139 57.3804 58.0099 56.8763 58.0099 56.3003C58.0099 55.7242 57.5848 55.2201 56.947 55.2201H47.3805C46.8136 55.2201 46.3176 55.7242 46.3176 56.3003C46.3176 56.8763 46.8136 57.3804 47.3805 57.3804Z" fill="white"/>
<path d="M46.1759 38.8016C45.609 38.8016 45.1129 39.3057 45.1129 39.8818C45.1129 40.4579 45.609 40.962 46.1759 40.962H55.7424C56.3093 40.962 56.8053 40.4579 56.8053 39.8818C56.8053 39.3057 56.3093 38.8016 55.7424 38.8016H46.1759Z" fill="white"/>
<path d="M54.4668 64.5815L55.8841 60.4049H46.1759L44.7586 64.5815H54.4668Z" fill="white"/>
<path d="M54.2543 36.4973C54.2543 36.4973 53.9 34.697 54.2543 33.6889C54.6086 32.6807 55.6716 31.6005 55.6716 31.6005H45.9633C45.9633 31.6005 44.9004 32.6087 44.5461 33.6889C44.1918 34.769 44.5461 36.4973 44.5461 36.4973H54.2543Z" fill="white"/>
</svg>
