<svg width="110" height="110" viewBox="0 0 110 110" fill="none" xmlns="http://www.w3.org/2000/svg">
<circle cx="55" cy="55" r="55" fill="#FF0054"/>
<path d="M84 27H26C24.34 27 23 28.34 23 30V44C23 45.66 24.34 47 26 47H31V73H29C27.34 73 26 74.34 26 76V77.78C24.77 78.89 24.67 80.78 25.78 82.01C26.89 83.24 28.78 83.34 30.01 82.23C30.64 81.66 31 80.85 31 80C31 79.66 30.93 79.32 30.82 79H37.19C37.07 79.32 37 79.66 37 80C36.99 81.66 38.33 83.01 39.98 83.02C41.64 83.03 42.99 81.69 43 80.04C43 79.18 42.64 78.36 42 77.79V76C42 74.34 40.66 73 39 73H37V64H48C48.55 64 49 63.55 49 63C49 62.45 48.55 62 48 62H37V60H48C48.55 60 49 59.55 49 59C49 58.45 48.55 58 48 58H37V47H84C85.66 47 87 45.66 87 44V30C87 28.34 85.66 27 84 27ZM85 30V36H67V34C67 33.45 66.55 33 66 33H56C55.45 33 55 33.45 55 34V36H37V30C37 29.66 36.93 29.32 36.82 29H84C84.55 29 85 29.45 85 30ZM57 35H65V39H57V35ZM25 44V30C25 29.45 25.45 29 26 29H34C34.55 29 35 29.45 35 30V44C35 44.55 34.55 45 34 45H26C25.45 45 25 44.55 25 44ZM29 80C29 80.55 28.55 81 28 81C27.45 81 27 80.55 27 80C27 79.45 27.45 79 28 79C28.55 79 29 79.45 29 80ZM40 81C39.45 81 39 80.55 39 80C39 79.45 39.45 79 40 79C40.55 79 41 79.45 41 80C41 80.55 40.55 81 40 81ZM40 76V77H28V76C28 75.45 28.45 75 29 75H39C39.55 75 40 75.45 40 76ZM35 73H33V47H35V73ZM84 45H36.82C36.94 44.68 37 44.34 37 44V38H55V40C55 40.55 55.45 41 56 41H66C66.55 41 67 40.55 67 40V38H85V44C85 44.55 84.55 45 84 45Z" fill="white"/>
<path d="M33 42V32C33 31.45 32.55 31 32 31H28C27.45 31 27 31.45 27 32V42C27 42.55 27.45 43 28 43H32C32.55 43 33 42.55 33 42ZM31 41H29V33H31V41Z" fill="white"/>
<path d="M77 73C77.55 73 78 72.55 78 72V53C78.12 50.91 76.53 49.12 74.44 49C74.29 48.99 74.15 48.99 74 49C73.45 49 73 49.45 73 50C73 50.55 73.45 51 74 51C75.01 50.9 75.9 51.64 76 52.65C76.01 52.77 76.01 52.88 76 53V72C76 72.55 76.45 73 77 73Z" fill="white"/>
<path d="M80 75H57C56.45 75 56 75.45 56 76V79C56.1 80.01 55.36 80.9 54.35 81C54.23 81.01 54.12 81.01 54 81C52.99 81.1 52.1 80.36 52 79.35C51.99 79.23 51.99 79.12 52 79V53C52.12 50.91 50.53 49.12 48.44 49C48.29 48.99 48.15 48.99 48 49C47.45 49 47 49.45 47 50C47 50.55 47.45 51 48 51C49.01 50.9 49.9 51.64 50 52.65C50.01 52.77 50.01 52.88 50 53V79C49.88 81.09 51.47 82.88 53.56 83C53.71 83.01 53.85 83.01 54 83H77C79.09 83.12 80.88 81.53 81 79.44C81.01 79.29 81.01 79.15 81 79V76C81 75.45 80.55 75 80 75ZM79 79C79.1 80.01 78.36 80.9 77.35 81C77.23 81.01 77.12 81.01 77 81H57.55C57.86 80.38 58.01 79.69 58 79V77H79V79Z" fill="white"/>
<path d="M72 70C72.55 70 73 69.55 73 69V55C73 54.45 72.55 54 72 54H56C55.45 54 55 54.45 55 55V69C55 69.55 55.45 70 56 70H72ZM66 68H58L62 62.67L66 68ZM68.5 68L67.18 66.24L69 64.41L71 66.41V68H68.5ZM66 56H71V63.59L69.71 62.3C69.32 61.91 68.69 61.91 68.3 62.3L65.97 64.63L62.8 60.4C62.44 59.96 61.78 59.89 61.34 60.26C61.29 60.3 61.24 60.35 61.2 60.4L57 66V56H66Z" fill="white"/>
<path d="M63 59C63 60.66 64.34 62 66 62C67.66 62 69 60.66 69 59C69 57.34 67.66 56 66 56C64.34 56 63 57.34 63 59ZM66 58C66.55 58 67 58.45 67 59C67 59.55 66.55 60 66 60C65.45 60 65 59.55 65 59C65 58.45 65.45 58 66 58Z" fill="white"/>
</svg>
