<svg width="28" height="40" viewBox="0 0 28 40" fill="none" xmlns="http://www.w3.org/2000/svg">
<path d="M4.42478 12.7332H9.64855C10.129 12.7332 10.5183 12.3449 10.5183 11.8659C10.5183 11.3868 10.129 10.9985 9.64855 10.9985H4.42478C3.94437 10.9985 3.55499 11.3868 3.55499 11.8659C3.55499 12.3449 3.94437 12.7332 4.42478 12.7332Z" fill="black"/>
<path d="M12.9962 14.473C12.9962 13.9939 12.6068 13.6056 12.1264 13.6056H4.42478C3.94437 13.6056 3.55499 13.9939 3.55499 14.473C3.55499 14.9521 3.94437 15.3404 4.42478 15.3404H12.1264C12.6068 15.3404 12.9962 14.9521 12.9962 14.473Z" fill="black"/>
<path d="M27.0493 4.27131H24.7585V3.32829C24.7585 2.9299 24.4349 2.60716 24.0354 2.60716H23.115V0.907715C23.115 0.408472 22.7054 0 22.2048 0C21.7042 0 21.2946 0.408472 21.2946 0.907715V2.60716H20.3742C19.9747 2.60716 19.6511 2.9299 19.6511 3.32829V4.27131H8.34387V3.32829C8.34387 2.9299 8.02023 2.60716 7.62073 2.60716H6.70038V0.907715C6.70038 0.408472 6.29077 0 5.79014 0C5.28951 0 4.8799 0.408472 4.8799 0.907715V2.60716H3.95955C3.56005 2.60716 3.23641 2.9299 3.23641 3.32829V4.27131H0.945638C0.424779 4.27131 0 4.69491 0 5.21432V39.057C0 39.5814 0.424779 40 0.945638 40H27.0544C27.5752 40 28 39.5764 28 39.057V5.21432C28 4.69491 27.5752 4.27131 27.0493 4.27131ZM23.3072 4.04942V6.25315H21.0973V4.04942H23.3072ZM6.89254 4.04942V6.25315H4.68268V4.04942H6.89254ZM26.1037 38.114H1.89128V6.15734H3.23641V6.97428C3.23641 7.37267 3.56005 7.69541 3.95955 7.69541H7.61568C8.01517 7.69541 8.33881 7.37267 8.33881 6.97428V6.15734H19.641V6.97428C19.641 7.37267 19.9646 7.69541 20.3641 7.69541H24.0202C24.4197 7.69541 24.7434 7.37267 24.7434 6.97428V6.15734H26.0885V38.114H26.1037Z" fill="black"/>
<path d="M22.9583 33.8981H17.6334C17.153 33.8981 16.7636 34.2864 16.7636 34.7655C16.7636 35.2446 17.153 35.6329 17.6334 35.6329H22.9583C23.4387 35.6329 23.8281 35.2446 23.8281 34.7655C23.8281 34.2864 23.4387 33.8981 22.9583 33.8981Z" fill="black"/>
<path d="M22.5891 30.7262C22.7611 30.469 22.7914 30.1412 22.67 29.8588L17.3856 17.292C17.2389 16.9491 16.9052 16.7272 16.531 16.7272C16.1568 16.7272 15.823 16.9491 15.6764 17.292L13.0367 23.5804L12.0961 21.4624C11.9595 21.1498 11.6561 20.943 11.3173 20.9178C10.9735 20.8926 10.6498 21.059 10.4678 21.3464L5.18331 29.7226C5.00632 30.005 4.99115 30.3681 5.15803 30.6606C5.31985 30.9531 5.63338 31.1397 5.96713 31.1397H21.8205C22.129 31.1346 22.4172 30.9834 22.5891 30.7262ZM11.1049 23.7922L12.0506 25.9153L10.6346 29.289H7.64096L11.1049 23.7922ZM12.6422 29.289L16.536 20.0353L20.4298 29.289H12.6422Z" fill="black"/>
</svg>
