<svg width="56" height="42" viewBox="0 0 56 42" fill="none" xmlns="http://www.w3.org/2000/svg">
<path d="M24.678 11.4545H22.7797V36.2727H24.678V11.4545Z" fill="black"/>
<path d="M44.6102 27.6818H28.4746V29.5909H44.6102V27.6818Z" fill="black"/>
<path d="M44.6102 32.4545H28.4746V34.3636H44.6102V32.4545Z" fill="black"/>
<path d="M55.0508 0H6.64407C6.12203 0 5.69492 0.429545 5.69492 0.954545V5.72727H0.949153C0.427119 5.72727 0 6.15682 0 6.68182V41.0455C0 41.5705 0.427119 42 0.949153 42H49.3559C49.878 42 50.3051 41.5705 50.3051 41.0455V36.2727H55.0508C55.5729 36.2727 56 35.8432 56 35.3182V0.954545C56 0.429545 55.5729 0 55.0508 0ZM48.4068 40.0909H1.89831V7.63636H48.4068V40.0909ZM54.1017 34.3636H50.3051V6.68182C50.3051 6.15682 49.878 5.72727 49.3559 5.72727H7.59322V1.90909H54.1017V34.3636Z" fill="black"/>
<path d="M9.49153 15.2727H5.69492V17.1818H9.49153V15.2727Z" fill="black"/>
<path d="M18.9831 15.2727H11.3898V17.1818H18.9831V15.2727Z" fill="black"/>
<path d="M13.2881 20.0455H5.69492V21.9545H13.2881V20.0455Z" fill="black"/>
<path d="M18.9831 20.0455H15.1864V21.9545H18.9831V20.0455Z" fill="black"/>
<path d="M18.9831 24.8182H5.69492V26.7273H18.9831V24.8182Z" fill="black"/>
<path d="M13.2881 29.5909H5.69492V31.5H13.2881V29.5909Z" fill="black"/>
<path d="M18.9831 29.5909H15.1864V31.5H18.9831V29.5909Z" fill="black"/>
<path d="M31.9959 19.005C30.838 17.85 28.9586 17.85 27.8007 19.005L29.1485 20.3605C29.5661 19.9595 30.2305 19.9595 30.6481 20.3605C31.3315 21.0191 32.2902 21.315 33.2203 21.1623V23.8636C33.2203 24.3886 33.6475 24.8182 34.1695 24.8182H43.661C44.1831 24.8182 44.6102 24.3886 44.6102 23.8636V12.4091C44.6102 11.8841 44.1831 11.4545 43.661 11.4545H34.1695C33.6475 11.4545 33.2203 11.8841 33.2203 12.4091V15.3682C32.8122 15.5782 32.3281 15.5018 31.9959 15.1868C30.838 14.0318 28.9586 14.0318 27.8007 15.1868L29.1485 16.5423C29.5661 16.1414 30.2305 16.1414 30.6481 16.5423C31.3315 17.2009 32.2902 17.4968 33.2203 17.3441V19.1864C32.8122 19.3964 32.3281 19.32 31.9959 19.005ZM42.7119 13.3636V22.9091H35.1186V20.1791C35.5268 19.9691 36.0108 20.0455 36.3431 20.3605C37.501 21.5155 39.3803 21.5155 40.5383 20.3605L39.1905 19.005C38.7729 19.4155 38.1085 19.4155 37.6908 19.005C37.0075 18.3368 36.0583 18.0314 35.1186 18.1841V16.3609C35.5268 16.1509 36.0108 16.2273 36.3431 16.5423C37.501 17.6973 39.3803 17.6973 40.5383 16.5423L39.1905 15.1868C38.7729 15.5973 38.1085 15.5973 37.6908 15.1868C37.0075 14.5186 36.0583 14.2132 35.1186 14.3659V13.3636H42.7119Z" fill="black"/>
</svg>
