<svg width="110" height="110" viewBox="0 0 110 110" fill="none" xmlns="http://www.w3.org/2000/svg">
<circle cx="55" cy="55" r="55" fill="#FF0054"/>
<path d="M80.28 23C78.55 23 77.01 23.77 75.96 24.98C75.64 24.84 32.3 24.87 32.04 24.98C30.99 23.77 29.44 23 27.72 23C24.57 23 22 25.57 22 28.72V81.53C22 82.08 22.45 82.53 23 82.53C60.52 82.53 45.3 82.53 85 82.53C85.55 82.53 86 82.08 86 81.53V28.72C86 25.57 83.43 23 80.28 23ZM71.62 42.05H74.57V49.31L71.62 42.05ZM33.44 40.05V36.8H74.57V40.05H33.44ZM37.71 71.7C36.17 71.7 34.7 71.25 33.44 70.39V67H38.69C40.56 67 42.08 65.48 42.08 63.6C42.08 61.72 40.56 60.2 38.69 60.2H33.44V57.76C34.7 56.89 36.16 56.44 37.71 56.44C41.92 56.44 45.34 59.86 45.34 64.07C45.34 68.29 41.92 71.7 37.71 71.7ZM33.44 62.21H38.69C39.45 62.21 40.08 62.84 40.08 63.61C40.08 64.38 39.46 65.01 38.69 65.01H33.44V62.21ZM37.71 54.45C36.2 54.45 34.75 54.8 33.44 55.46V42.05H35.43L41.01 55.05C39.98 54.67 38.87 54.45 37.71 54.45ZM33.44 72.7C34.76 73.36 36.2 73.71 37.71 73.71H70.85C72.14 73.71 73.34 73.46 74.56 72.9V75.97H33.44V72.7ZM74.96 70.37C73.74 71.29 72.34 71.7 70.85 71.7H43.56C45.85 69.94 47.34 67.18 47.34 64.08C47.34 61.13 46 58.49 43.91 56.72L37.61 42.04H69.46C70.27 44.03 66.53 34.82 77.38 61.54C79.58 66.94 75.03 70.27 74.96 70.37ZM33.44 26.9H74.57V34.8H33.44V26.9ZM24 28.72C24 26.67 25.67 25 27.72 25C29.77 25 31.44 26.67 31.44 28.72C31.44 39.35 31.44 68.4 31.44 80.53H24V28.72ZM33.44 77.96H74.57V80.53H33.44V77.96ZM84 80.53H76.56C76.56 80.31 76.56 71.39 76.56 71.65C79.65 69.07 80.78 64.59 79.23 60.79L76.56 54.23C76.56 44.81 76.56 37.92 76.56 28.72C76.56 26.67 78.23 25 80.28 25C82.33 25 84 26.67 84 28.72V80.53Z" fill="white"/>
<path d="M36.44 33.57H52.41C52.96 33.57 53.41 33.12 53.41 32.57V29.13C53.41 28.58 52.96 28.13 52.41 28.13H36.44C35.89 28.13 35.44 28.58 35.44 29.13V32.56C35.44 33.12 35.89 33.57 36.44 33.57ZM37.44 30.13H51.41V31.56H37.44V30.13Z" fill="white"/>
<path d="M59.35 29.85H55.33V31.85H59.35V29.85Z" fill="white"/>
<path d="M66.1 29.85H62.08V31.85H66.1V29.85Z" fill="white"/>
<path d="M72.85 29.85H68.82V31.85H72.85V29.85Z" fill="white"/>
</svg>
