<svg width="56" height="45" viewBox="0 0 56 45" fill="none" xmlns="http://www.w3.org/2000/svg">
<path d="M28.0783 18.1686L27.209 17.3023V16.077C27.209 15.0078 26.3396 14.1415 25.2666 14.1415H24.0369L23.1676 13.2752C22.4078 12.5182 21.1782 12.5182 20.4185 13.2752L19.5491 14.1415H18.3194C17.2464 14.1415 16.3771 15.0078 16.3771 16.077V17.3023L15.5077 18.1686C14.748 18.9256 14.748 20.1509 15.5077 20.9079L16.3771 21.7742V22.9995C16.3771 24.0687 17.2464 24.935 18.3194 24.935H19.5491L20.4185 25.8012C21.1782 26.5583 22.4078 26.5583 23.1676 25.8012L24.0369 24.935H25.2666C26.3396 24.935 27.209 24.0687 27.209 22.9995V21.7742L28.0783 20.9079C28.838 20.1509 28.838 18.9178 28.0783 18.1686ZM27.5301 20.3538L26.5432 21.3371C26.4727 21.4074 26.4257 21.5088 26.4257 21.6103V22.9995C26.4257 23.6394 25.901 24.1623 25.2587 24.1623H23.8646C23.7628 24.1623 23.661 24.2013 23.5905 24.2794L22.6036 25.2627C22.1494 25.7154 21.4131 25.7154 20.951 25.2627L19.9642 24.2794C19.8937 24.2091 19.7919 24.1623 19.6901 24.1623H18.2959C17.6537 24.1623 17.129 23.6394 17.129 22.9995V21.6103C17.129 21.5088 17.0898 21.4074 17.0115 21.3371L16.0246 20.3538C15.5703 19.9011 15.5703 19.1675 16.0246 18.7071L17.0115 17.7237C17.082 17.6535 17.129 17.552 17.129 17.4506V16.0614C17.129 15.4214 17.6537 14.8985 18.2959 14.8985H19.6901C19.7919 14.8985 19.8937 14.8595 19.9642 14.7815L20.951 13.7981C21.4053 13.3455 22.1415 13.3455 22.6036 13.7981L23.5905 14.7815C23.661 14.8517 23.7628 14.8985 23.8646 14.8985H25.2587C25.901 14.8985 26.4257 15.4214 26.4257 16.0614V17.4506C26.4257 17.552 26.4649 17.6535 26.5432 17.7237L27.5301 18.7071C27.9843 19.1675 27.9843 19.9011 27.5301 20.3538C27.5222 20.3538 27.5222 20.3538 27.5301 20.3538ZM24.1466 17.7315L19.972 21.8912C19.8154 22.0395 19.5726 22.0395 19.4238 21.8834C19.275 21.7352 19.275 21.4932 19.4238 21.3449L23.5983 17.1852C23.755 17.0369 23.9978 17.0369 24.1466 17.193C24.2875 17.3413 24.2875 17.5754 24.1466 17.7315ZM20.2227 19.0114C20.7866 19.0114 21.2487 18.551 21.2487 17.9891C21.2487 17.4271 20.7866 16.9667 20.2227 16.9667C19.6587 16.9667 19.1966 17.4271 19.1966 17.9891C19.1966 18.551 19.6587 19.0036 20.2227 19.0114ZM20.2227 17.7393C20.3636 17.7393 20.4733 17.8486 20.4733 17.9891C20.4733 18.1295 20.3636 18.2388 20.2227 18.2388C20.0817 18.2388 19.972 18.1295 19.972 17.9891C19.9799 17.8486 20.0895 17.7393 20.2227 17.7393ZM23.3399 20.065C22.7759 20.065 22.3138 20.5255 22.3138 21.0874C22.3138 21.6493 22.7759 22.1098 23.3399 22.1098C23.9038 22.1098 24.3659 21.6493 24.3659 21.0874C24.3659 20.5177 23.9038 20.065 23.3399 20.065ZM23.3399 21.3293C23.1989 21.3293 23.0892 21.2201 23.0892 21.0796C23.0892 20.9391 23.1989 20.8299 23.3399 20.8299C23.4808 20.8299 23.5905 20.9391 23.5905 21.0796C23.5827 21.2201 23.473 21.3293 23.3399 21.3293Z" fill="black"/>
<path d="M21.7813 26.5973C21.2017 26.5973 20.6613 26.371 20.2462 25.9651L19.4394 25.1613H18.2959C17.1055 25.1613 16.1343 24.1935 16.1264 22.9995V21.86L15.3197 21.0562C14.9124 20.6504 14.6853 20.104 14.6853 19.5265C14.6853 18.949 14.9124 18.4105 15.3197 17.9969L16.1264 17.193V16.0536C16.1264 14.8673 17.0976 13.8996 18.2959 13.8918H19.4394L20.2462 13.0879C21.0607 12.2763 22.494 12.2685 23.3085 13.0879L24.1152 13.8918H25.2587C26.4492 13.8918 27.4204 14.8595 27.4283 16.0536V17.193L28.235 17.9969C28.6422 18.4027 28.8694 18.949 28.8694 19.5265C28.8694 20.104 28.6422 20.6426 28.235 21.0562L27.4283 21.86V22.9995C27.4283 24.1857 26.4571 25.1535 25.2587 25.1613H24.1231L23.3164 25.9651C22.9013 26.371 22.3608 26.5973 21.7813 26.5973ZM18.3038 14.3522C17.3561 14.3522 16.5807 15.1249 16.5807 16.0692V17.3881L15.6408 18.3247C15.3119 18.6524 15.1396 19.0817 15.1396 19.5421C15.1396 20.0026 15.3197 20.4318 15.6408 20.7596L16.5807 21.6961V23.0151C16.5807 23.9594 17.3561 24.732 18.3038 24.732H19.6274L20.5673 25.6686C21.2173 26.3163 22.353 26.3163 23.0031 25.6686L23.9429 24.732H25.2666C26.2143 24.732 26.9896 23.9594 26.9896 23.0151V21.6961L27.9295 20.7596C28.2585 20.4318 28.4308 20.0026 28.4308 19.5499C28.4308 19.1129 28.2663 18.6993 27.9687 18.3793L26.9896 17.4037V16.0848C26.9896 15.1405 26.2143 14.3678 25.2666 14.3678H23.9429L23.0031 13.4391C22.353 12.7914 21.2173 12.7914 20.5673 13.4391L19.6274 14.3756H18.3038V14.3522ZM21.7813 25.8247C21.4131 25.8247 21.0607 25.6842 20.8022 25.4188L19.8154 24.4355C19.7841 24.4043 19.7449 24.3886 19.6979 24.3886H18.3038C17.5362 24.3886 16.9175 23.7643 16.9175 23.0073V21.6181C16.9175 21.5713 16.9018 21.5322 16.8705 21.501L15.8836 20.5177C15.6252 20.2601 15.4764 19.9089 15.4764 19.5421C15.4764 19.1753 15.6173 18.8241 15.8836 18.5666L16.8705 17.5832C16.9018 17.552 16.9175 17.5052 16.9175 17.4662V16.077C16.9175 15.3122 17.5441 14.6956 18.3038 14.6956H19.6979C19.7449 14.6956 19.7841 14.68 19.8154 14.6488L20.8022 13.6654C21.327 13.1426 22.2434 13.1426 22.7681 13.6654L23.755 14.6488C23.7863 14.68 23.8255 14.6956 23.8724 14.6956H25.2666C26.0341 14.6956 26.6529 15.32 26.6529 16.077V17.4662C26.6529 17.513 26.6685 17.552 26.6999 17.5832L27.6867 18.5666C27.9452 18.8241 28.094 19.1753 28.094 19.5421C28.094 19.9089 27.953 20.2601 27.6867 20.5177L26.6999 21.501C26.6685 21.5322 26.6529 21.5713 26.6529 21.6181V23.0073C26.6529 23.7721 26.0263 24.3886 25.2666 24.3886H23.8724C23.8255 24.3886 23.7863 24.4043 23.755 24.4355L22.7681 25.4188C22.5018 25.6764 22.1494 25.8247 21.7813 25.8247ZM18.3038 15.1249C17.7869 15.1249 17.3561 15.5463 17.3561 16.0692V17.4584C17.3561 17.6145 17.2934 17.7783 17.1759 17.8876L16.1891 18.871C16.009 19.0505 15.915 19.2846 15.915 19.5343C15.915 19.7841 16.0168 20.0182 16.1891 20.1977L17.1759 21.1811C17.2934 21.2981 17.3561 21.4464 17.3561 21.6103V22.9995C17.3561 23.5146 17.779 23.9438 18.3038 23.9438H19.6979C19.8624 23.9438 20.0112 24.0062 20.1287 24.1233L21.1155 25.1067C21.4758 25.4657 22.0945 25.4657 22.4548 25.1067L23.4417 24.1233C23.5592 24.0062 23.708 23.9438 23.8724 23.9438H25.2666C25.7835 23.9438 26.2143 23.5224 26.2143 22.9995V21.6103C26.2143 21.4464 26.2769 21.2903 26.3944 21.1811L27.3813 20.1977C27.7494 19.8309 27.7494 19.23 27.3813 18.8632L26.3944 17.8798C26.2769 17.7627 26.2143 17.6067 26.2143 17.4506V16.0614C26.2143 15.5463 25.7913 15.1171 25.2666 15.1171H23.8724C23.708 15.1171 23.5592 15.0546 23.4417 14.9376L22.4548 13.9542C22.0945 13.5952 21.4758 13.5952 21.1155 13.9542L20.1287 14.9376C20.0112 15.0546 19.8624 15.1171 19.6979 15.1171H18.3038V15.1249ZM23.3399 22.3283C22.6506 22.3283 22.0945 21.7664 22.0945 21.0874C22.0945 20.4084 22.6506 19.8465 23.3399 19.8465C24.0291 19.8465 24.5852 20.4084 24.5852 21.0874C24.5852 21.7742 24.0291 22.3283 23.3399 22.3283ZM23.3399 20.2836C22.8934 20.2836 22.5331 20.6426 22.5331 21.0874C22.5331 21.5322 22.8934 21.8912 23.3399 21.8912C23.7863 21.8912 24.1466 21.5322 24.1466 21.0874C24.1387 20.6426 23.7785 20.2836 23.3399 20.2836ZM19.6979 22.219C19.5413 22.219 19.3768 22.1566 19.2593 22.0317C19.0322 21.7976 19.0322 21.423 19.2593 21.1889L23.4338 17.0291C23.6766 16.795 24.0683 16.8028 24.3032 17.0447C24.5303 17.2789 24.5303 17.6535 24.3032 17.8876L20.1287 22.0473C20.0034 22.1644 19.8545 22.219 19.6979 22.219ZM23.8646 17.2945C23.8255 17.2945 23.7785 17.3101 23.7471 17.3413L19.5726 21.501C19.5099 21.5635 19.5099 21.6649 19.5726 21.7274C19.6352 21.7898 19.7449 21.7976 19.8076 21.7274L23.9821 17.5676C24.0448 17.5052 24.0448 17.4037 23.9821 17.3413C23.9508 17.3101 23.9116 17.2945 23.8646 17.2945ZM23.3399 21.5557C23.0814 21.5557 22.8699 21.3449 22.8699 21.0874C22.8699 20.8299 23.0814 20.6191 23.3399 20.6191C23.5983 20.6191 23.8098 20.8299 23.8098 21.0874C23.8098 21.3449 23.5983 21.5557 23.3399 21.5557ZM23.3634 21.0874L23.332 21.1186C23.3555 21.1108 23.3634 21.103 23.3634 21.0874ZM20.2227 19.23C19.5334 19.23 18.9773 18.668 18.9773 17.9891C18.9773 17.3023 19.5334 16.7404 20.2227 16.7404C20.9119 16.7404 21.468 17.3023 21.468 17.9813C21.468 18.6602 20.9119 19.23 20.2227 19.23ZM20.2227 17.1852C19.7762 17.1852 19.4159 17.5442 19.4159 17.9891C19.4159 18.4339 19.7762 18.7929 20.2227 18.7929C20.6691 18.7929 21.0294 18.4339 21.0294 17.9891C21.0294 17.5442 20.6691 17.1852 20.2227 17.1852ZM20.2227 18.4573C19.9642 18.4573 19.7527 18.2466 19.7527 17.9891C19.7527 17.7315 19.9642 17.5208 20.2227 17.5208C20.4811 17.5208 20.6926 17.7315 20.6926 17.9891C20.7004 18.2466 20.489 18.4573 20.2227 18.4573ZM20.2227 17.9578C20.207 17.9578 20.1992 17.9735 20.1992 17.9813L20.2227 17.9578Z" fill="black"/>
<path d="M51.4574 28.8449H43.1553C42.6854 28.8449 42.3721 28.5328 42.3721 28.0645V12.924C42.3721 12.4558 42.6854 12.1436 43.1553 12.1436H51.5357C52.0057 12.1436 52.319 12.4558 52.319 12.924V28.0645C52.2406 28.4547 51.9273 28.8449 51.4574 28.8449ZM43.9385 27.2841H50.7525V13.7045H43.9385V27.2841Z" fill="black"/>
<path d="M39.3958 45H0.783217C0.313287 45 0 44.6878 0 44.2196V30.9521C0 30.4839 0.313287 30.1717 0.783217 30.1717H39.3958C39.8657 30.1717 40.179 30.4839 40.179 30.9521V44.1415C40.179 44.6098 39.8657 45 39.3958 45ZM1.56643 43.4391H38.6126V31.7326H1.56643V43.4391Z" fill="black"/>
<path d="M12.9232 41.41H4.38609C3.91616 41.41 3.60287 41.0978 3.60287 40.6295V34.6202C3.60287 34.1519 3.91616 33.8397 4.38609 33.8397H12.9232C13.3931 33.8397 13.7064 34.1519 13.7064 34.6202V40.6295C13.7064 41.0198 13.3148 41.41 12.9232 41.41ZM5.16931 39.8491H12.1399V35.4006H5.16931V39.8491Z" fill="black"/>
<path d="M24.3582 41.41H15.8211C15.3512 41.41 15.0379 41.0978 15.0379 40.6295V34.6202C15.0379 34.1519 15.3512 33.8397 15.8211 33.8397H24.3582C24.8281 33.8397 25.1414 34.1519 25.1414 34.6202V40.6295C25.1414 41.0198 24.8281 41.41 24.3582 41.41ZM16.6043 39.8491H23.575V35.4006H16.6043V39.8491Z" fill="black"/>
<path d="M35.7929 41.41H27.2558C26.7859 41.41 26.4726 41.0978 26.4726 40.6295V34.6202C26.4726 34.1519 26.7859 33.8397 27.2558 33.8397H35.7929C36.2628 33.8397 36.5761 34.1519 36.5761 34.6202V40.6295C36.5761 41.0198 36.1845 41.41 35.7929 41.41ZM28.039 39.8491H35.0096V35.4006H28.039V39.8491Z" fill="black"/>
<path d="M54.5119 0.0234131V0.12487H1.56643L0 0.0936524V44.2196C0 44.6878 0.313287 45 0.783217 45L55.2168 45C55.6867 45 56 44.6878 56 44.2196V0C55.5066 0.00780437 55.0053 0.0156087 54.5119 0.0234131ZM38.6126 43.4391H1.56643V31.7326H38.6126V43.4391ZM38.6126 30.1717H1.56643V9.88033H38.6126V30.1717ZM38.6126 8.31946H1.56643V1.68574H38.6126V8.31946ZM54.4336 43.4391H40.179V9.88033H54.4336V43.4391ZM54.4336 8.31946H40.179V1.68574H54.4336V8.31946Z" fill="black"/>
<path d="M43.312 31.8106C43.7879 31.8106 44.1736 31.4263 44.1736 30.9521C44.1736 30.478 43.7879 30.0936 43.312 30.0936C42.8362 30.0936 42.4505 30.478 42.4505 30.9521C42.4505 31.4263 42.8362 31.8106 43.312 31.8106Z" fill="black"/>
<path d="M7.98881 27.3621C7.75385 27.3621 7.5972 27.2841 7.44056 27.128L4.54266 24.2404C4.22937 23.9282 4.22937 23.4599 4.54266 23.1477C4.85594 22.8356 5.32587 22.8356 5.63916 23.1477L8.53706 26.0354C8.85035 26.3475 8.85035 26.8158 8.53706 27.128C8.38042 27.2841 8.14545 27.3621 7.98881 27.3621Z" fill="black"/>
<path d="M11.5915 26.8158C11.3565 26.8158 11.1998 26.7378 11.0432 26.5817L5.16908 20.7284C4.85579 20.4162 4.85579 19.948 5.16908 19.6358C5.48236 19.3236 5.95229 19.3236 6.26558 19.6358L12.1397 25.4891C12.453 25.8012 12.453 26.2695 12.1397 26.5817C11.9831 26.7378 11.7481 26.8158 11.5915 26.8158Z" fill="black"/>
</svg>
