<svg width="24" height="32" viewBox="0 0 24 32" fill="none" xmlns="http://www.w3.org/2000/svg">
<path d="M12.3996 31.0005H11.6882L11.5487 30.9405C11.1418 30.7515 10.7974 30.4365 10.5584 30.0405L7.88328 26.0595C6.26684 23.6595 4.65326 21.2595 3.04536 18.8595C2.01517 17.3055 1.39193 15.4905 1.23541 13.6005C0.734542 8.71352 3.29579 4.04553 7.56454 2.06553C11.6426 0.202531 15.6183 0.790531 19.0589 3.76653C21.1904 5.58753 22.5479 8.23052 22.8239 11.1075C23.1654 13.9635 22.4511 16.8495 20.8318 19.1685C18.41 22.7685 15.9911 26.3685 13.5721 29.9685C13.3274 30.4005 12.9602 30.7425 12.522 30.9435L12.3996 31.0005ZM12.0496 29.3685C12.1463 29.2665 12.2346 29.1525 12.3085 29.0295C14.7275 25.4295 17.1465 21.8295 19.5683 18.2295C20.957 16.2375 21.5689 13.7595 21.2758 11.3085C21.0453 8.85152 19.8955 6.58952 18.0799 5.02953C15.0719 2.42853 11.7422 1.93653 8.18209 3.56253C4.52804 5.26053 2.33959 9.25952 2.77501 13.4445C2.90591 15.0495 3.43239 16.5855 4.30322 17.9085C5.90542 20.3085 7.51617 22.7085 9.14114 25.1085C10.0376 26.4375 10.9312 27.7665 11.8219 29.0985C11.8874 29.1975 11.9642 29.2905 12.0496 29.3685ZM12.0211 16.8315H11.9813C9.72169 16.7685 7.92027 14.8245 7.91458 12.4425C7.94304 10.0335 9.8156 8.10152 12.1008 8.12252C14.3575 8.17652 16.1647 10.1175 16.176 12.4965C16.1561 14.8995 14.3006 16.8345 12.0211 16.8315ZM12.0496 9.75152C11.3666 9.75152 10.712 10.0335 10.2254 10.5405C9.73592 11.0445 9.45702 11.7315 9.45133 12.4515C9.45133 13.9395 10.5754 15.1545 11.987 15.1965C13.4241 15.2175 14.6023 14.0055 14.6222 12.4905C14.6222 12.4875 14.6222 12.4815 14.6222 12.4785C14.6137 10.9935 13.4867 9.78152 12.078 9.74852H12.0496V9.75152Z" fill="#00FF00"/>
<path fill-rule="evenodd" clip-rule="evenodd" d="M18.9084 3.95978C15.5366 1.04328 11.6556 0.469275 7.65946 2.29462C3.48566 4.23089 0.981446 8.79525 1.47118 13.5737L1.47171 13.5788C1.62461 15.4251 2.23335 17.198 3.23941 18.7158C4.84704 21.1154 6.46039 23.515 8.07664 25.9148L10.7587 29.9061C10.9725 30.2603 11.2795 30.5415 11.6414 30.7103L11.7347 30.7505H12.3496L12.4261 30.7148L12.4274 30.7142C12.8198 30.5343 13.149 30.2278 13.3685 29.8403L13.3732 29.8319L13.3786 29.824C15.7975 26.224 18.2165 22.6239 20.6384 19.0239L20.6408 19.0203C22.2241 16.7528 22.9225 13.931 22.5886 11.1388L22.5879 11.1327C22.3182 8.32214 20.9921 5.73992 18.9095 3.96074L18.9084 3.95978ZM19.2087 3.57277C15.6996 0.537842 11.6298 -0.0640773 7.47024 1.83613L7.46903 1.83669C3.10642 3.86022 0.488539 8.63037 0.99936 13.6248C1.15983 15.5573 1.7973 17.4133 2.85096 19.0027L2.85164 19.0037C4.45964 21.4039 6.07329 23.804 7.68975 26.204M7.68975 26.204L10.3615 30.1801C10.6251 30.6145 11.0042 30.9608 11.4531 31.1693L11.6416 31.2505H12.4497L12.6166 31.1727C13.0975 30.952 13.501 30.5775 13.7708 30.1052C16.1876 26.5084 18.6044 22.9117 21.024 19.3149C22.6778 16.9456 23.4077 13.9973 23.0596 11.0793C22.7765 8.13728 21.3881 5.43493 19.2087 3.57277M13.371 2.46332C15.074 2.71554 16.6979 3.51126 18.23 4.83597C20.0937 6.43741 21.274 8.75891 21.5115 11.2806C21.8112 13.7934 21.1838 16.3335 19.7605 18.3759C17.3403 21.9735 14.9229 25.5712 12.5055 29.1689C12.4221 29.3065 12.3239 29.4328 12.2173 29.5453L12.0611 29.7099L11.8943 29.5574C11.7923 29.4642 11.7028 29.3554 11.6278 29.2422C10.7374 27.9106 9.84407 26.582 8.94786 25.2534C7.32259 22.8529 5.71162 20.4526 4.10927 18.0524L4.10837 18.051C3.21451 16.693 2.67382 15.1164 2.53896 13.4688C2.09358 9.17648 4.33856 5.07535 8.08643 3.33376L8.0878 3.33312C9.90145 2.50478 11.6679 2.21109 13.371 2.46332ZM8.27706 3.79159C10.0233 2.99417 11.7015 2.72097 13.305 2.95846C14.9088 3.19598 16.4536 3.94667 17.9295 5.22281C19.6961 6.74065 20.8155 8.94219 21.0398 11.3331L21.0405 11.3398C21.326 13.7271 20.73 16.141 19.3772 18.0814L19.3748 18.0849C16.9531 21.6848 14.5342 25.2846 12.1154 28.8844L12.1083 28.8956C12.0879 28.9294 12.0663 28.9625 12.0435 28.9949C12.0343 28.982 12.0253 28.9689 12.0165 28.9555L12.0157 28.9544C11.1248 27.6221 10.231 26.2928 9.3344 24.9636C7.70999 22.5644 6.09949 20.1648 4.49768 17.7654C3.65064 16.4783 3.13861 14.9843 3.01128 13.4231L3.01074 13.4172C2.58663 9.34094 4.71808 5.44579 8.27706 3.79159ZM8.15173 12.4437C8.15804 14.6884 9.85505 16.5204 11.9844 16.5815H12.0211C14.1699 16.5843 15.9192 14.7608 15.9389 12.4961C15.9273 10.2537 14.224 8.42431 12.0971 8.37249C9.94379 8.35364 8.1795 10.1739 8.15173 12.4437ZM7.67744 12.4394C7.70753 9.89265 9.68708 7.85032 12.1029 7.87252L12.1062 7.87255C14.4914 7.92963 16.4012 9.98101 16.4132 12.4952L16.4132 12.4987C16.3921 15.039 14.4307 17.0845 12.0211 17.0815M12.0211 17.0815H11.975C9.58725 17.0149 7.68344 14.9605 7.67742 12.4431L7.67744 12.4394M12.149 10.0015C13.3928 10.0724 14.3771 11.1563 14.3851 12.4793V12.4884C14.3661 13.8644 13.2964 14.9646 11.992 14.9466C10.7094 14.9074 9.68901 13.8037 9.68848 12.4526C9.6939 11.7999 9.9468 11.1768 10.3911 10.7194L10.3921 10.7183C10.8342 10.2578 11.4287 10.0015 12.0496 10.0015H12.149ZM11.8124 9.51193C11.1543 9.56992 10.5337 9.86806 10.0592 10.3622C9.52507 10.9124 9.2204 11.6627 9.21418 12.4494L9.21417 12.4515C9.21417 14.0753 10.4409 15.4006 11.9803 15.4464L11.9837 15.4465C13.5522 15.4694 14.8376 14.1466 14.8593 12.494L14.8594 12.4794L14.8594 12.477C14.85 10.8572 13.6208 9.53459 12.0833 9.49857L11.8124 9.49851V9.51193Z" fill="#00FF00"/>
</svg>
