<svg width="110" height="110" viewBox="0 0 110 110" fill="none" xmlns="http://www.w3.org/2000/svg">
<circle cx="55" cy="55" r="55" fill="#00FFEA"/>
<path d="M39.9748 68.6521H34.5136C33.7627 68.6521 33.1483 68.0377 33.1483 67.2868V59.095C33.1483 58.3441 33.7627 57.7297 34.5136 57.7297H39.9748C40.7257 57.7297 41.3401 58.3441 41.3401 59.095V67.2868C41.3401 68.0377 40.7393 68.6521 39.9748 68.6521ZM35.8789 65.9215H38.6095V60.4603H35.8789V65.9215Z" fill="#1E1F26"/>
<path d="M50.8971 68.6521H45.436C44.685 68.6521 44.0707 68.0377 44.0707 67.2868V42.7115C44.0707 41.9606 44.685 41.3462 45.436 41.3462H50.8971C51.648 41.3462 52.2624 41.9606 52.2624 42.7115V67.2868C52.2624 68.0377 51.6617 68.6521 50.8971 68.6521ZM46.8012 65.9215H49.5318V44.0768H46.8012V65.9215Z" fill="#1E1F26"/>
<path d="M61.8195 68.6521H56.3583C55.6074 68.6521 54.993 68.0377 54.993 67.2868V50.9033C54.993 50.1524 55.6074 49.538 56.3583 49.538H61.8195C62.5704 49.538 63.1848 50.1524 63.1848 50.9033V67.2868C63.1848 68.0377 62.584 68.6521 61.8195 68.6521ZM57.7236 65.9215H60.4542V52.2686H57.7236V65.9215Z" fill="#1E1F26"/>
<path d="M61.9287 74.1133H34.418C33.6671 74.1133 33.0527 73.4989 33.0527 72.748C33.0527 71.9971 33.6671 71.3827 34.418 71.3827H61.9287C62.6796 71.3827 63.294 71.9971 63.294 72.748C63.294 73.4989 62.6796 74.1133 61.9287 74.1133Z" fill="#1E1F26"/>
<path d="M61.9287 79.5744H34.418C33.6671 79.5744 33.0527 78.96 33.0527 78.2091C33.0527 77.4582 33.6671 76.8438 34.418 76.8438H61.9287C62.6796 76.8438 63.294 77.4582 63.294 78.2091C63.294 78.96 62.6796 79.5744 61.9287 79.5744Z" fill="#1E1F26"/>
<path d="M65.0006 87.5341H29.9535C27.5916 87.5341 25.6665 85.609 25.6665 83.2471V33.5913C25.6665 31.2294 27.5916 29.3043 29.9535 29.3043H34.3361C35.087 29.3043 35.7014 29.9187 35.7014 30.6696V32.1305C35.7014 32.9906 36.3977 33.6869 37.2578 33.6869H57.7099C58.5701 33.6869 59.2664 32.9906 59.2664 32.1305V30.6696C59.2664 29.9187 59.8808 29.3043 60.6317 29.3043H65.0143C67.3762 29.3043 69.3013 31.2294 69.3013 33.5913V83.2471C69.2876 85.609 67.3626 87.5341 65.0006 87.5341ZM29.9535 32.0349C29.0934 32.0349 28.3971 32.7312 28.3971 33.5913V83.2471C28.3971 84.1072 29.0934 84.8035 29.9535 84.8035H65.0006C65.8607 84.8035 66.557 84.1072 66.557 83.2471V33.5913C66.557 32.7312 65.8607 32.0349 65.0006 32.0349H61.9833V32.1305C61.9833 34.4924 60.0583 36.4175 57.6963 36.4175H37.2578C34.8959 36.4175 32.9708 34.4924 32.9708 32.1305V32.0349H29.9535Z" fill="#1E1F26"/>
<path d="M57.6963 36.4175H37.2578C34.8959 36.4175 32.9708 34.4924 32.9708 32.1305V27.7479C32.9708 26.997 33.5852 26.3826 34.3361 26.3826H38.7187L38.8143 24.8262C38.8143 23.2697 40.084 22 41.6404 22H53.3274C54.8838 22 56.1535 23.2697 56.1535 24.8262V26.287C56.1535 26.3416 56.1945 26.3826 56.2491 26.3826H60.6317C61.3826 26.3826 61.997 26.997 61.997 27.7479V32.1305C61.9833 34.4924 60.0719 36.4175 57.6963 36.4175ZM35.7014 29.1132V32.1305C35.7014 32.9906 36.3977 33.6869 37.2578 33.6869H57.7099C58.5701 33.6869 59.2664 32.9906 59.2664 32.1305V29.1132H56.2491C54.6926 29.1132 53.4229 27.8435 53.4229 26.287V24.8262L41.6404 24.7306L41.5449 26.287C41.5449 27.8435 40.2751 29.1132 38.7187 29.1132H35.7014Z" fill="#1E1F26"/>
<path d="M82.9679 32.8404H74.2027C73.4518 32.8404 72.8374 32.226 72.8374 31.4751V26.287C72.8374 23.9251 74.7625 22 77.1244 22H80.0462C82.4081 22 84.3332 23.9251 84.3332 26.287V31.4751C84.3332 32.226 83.7188 32.8404 82.9679 32.8404ZM75.568 30.1098H81.6026V26.287C81.6026 25.4269 80.9063 24.7306 80.0462 24.7306H77.1244C76.2643 24.7306 75.568 25.4269 75.568 26.287V30.1098Z" fill="#1E1F26"/>
<path d="M82.9406 75.9018H74.2163C73.6429 75.9018 73.1378 75.5468 72.933 75.0144C72.8784 74.8642 72.8237 74.6457 72.8237 74.4819V31.4751C72.8237 30.7242 73.4381 30.1098 74.189 30.1098H82.9542C83.7051 30.1098 84.3195 30.7242 84.3195 31.4751V74.4819C84.3195 74.6457 84.2922 74.8232 84.2239 74.9734C84.0328 75.5059 83.5003 75.9018 82.9406 75.9018ZM75.568 73.1712H81.6026V32.8404H75.568V73.1712Z" fill="#1E1F26"/>
<path d="M78.5853 87.5341C78.0119 87.5341 77.5067 87.1791 77.3019 86.6467L72.9466 75.0144C72.7828 74.5911 72.8511 74.1269 73.0968 73.7583C73.3562 73.3897 73.7658 73.1712 74.2163 73.1712H82.9406C83.3911 73.1712 83.8007 73.3897 84.0601 73.7583C84.3195 74.1269 84.3741 74.5911 84.2103 75.0144L79.855 86.6467C79.6639 87.1791 79.1587 87.5341 78.5853 87.5341ZM76.196 75.9018L78.5853 82.2777L80.9745 75.9018H76.196Z" fill="#1E1F26"/>
</svg>
