<svg width="110" height="110" viewBox="0 0 110 110" fill="none" xmlns="http://www.w3.org/2000/svg">
<circle cx="55" cy="55" r="55" fill="#00FFEA"/>
<path d="M55.0011 67.1722C43.3497 67.1722 33.8933 57.7158 33.8933 46.0644C33.8933 34.413 43.337 24.9566 55.0011 24.9566C66.6653 24.9566 76.1089 34.413 76.1089 46.0644C76.0962 57.7158 66.6525 67.1594 55.0011 67.1722ZM55.0011 27.5089C44.7535 27.5089 36.4456 35.8168 36.4456 46.0644C36.4456 56.312 44.7535 64.6199 55.0011 64.6199C65.2488 64.6199 73.5566 56.312 73.5566 46.0644C73.5438 35.8168 65.2488 27.5217 55.0011 27.5089Z" fill="#1E1F26"/>
<path d="M55.0011 73.77C39.6871 73.77 27.2828 61.3656 27.2828 46.0516C27.2828 30.7376 39.6871 18.3333 55.0011 18.3333C70.3151 18.3333 82.7195 30.7376 82.7195 46.0516V46.0644C82.694 61.3656 70.3024 73.7572 55.0011 73.77ZM55.0011 20.8983C41.1037 20.8983 29.8351 32.1669 29.8351 46.0644C29.8351 59.9619 41.1037 71.2304 55.0011 71.2304C68.8986 71.2304 80.1672 59.9619 80.1672 46.0644C80.1416 32.1797 68.8858 20.9239 55.0011 20.8983Z" fill="#1E1F26"/>
<path d="M69.5494 92.3638C69.09 92.3638 68.6689 92.1213 68.4392 91.7257L57.7321 73.2212C57.3748 72.6087 57.5917 71.8302 58.2043 71.4729C58.8169 71.1156 59.5953 71.3325 59.9527 71.9451L69.4346 88.3821L73.5566 79.6021C73.7863 79.1171 74.2968 78.8236 74.8328 78.8747L84.4296 79.6531L74.9093 63.2671C74.5265 62.6673 74.7052 61.8889 75.305 61.506C75.9048 61.1232 76.6832 61.3018 77.0661 61.9016C77.0916 61.9272 77.1044 61.9654 77.1171 61.991L87.8242 80.5337C88.1815 81.1462 87.9773 81.9247 87.3648 82.282C87.135 82.4097 86.8798 82.4735 86.6118 82.4479L75.4836 81.5419L70.698 91.6363C70.4938 92.0575 70.0727 92.3382 69.6005 92.3638H69.5494Z" fill="#1E1F26"/>
<path d="M40.4528 92.3638C39.9806 92.3382 39.5595 92.0575 39.3553 91.6363L34.5824 81.5419L23.4543 82.4479C22.7524 82.55 22.1143 82.0651 22.0122 81.3632C21.9739 81.0824 22.0249 80.7889 22.1781 80.5337L32.8851 61.991C33.2169 61.3656 33.9826 61.1232 34.608 61.455C35.2333 61.7868 35.4758 62.5525 35.144 63.1778C35.1312 63.2033 35.1057 63.2416 35.0929 63.2671L25.6493 79.7042L35.246 78.9257C35.782 78.8747 36.2925 79.1682 36.5222 79.6531L40.6442 88.3438L50.0496 71.9451C50.4069 71.3325 51.1854 71.1156 51.7979 71.4729C52.4105 71.8302 52.6275 72.6087 52.2701 73.2212L41.5631 91.7257C41.3334 92.1213 40.9122 92.3638 40.4528 92.3638Z" fill="#1E1F26"/>
<path d="M55.0011 51.4626C53.508 51.4626 52.2957 50.4161 52.2957 49.1144C52.2957 48.4125 51.7214 47.8383 51.0195 47.8383C50.3176 47.8383 49.7433 48.4125 49.7433 49.1144C49.7433 51.3988 51.4406 53.313 53.725 53.849V54.168C53.725 54.8699 54.2992 55.4442 55.0011 55.4442C55.703 55.4442 56.2773 54.8699 56.2773 54.168V53.849C58.5616 53.313 60.2589 51.3988 60.2589 49.1144C60.2589 46.409 57.898 44.2139 55.0011 44.2139C53.508 44.2139 52.2957 43.1675 52.2957 41.8658C52.2957 40.5641 53.508 39.5176 55.0011 39.5176C56.4942 39.5176 57.7066 40.5641 57.7066 41.8658C57.7066 42.5677 58.2809 43.142 58.9828 43.142C59.6847 43.142 60.2589 42.5677 60.2589 41.8658C60.2589 39.5815 58.5616 37.6672 56.2773 37.1312V36.8122C56.2773 36.1103 55.703 35.536 55.0011 35.536C54.2992 35.536 53.725 36.1103 53.725 36.8122V37.1312C51.4406 37.6672 49.7433 39.5815 49.7433 41.8658C49.7433 44.5713 52.1042 46.7663 55.0011 46.7663C56.4942 46.7663 57.7066 47.8127 57.7066 49.1144C57.7066 50.4161 56.4942 51.4626 55.0011 51.4626Z" fill="#1E1F26"/>
</svg>
